<ttFont>
          <CharString index="0">
            512 128 rmoveto
            -47 -52 -56 -26 -56 hhcurveto
            -97 -61 82 130 16 1 10 3 7 hvcurveto
            322 hlineto
            31 2 2 21 136 -83 81 -141 -168 -119 -117 -165 -159 111 -109 164 91 74 33 70 62 hvcurveto
            -339 263 rmoveto
            73 13 50 53 57 hhcurveto
            51 37 -42 -58 -23 -9 -3 -54 hvcurveto
            return
          </CharString>
          <CharString index="1">
            472 780 rmoveto
            -240 -187 -175 -226 -217 189 -172 238 238 189 172 217 226 -187 175 -240 hvcurveto
            -725 vmoveto
            -156 -97 124 197 208 97 131 156 156 97 -131 -208 -197 -98 -124 -155 hvcurveto
            return
          </CharString>
          <CharString index="2">
            -69 -10 -48 -22 -36 vhcurveto
            -36 -21 -30 -18 -40 hhcurveto
            -73 -32 58 134 hvcurveto
            283 -224 -40 vlineto
            80 -9 5 -5 -110 vvcurveto
            -135 vlineto
            -73 14 -53 29 -39 vhcurveto
            -50 37 56 -26 70 hhcurveto
            77 67 33 55 34 hvcurveto
            4 hlineto
            return
          </CharString>
          <CharString index="3">
            328 56 callgsubr
            -163 133 -116 158 159 136 117 162 157 -136 114 -159 hvcurveto
            -58 vmoveto
            83 55 -87 -127 -131 -54 -86 -84 -82 -52 85 132 128 53 86 81 hvcurveto
            return
          </CharString>
          <CharString index="4">
            -49 67 61 -21 79 hhcurveto
            175 123 94 135 111 -76 75 -186 71 hvcurveto
            -138 52 -32 25 57 vvcurveto
            64 57 45 82 89 72 -60 -109 32 vhcurveto
            39 hlineto
            -11 216 rlineto
            -24 hlineto
            -18 -50 rlineto
            43 -58 -59 21 -68 hhcurveto
            -146 -101 -87 -125 -107 74 -79 155 -59 hvcurveto
            155 -58 33 -27 -63 vvcurveto
            -74 -67 -50 -100 -120 -91 78 126 -18 vhcurveto
            -39 hlineto
            return
          </CharString>
          <CharString index="5">
            516 323 rmoveto
            148 70 16 19 52 hhcurveto
            40 -241 -40 vlineto
            58 15 -9 -35 -23 -8 -22 -36 -83 hvcurveto
            -86 -195 rlineto
            -4 hlineto
            -102 292 rlineto
            -5 15 -4 15 10 vvcurveto
            26 18 9 52 vhcurveto
            40 -303 -40 vlineto
            52 -2 11 -10 31 -77 177 -438 rcurveline
            -27 -52 -17 -32 -37 -19 -61 -5 rlinecurve
            -52 -4 -22 -19 -33 vvcurveto
            -36 29 -23 44 58 65 44 59 28 vhcurveto
            return
          </CharString>
          <CharString index="6">
            308 276 rmoveto
            -92 vlineto
            -126 -22 -18 -83 vhcurveto
            -40 356 40 vlineto
            -85 -19 18 133 hvcurveto
            102 vlineto
            146 250 rlineto
            157 92 30 30 58 hhcurveto
            40 -251 -40 vlineto
            56 17 -7 -23 -21 -15 -32 -44 -74 hvcurveto
            -126 -210 rlineto
            -4 hlineto
            -143 273 rlineto
            -17 32 -8 17 13 vvcurveto
            21 20 11 56 vhcurveto
            40 -336 -40 vlineto
            52 23 -16 -70 40 hvcurveto
            return
          </CharString>
          <CharString index="7">
            69 39 26 42 45 vvcurveto
            50 -24 29 -42 -43 -29 -29 -31 -30 21 -20 25 12 9 3 5 6 vhcurveto
            -25 -18 -25 -40 -22 vhcurveto
            endchar
          </CharString>
          <CharString index="8">
            82 -4 12 -6 callsubr
            -462 vlineto
            -94 -17 -20 -88 33 callgsubr
            -127 -18 20 99 hvcurveto
            196 vlineto
            21 24 -11 -40 33 hvcurveto
            248 -304 rlineto
            237 40 hlineto
            -45 -47 20 37 -32 hvcurveto
            -232 266 rlineto
            140 25 61 78 111 vvcurveto
            -408 120 rmoveto
            10 7 7 11 vhcurveto
            87 hlineto
            92 55 -57 -85 -111 -62 -46 -125 hvcurveto
            -65 hlineto
            return
          </CharString>
          <CharString index="9">
            -29 -24 -20 -27 -37 -23 20 35 26 17 19 26 12 vhcurveto
            59 32 rmoveto
            30 17 24 18 34 vvcurveto
            22 -12 19 -19 12 vhcurveto
            12 -19 -26 5 -24 hhcurveto
            -26 -28 -6 -16 -19 hvcurveto
            -17 -15 -11 -21 -21 vvcurveto
            -39 28 -23 32 -17 vhcurveto
            -37 -16 -33 -25 -42 vvcurveto
            -51 62 -24 49 vhcurveto
            return
          </CharString>
          <CharString index="10">
            104 0 -64 callsubr
            -53 243 -230 40 60 -20 -78 callgsubr
            hintmask 1011100110000000
            -96 callgsubr
            hintmask 1011001110000000
            -40 vlineto
            hintmask 1011100101000000
            -95 callsubr
            678 vlineto
            16 229 rlineto
            -40 hlineto
            return
          </CharString>
          <CharString index="11">
            -85 -4 vlineto
            48 -38 -52 18 -66 hhcurveto
            -144 -109 -120 -159 -159 107 -112 152 72 61 25 49 46 hvcurveto
            4 hlineto
            -31 184 rmoveto
            -68 -8 -41 -19 -29 vhcurveto
            -39 -25 -43 -24 -44 hhcurveto
            -77 -43 78 138 136 43 75 78 43 39 -21 -38 24 hvcurveto
            21 -33 11 -45 -50 vvcurveto
            return
          </CharString>
          <CharString index="12">
            80 -4 14 -6 callsubr
            -462 vlineto
            -94 -16 -17 -89 -39 callgsubr
            return
          </CharString>
          <CharString index="13">
            rmoveto
            -39 hlineto
            -98 -25 -30 -18 -140 hhcurveto
            -88 hlineto
            308 453 rlineto
            23 -451 vlineto
            -12 -156 rlineto
            39 hlineto
            88 16 23 15 114 hhcurveto
            92 hlineto
            -313 -454 rlineto
            -23 494 vlineto
            return
          </CharString>
          <CharString index="14">
            40 3 -43 40 hhcurveto
            28 19 20 28 37 -34 25 -51 -33 -28 -11 -38 -61 hvcurveto
            30 -39 -58 19 -57 hhcurveto
            -117 -88 -75 -100 -68 43 -66 60 -24 hvcurveto
            -4 vlineto
            -65 -13 -37 -36 -54 vvcurveto
            -55 37 -34 74 -10 vhcurveto
            175 -24 rlineto
            56 -7 31 -36 -45 vvcurveto
            -63 -51 -32 -99 vhcurveto
            return
          </CharString>
          <CharString index="15">
            297 rmoveto
            56 13 46 23 31 vhcurveto
            29 23 31 15 41 hhcurveto
            75 27 -52 -142 hvcurveto
            -123 vlineto
            -101 -9 -12 -80 -26 callgsubr
            313 40 vlineto
            -79 5 -6 8 111 vvcurveto
            155 vlineto
            61 -21 60 -35 40 vhcurveto
            40 -36 -51 20 -65 hhcurveto
            -71 -50 -25 -54 -41 hvcurveto
            -4 return
          </CharString>
          <CharString index="16">
            24 -35 -32 9 -50 hhcurveto
            -156 -99 -94 -150 hvcurveto
            -32 -107 -57 107 -299 vlineto
            -101 4 callsubr
            303 40 vlineto
            -60 2 -15 25 99 vvcurveto
            291 197 -299 vlineto
            -50 callsubr
            return
          </CharString>
          <CharString index="17">
            90 -4 15 -27 -113 vvcurveto
            -402 vlineto
            -124 -17 -17 -98 -39 callgsubr
            297 40 vlineto
            -89 3 -15 16 132 vvcurveto
            430 4 vlineto
            return
          </CharString>
          <CharString index="18">
            28 callsubr
            -65 245 -190 -20 80 -20 hstemhm
            47 174 hintmask 10100110
            688 708 rmoveto
            51 -82 -66 21 -81 hhcurveto
            -244 -168 -166 -242 -233 157 -149 243 104 89 29 60 74 hvcurveto
            hintmask 01100110
            -15 callgsubr
            hintmask 10010010
            -76 callsubr
            hintmask 10001110
            20 253 rlineto
            -49 hlineto
            return
          </CharString>
          <CharString index="19">
            -79 callsubr
            -147 754 -104 callgsubr
          </CharString>
          <CharString index="20">
            rmoveto
            -33 -9 -40 -7 -33 -1 rrcurveto
            -25 vlineto
            28 14 -2 -11 2 hvcurveto
            2 -5 0 -22 -31 vvcurveto
            -127 vlineto
            -38 -6 -7 -38 -2 vhcurveto
            -25 148 25 vlineto
            -38 1 -6 8 41 vvcurveto
            return
          </CharString>
          <CharString index="21">
            21 -30 -44 13 -41 hhcurveto
            -93 -70 -66 -89 -68 41 -50 101 -55 hvcurveto
            74 -40 32 -34 -37 vvcurveto
            -36 -29 -22 -49 -68 -41 43 95 -23 vhcurveto
            -42 hlineto
            return
          </CharString>
          <CharString index="22">
            107 35 rmoveto
            -29 32 52 -16 57 hhcurveto
            110 72 61 92 72 -43 51 -108 58 hvcurveto
            -75 40 -31 31 37 vvcurveto
            33 24 22 37 46 30 -31 -76 31 vhcurveto
            39 hlineto
            return
          </CharString>
          <CharString index="23">
            -35 26 -24 34 36 26 24 35 33 -26 24 -36 -34 63 callsubr
            217 hmoveto
            -35 26 -24 36 33 27 24 35 33 -27 24 -33 -36 63 callsubr
            endchar
          </CharString>
          <CharString index="24">
            -41 33 -33 42 44 33 33 41 43 -33 34 -44 -42 -33 -34 -43 vhcurveto
            return
          </CharString>
          <CharString index="25">
            14 -4 -16 9 -19 hhcurveto
            -29 -23 -22 -29 -41 45 -30 62 69 51 37 50 38 -29 32 -45 11 hvcurveto
            4 vlineto
            37 8 27 30 34 vvcurveto
            44 -43 28 -66 vhcurveto
            return
          </CharString>
          <CharString index="26">
            -124 -130 rlineto
            67 hlineto
            115 49 115 -49 rlineto
            67 hlineto
            return
          </CharString>
          <CharString index="27">
            rmoveto
            30 10 11 10 23 hhcurveto
            22 35 -9 -14 30 hvcurveto
            return
          </CharString>
          <CharString index="28">
            -72 15 98 -75 hhcurveto
            -28 -26 -19 -33 -56 62 -43 102 151 84 92 166 hvcurveto
            return
          </CharString>
          <CharString index="29">
            44 -26 -14 13 -30 hhcurveto
            -36 -28 -22 -38 -64 70 -46 120 168 87 91 167 hvcurveto
            611 vlineto
            101 12 17 83 3 vhcurveto
            40 -337 -40 vlineto
            82 44 callsubr
            return
          </CharString>
          <CharString index="30">
            60 53 34 55 42 -30 28 -37 18 hvcurveto
            -48 24 rmoveto
            -25 13 -12 14 16 vvcurveto
            23 17 16 28 32 13 -19 -24 -18 -17 -21 -16 -10 vhcurveto
            return
          </CharString>
          <CharString index="31">
            -142 -37 -90 -73 -132 hhcurveto
            -164 -87 116 206 209 90 128 157 114 86 -76 -122 28 hvcurveto
            40 hlineto
            return
          </CharString>
          <CharString index="32">
            hmoveto
            248 173 153 219 230 -186 168 -256 hvcurveto
            -380 return
          </CharString>
          <CharString index="33">
            532 170 -94 callsubr
            return
          </CharString>
          <CharString index="34">
            rmoveto
            116 28 rlineto
            69 17 19 18 30 vvcurveto
            return
          </CharString>
          <CharString index="35">
            vlineto
            101 14 17 90 3 vhcurveto
            40 -345 -40 vlineto
            return
          </CharString>
          <CharString index="36">
            28 -12 -10 9 -19 hhcurveto
            -22 -14 -15 -26 -50 55 -36 76 83 59 43 62 57 -52 36 -83 hvcurveto
            return
          </CharString>
          <CharString index="37">
            vlineto
            -94 -15 -17 -90 -39 callgsubr
            366 40 vlineto
            -98 3 -16 16 102 vvcurveto
            202 371 -209 vlineto
            -94 -17 -17 -98 -39 callgsubr
            367 40 vlineto
            -90 3 -15 16 102 vvcurveto
            return
          </CharString>
          <CharString index="38">
            5 callsubr
            vstemhm
            257 540 -21 callgsubr
            61 18 -28 callgsubr
            4 -18 3 -52 -77 vvcurveto
            -123 vlineto
            return
          </CharString>
          <CharString index="39">
            22 -20 15 -37 -34 -34 -13 -20 -26 vhcurveto
            return
          </CharString>
          <CharString index="40">
            -52 -42 16 25 -12 hvcurveto
            -43 hlineto
            -75 3 63 -55 84 hhcurveto
            82 63 54 76 5 hvcurveto
            endchar
          </CharString>
          <CharString index="41">
            -100 -11 -11 -78 -5 vhcurveto
            -40 315 40 vlineto
            -80 5 -7 10 108 vvcurveto
            return
          </CharString>
          <CharString index="42">
            48 17 17 19 38 hhcurveto
            57 27 -34 -77 hvcurveto
            -42 vlineto
            return
          </CharString>
          <CharString index="43">
            40 -40 55 320 51 122 -20 189 53 return
          </CharString>
          <CharString index="44">
            -38 callgsubr
            296 hmoveto
            -102 callgsubr
            endchar
          </CharString>
          <CharString index="45">
            5 hlineto
            -68 33 -39 61 49 43 21 33 18 vhcurveto
            -15 29 rlineto
            return
          </CharString>
          <CharString index="46">
            228 108 rmoveto
            -30 3 -15 9 16 vvcurveto
            21 22 9 63 7 vhcurveto
            151 17 61 74 100 vvcurveto
            34 -5 25 -13 23 vhcurveto
            17 12 15 10 13 hhcurveto
            return
          </CharString>
          <CharString index="47">
            96 28 rlineto
            68 20 20 15 -1 callsubr
            -36 -11 -22 -24 vhcurveto
            -106 -97 rlineto
            return
          </CharString>
          <CharString index="48">
            rmoveto
            35 hlineto
            hintmask 10101100
            43 30 20 33 7 hvcurveto
            -4 hlineto
            hintmask 10110100
            -4 -14 -26 -3 -30 hhcurveto
            hintmask 10101010
            -25 -18 3 4 -10 hvcurveto
            -45 -165 rlineto
            -1 -2 0 -2 -2 vvcurveto
            -7 5 -3 8 8 4 4 12 5 vhcurveto
            19 9 17 11 21 hhcurveto
            20 12 -20 -32 -63 -22 -33 -42 hvcurveto
            hintmask 01110100
            -54 29 55 -40 hhcurveto
            -15 -8 -8 -16 -37 38 -27 52 75 60 51 64 54 -43 44 -52 -19 -16 -6 -11 -9 hvcurveto
            -1 4 rlineto
            endchar
          </CharString>
          <CharString index="49">
            23 18 18 23 30 18 -20 -33 -55 -28 -47 -120 -106 vhcurveto
            -18 211 vlineto
            15 85 rlineto
            -26 hlineto
            -33 -10 -11 -8 -24 hhcurveto
            -79 hlineto
            endchar
          </CharString>
          <CharString index="50">
            vvcurveto
            -59 36 -29 74 64 59 31 56 43 vhcurveto
            return
          </CharString>
          <CharString index="51">
            rmoveto
            119 -10 hlineto
            -34 -6 -6 -38 -2 vhcurveto
            -20 144 20 vlineto
            -28 1 -5 7 37 vvcurveto
            8 vlineto
            34 -1 5 -4 -25 vvcurveto
            return
          </CharString>
          <CharString index="52">
            51 -87 -69 21 -83 hhcurveto
            -239 -164 -166 -243 -234 151 -147 240 hvcurveto
            return
          </CharString>
          <CharString index="53">
            114 21 66 63 38 31 -14 -58 44 vhcurveto
            -146 vlineto
            endchar
          </CharString>
          <CharString index="54">
            rmoveto
            -51 44 -41 56 28 25 11 25 17 vhcurveto
            4 -3 rlineto
            -69 -30 -45 -35 vhcurveto
            hintmask 01110100
            -39 3 39 -34 hhcurveto
            -15 -10 -10 -15 -26 39 -21 46 79 63 78 96 85 -49 57 -72 hvcurveto
            hintmask 10111010
            -67 -53 -48 -62 hvcurveto
            168 -12 rmoveto
            -33 -18 -16 -13 -21 hhcurveto
            -28 -13 22 45 51 17 27 31 32 16 -27 -52 hvcurveto
            endchar
          </CharString>
          <CharString index="55">
            -31 -4 -4 -35 -1 vhcurveto
            211 -31 vlineto
            -155 -210 rlineto
            119 hmoveto
            -84 hlineto
            80 111 rlineto
            4 hlineto
            return
          </CharString>
          <CharString index="56">
            857 386 rmoveto
            219 -182 175 -227 -224 -179 -178 -217 -217 180 -178 224 226 182 176 220 vhcurveto
            -60 hmoveto
            -186 -157 -152 -191 -192 -152 152 185 185 151 152 192 192 157 -149 -187 vhcurveto
            return
          </CharString>
          <CharString index="57">
            -99 -9 -16 -62 -39 callgsubr
            294 40 vlineto
            -68 2 -16 24 100 vvcurveto
            291 return
          </CharString>
          <CharString index="58">
            113 13 27 82 4 vhcurveto
            40 return
          </CharString>
          <CharString index="59">
            817 128 rmoveto
            -53 -64 -46 -20 -57 hhcurveto
            -105 -57 72 133 19 1 14 3 7 hvcurveto
            329 hlineto
            31 1 1 16 142 -81 81 -142 -73 -66 -21 -37 -43 hvcurveto
            39 -32 -61 19 -93 hhcurveto
            -132 -71 -37 -70 -39 23 -23 38 33 20 16 40 16 hvcurveto
            return
          </CharString>
          <CharString index="60">
            258 203 rmoveto
            49 7 53 11 40 vhcurveto
            56 14 25 36 25 hhcurveto
            return
          </CharString>
          <CharString index="61">
            hintmask 11101000
            -85 callgsubr
            return
          </CharString>
          <CharString index="62">
            -147 147 return
          </CharString>
          <CharString index="63">
            149 0 -29 callsubr
            return
          </CharString>
          <CharString index="64">
            rmoveto
            65 -284 -65 vlineto
            endchar
          </CharString>
          <CharString index="65">
            599 830 rmoveto
            -83 -26 rlineto
            15 -28 -60 11 -54 hhcurveto
            -158 -95 -91 -153 hvcurveto
            -72 -103 -57 103 -299 vlineto
            -100 -9 -14 -65 -26 callgsubr
            297 40 vlineto
            -67 2 -17 25 99 vvcurveto
            291 115 57 -115 78 vlineto
            return
          </CharString>
          <CharString index="66">
            287 293 rmoveto
            50 52 177 -218 rlineto
            31 -38 5 -9 -13 vvcurveto
            -18 -23 -8 -54 -1 vhcurveto
            -40 370 40 vlineto
            -53 3 -31 14 -28 35 -294 358 rcurveline
            178 186 80 83 20 10 59 2 rlinecurve
            39 return
          </CharString>
          <CharString index="67">
            -124 130 rlineto
            endchar
          </CharString>
          <CharString index="68">
            hstem
            -74 callsubr
            return
          </CharString>
          <CharString index="69">
            17 callsubr
            315 40 vlineto
            -80 5 -7 10 109 vvcurveto
            return
          </CharString>
          <CharString index="70">
            11 -89 199 12 rlineto
            return
          </CharString>
          <CharString index="71">
            61 -40 40 hstemhm
            141 35 callgsubr
            hintmask 10110110
            453 -13 callgsubr
            return
          </CharString>
          <CharString index="72">
            rmoveto
            -37 29 -28 39 39 29 28 37 37 -29 28 -39 -39 -29 -28 -37 vhcurveto
            42 hmoveto
            13 11 10 15 return
          </CharString>
          <CharString index="73">
            rmoveto
            -70 -59 -70 -90 -87 59 -69 70 return
          </CharString>
          <CharString index="74">
            -8 callsubr
            147 return
          </CharString>
          <CharString index="75">
            44 callsubr
            -462 vlineto
            return
          </CharString>
          <CharString index="76">
            hmoveto
            311 40 hlineto
            -44 -26 9 47 -33 -18 callsubr
            34 15 50 hhcurveto
            40 -273 -40 vlineto
            72 15 -5 -11 -12 -17 -22 -79 -75 hvcurveto
            -96 -91 rlineto
            return
          </CharString>
          <CharString index="77">
            rmoveto
            -113 -32 -66 -57 -31 -18 11 44 -26 vhcurveto
            return
          </CharString>
          <CharString index="78">
            41 192 60 487 -20 return
          </CharString>
          <CharString index="79">
            0 -14 callsubr
            return
          </CharString>
          <CharString index="80">
            rmoveto
            -49 38 -37 52 53 39 37 49 51 -39 37 -53 -52 -38 -37 -51 vhcurveto
            49 hmoveto
            21 18 16 23 22 17 -16 -21 -22 -17 -17 -22 -23 -18 17 22 vhcurveto
            endchar
          </CharString>
          <CharString index="81">
            -104 3 -16 16 106 vvcurveto
            139 4 vlineto
            -45 35 47 -21 66 hhcurveto
            153 110 116 159 160 -110 115 -155 -71 -57 -25 -50 -44 hvcurveto
            return
          </CharString>
          <CharString index="82">
            220 -52 52 hstemhm
            17 34 287 147 return
          </CharString>
          <CharString index="83">
            45 callgsubr
            228 139 return
          </CharString>
          <CharString index="84">
            517 -7 callgsubr
            return
          </CharString>
          <CharString index="85">
            107 53 -36 -132 8 hvcurveto
            43 hlineto
            return
          </CharString>
          <CharString index="86">
            -126 -97 rlineto
            endchar
          </CharString>
          <CharString index="87">
            -95 -15 -20 -74 -2 20 callgsubr
            -57 -12 18 callgsubr
            76 -114 rlineto
            28 -41 20 -35 -8 vvcurveto
            -10 -15 -3 -43 vhcurveto
            return
          </CharString>
          <CharString index="88">
            52 22 13 12 38 hhcurveto
            56 26 -35 -76 hvcurveto
            -42 vlineto
            -146 -62 rlineto
            -120 -51 -44 -44 -68 vvcurveto
            -76 53 -46 88 87 72 46 80 37 vhcurveto
            return
          </CharString>
          <CharString index="89">
            hvcurveto
            -173 245 97 91 rlineto
            43 46 return
          </CharString>
          <CharString index="90">
            -232 -38 rlineto
            -34 vlineto
            return
          </CharString>
          <CharString index="91">
            54 -23 -21 487 54 -10 -20 return
          </CharString>
          <CharString index="92">
            -14 -260 115 635 40 return
          </CharString>
          <CharString index="93">
            40 690 40 return
          </CharString>
          <CharString index="94">
            588 540 rmoveto
            -205 -26 rlineto
            -127 78 hlineto
            59 6 40 14 30 vhcurveto
            34 15 25 17 37 hhcurveto
            34 26 -13 -38 39 hvcurveto
            return
          </CharString>
          <CharString index="95">
            117 vstem
            127 554 rmoveto
            12 72 26 113 31 vvcurveto
            35 -25 25 -34 -33 -25 -25 -34 -31 26 -114 12 -72 vhcurveto
            return
          </CharString>
          <CharString index="96">
            rmoveto
            -196 185 -32 -23 92 -162 -90 -161 34 -24 rlineto
            return
          </CharString>
          <CharString index="97">
            280 0 34 callsubr
            return
          </CharString>
          <CharString index="98">
            96 -88 -20 60 94 hstemhm
            return
          </CharString>
          <CharString index="99">
            hstemhm
            46 53 callsubr
            return
          </CharString>
          <CharString index="100">
            -91 -94 -29 -44 -49 hvcurveto
            return
          </CharString>
          <CharString index="101">
            -17 -93 vvcurveto
            return
          </CharString>
          <CharString index="102">
            52 16 -9 -14 -13 -8 -13 -15 -16 hvcurveto
            -259 -278 rlineto
            222 -72 callsubr
            return
          </CharString>
          <CharString index="103">
            17 475 rmoveto
            108 -317 hlineto
            -101 -10 -13 -80 -26 callgsubr
            338 40 vlineto
            -88 2 -21 24 100 vvcurveto
            309 return
          </CharString>
          <CharString index="104">
            -43 36 12 -13 24 hhcurveto
            34 26 23 30 49 -66 36 -90 -151 -102 -99 -145 hvcurveto
            -56 -108 vlineto
            endchar
          </CharString>
          <CharString index="105">
            45 -45 62 94 45 -45 58 return
          </CharString>
          <CharString index="106">
            30 vvcurveto
            22 -20 15 -37 -34 return
          </CharString>
          <CharString index="107">
            116 -28 rlineto
            endchar
          </CharString>
          <CharString index="108">
            -10 35 -4 -21 271 35 158 35 246 35 -10 -20 hstemhm
            86 75 108 75 26 75 108 75 return
          </CharString>
          <CharString index="109">
            25 277 -20 30 -20 hstemhm
            182 60 return
          </CharString>
          <CharString index="110">
            34 -34 122 23 35 32 104 -32 32 return
          </CharString>
          <CharString index="111">
            -10 -13 -79 -26 callgsubr
            return
          </CharString>
          <CharString index="112">
            hstemhm
            118 139 return
          </CharString>
          <CharString index="113">
            940 540 rmoveto
            -183 -26 rlineto
            -156 78 hlineto
            24 callgsubr
            32 34 -11 -33 33 vhcurveto
            return
          </CharString>
          <CharString index="114">
            -25 -14 -18 -11 -27 hhcurveto
            -42 15 callgsubr
            121 -51 vlineto
            return
          </CharString>
          <CharString index="115">
            -57 callsubr
            endchar
          </CharString>
          <CharString index="116">
            -30 30 19 -10 26 hhcurveto
            27 23 17 36 54 -75 35 -115 -7 callsubr
            return
          </CharString>
          <CharString index="117">
            23 155 34 32 72 -33 33 hstemhm
            29 73 -73 217 -48 72 hintmask 11011010
            270 return
          </CharString>
          <CharString index="118">
            rmoveto
            -43 33 -32 43 43 33 33 42 42 -34 34 -42 -43 -33 -34 -42 vhcurveto
            endchar
          </CharString>
          <CharString index="119">
            33 -33 88 93 32 50 46 7 -20 hstemhm
            12 225 -73 73 hintmask 10110100
            113 return
          </CharString>
          <CharString index="120">
            38 419 57 174 142 -58 58 hstemhm
            117 139 193 139 return
          </CharString>
          <CharString index="121">
            64 421 55 121 -20 45 callgsubr
            return
          </CharString>
          <CharString index="122">
            231 11 -21 500 40 return
          </CharString>
          <CharString index="123">
            253 -36 vlineto
            -19 -62 rlineto
            return
          </CharString>
          <CharString index="124">
            -101 -8 -11 -81 -5 vhcurveto
            -40 return
          </CharString>
          <CharString index="125">
            rmoveto
            -83 callsubr
            return
          </CharString>
          <CharString index="126">
            -17 32 82 hvcurveto
            307 115 return
          </CharString>
          <CharString index="127">
            -223 -38 rlineto
            -37 vlineto
            return
          </CharString>
          <CharString index="128">
            476 0 41 -41 53 221 60 42 50 122 -20 189 53 return
          </CharString>
          <CharString index="129">
            -40 -43 callgsubr
            return
          </CharString>
          <CharString index="130">
            -10 52 callsubr
            return
          </CharString>
          <CharString index="131">
            443 -631 rlineto
            return
          </CharString>
          <CharString index="132">
            109 -262 rlineto
            13 hlineto
            116 262 rlineto
            4 -175 hlineto
            return
          </CharString>
          <CharString index="133">
            -10 34 -34 122 -91 -21 135 35 32 104 -32 32 162 return
          </CharString>
          <CharString index="134">
            -35 44 42 27 27 44 47 -38 152 -25 81 vhcurveto
            endchar
          </CharString>
          <CharString index="135">
            163 -10 49 callgsubr
            return
          </CharString>
          <CharString index="136">
            121 -1 callgsubr
            return
          </CharString>
          <CharString index="137">
            44 125 143 -33 33 return
          </CharString>
          <CharString index="138">
            -10 33 -2 -21 273 33 return
          </CharString>
          <CharString index="139">
            50 -50 65 475 -20 hstemhm
            return
          </CharString>
          <CharString index="140">
            -260 58 -58 170 return
          </CharString>
          <CharString index="141">
            40 -29 -21 740 40 return
          </CharString>
          <CharString index="142">
            0 40 435 65 return
          </CharString>
          <CharString index="143">
            -36 44 hhcurveto
            43 32 31 41 41 -32 31 -43 -44 -27 -36 return
          </CharString>
          <CharString index="144">
            406 41 rmoveto
            -41 679 vlineto
            15 227 rlineto
            -44 hlineto
            return
          </CharString>
          <CharString index="145">
            40 510 -25 callsubr
            return
          </CharString>
          <CharString index="146">
            830 -73 callsubr
            return
          </CharString>
          <CharString index="147">
            57 427 66 0 216 74 -20 hstemhm
            39 152 return
          </CharString>
          <CharString index="148">
            61 -40 40 hstemhm
            140 147 return
          </CharString>
          <CharString index="149">
            122 95 122 return
          </CharString>
          <CharString index="150">
            0 40 417 57 return
          </CharString>
          <CharString index="151">
            -4 13 -6 callsubr
            return
          </CharString>
          <CharString index="152">
            65 660 65 return
          </CharString>
          <CharString index="153">
            55 162 138 -56 56 hstemhm
            125 139 return
          </CharString>
          <CharString index="154">
            49 callgsubr
            -10 -20 hstemhm
            47 174 return
          </CharString>
          <CharString index="155">
            -92 0 54 423 53 return
          </CharString>
          <CharString index="156">
            226 -137 137 return
          </CharString>
          <CharString index="157">
            228 -139 139 return
          </CharString>
          <CharString index="158">
            21 -21 770 -20 hstem
            return
          </CharString>
          <CharString index="159">
            72 668 40 return
          </CharString>
          <CharString index="160">
            242 -147 return
          </CharString>
          <CharString index="161">
            602 -10 57 -26 -21 474 66 -10 -20 return
          </CharString>
          <CharString index="162">
            265 457 rmoveto
            197 -299 hlineto
            -99 return
          </CharString>
          <CharString index="163">
            rmoveto
            -492 -64 492 hlineto
            return
          </CharString>
          <CharString index="164">
            hvcurveto
            -96 -91 rlineto
            556 vlineto
            return
          </CharString>
          <CharString index="165">
            40 60 -20 150 -20 hstemhm
            return
          </CharString>
          <CharString index="166">
            hstemhm
            58 115 return
          </CharString>
          <CharString index="167">
            vlineto
            10 6 7 return
          </CharString>
          <CharString index="168">
            -138 -43 -76 -79 -79 -58 73 99 vhcurveto
            return
          </CharString>
          <CharString index="169">
            -162 0 58 callgsubr
            return
          </CharString>
          <CharString index="170">
            -26 -24 -33 vhcurveto
            return
          </CharString>
          <CharString index="171">
            -147 242 return
          </CharString>
        <CharString name=".notdef">
          96 -260 61 1110 59 hstem
          130 110 275 111 vstem
          130 -260 rmoveto
          496 1230 -496 hlineto
          110 -59 rmoveto
          275 -1110 -275 hlineto
          endchar
        </CharString>
        <CharString name="A">
          -44 callsubr
          hstem
          -106 callgsubr
          endchar
        </CharString>
        <CharString name="AE">
          21 callsubr
          hstemhm
          173 233 105 147 hintmask 10111111
          37 callsubr
          hintmask 01111111
          -54 callgsubr
          hintmask 10111111
          -36 callgsubr
          endchar
        </CharString>
        <CharString name="AEacute">
          21 callsubr
          -53 243 -6 callgsubr
          173 233 hintmask 1011110110000000
          37 callsubr
          hintmask 0111110110000000
          -54 callgsubr
          hintmask 1011110110000000
          -36 callgsubr
          101 496 -73 callsubr
          hintmask 1011101010000000
          -68 callsubr
          hintmask 1011110110000000
          -21 callsubr
        </CharString>
        <CharString name="Aacute">
          -44 callsubr
          70 -20 150 -20 hstem
          -106 callgsubr
          196 537 -73 callsubr
          -68 callsubr
          -21 callsubr
        </CharString>
        <CharString name="Abreve">
          -44 callsubr
          70 44 callgsubr
          hintmask 11101000
          -106 callgsubr
          263 667 rmoveto
          hintmask 11110000
          4 callgsubr
          hintmask 11101000
          -67 callsubr
        </CharString>
        <CharString name="Acircumflex">
          -44 callsubr
          70 -20 150 -20 hstem
          -106 callgsubr
          99 667 rmoveto
          -81 callsubr
          -40 callsubr
        </CharString>
        <CharString name="Adieresis">
          -44 callsubr
          84 116 hstemhm
          235 42 callsubr
          vstemhm
          -106 callgsubr
          -6 610 rmoveto
          -35 26 -24 34 36 26 24 35 33 -26 24 -36 -34 63 callsubr
          hintmask 11111100
          217 hmoveto
          -35 26 -24 36 33 27 24 35 33 -27 24 -33 -36 63 callsubr
          endchar
        </CharString>
        <CharString name="Agrave">
          -44 callsubr
          70 -20 150 -20 hstem
          -106 callgsubr
          201 537 6 callgsubr
          -65 callgsubr
          0 callsubr
        </CharString>
        <CharString name="Amacron">
          -44 callsubr
          105 65 hstem
          -106 callgsubr
          299 572 -43 callsubr
        </CharString>
        <CharString name="Aogonek">
          149 -239 70 169 -29 callsubr
          hstem
          457 103 vstem
          698 -64 callgsubr
          41 51 51 73 32 hvcurveto
          154 41 hlineto
          -90 9 -15 11 -55 135 -239 584 rcurveline
          -74 hlineto
          -263 -659 -23 -57 -28 -17 -64 -7 rlinecurve
          -40 274 40 vlineto
          -60 -30 6 40 28 15 47 32 72 hvcurveto
          283 hlineto
          23 -60 rlineto
          16 -42 10 -29 -19 vvcurveto
          -32 -26 -7 -64 -3 vhcurveto
          -41 149 vlineto
          -97 -38 -55 -53 -60 -57 callsubr
          -373 748 rmoveto
          4 hlineto
          115 -303 rlineto
          -238 hlineto
          endchar
        </CharString>
        <CharString name="Aring">
          -44 callsubr
          70 41 47 42 hstem
          -106 callgsubr
          96 602 -35 callsubr
          10 callgsubr
          vhcurveto
          endchar
        </CharString>
        <CharString name="Aringacute">
          129 0 39 240 50 470 38 83 50 hstem
          365 89 vstem
          548 171 rmoveto
          22 -49 4 -16 -20 vvcurveto
          -36 -30 -11 -70 vhcurveto
          -39 343 39 vlineto
          -58 -37 25 76 -35 hvcurveto
          -268 580 rlineto
          -45 hlineto
          -273 -601 -26 -56 -25 -18 -64 -7 rlinecurve
          -38 255 38 vlineto
          -56 -26 12 37 27 23 71 44 94 hvcurveto
          274 hlineto
          -132 295 rmoveto
          109 -245 rlineto
          -227 hlineto
          76 549 rmoveto
          -8 0 -7 2 -6 vhcurveto
          -62 -56 rlineto
          56 hlineto
          34 15 rlineto
          -11 14 19 -6 20 hhcurveto
          49 35 35 44 5 -1 6 -1 5 hvcurveto
          28 15 17 17 18 vvcurveto
          16 -12 10 -18 -17 -15 -6 -17 -17 vhcurveto
          8 -14 -16 5 -18 hhcurveto
          -47 -36 -34 -48 hvcurveto
          39 hmoveto
          25 18 17 26 27 18 -17 -25 -24 -18 -17 -27 -26 -18 17 24 vhcurveto
          endchar
        </CharString>
        <CharString name="Atilde">
          -44 callsubr
          60 -9 callsubr
          hintmask 11101100
          -106 callgsubr
          30 535 -80 callsubr
          hintmask 11110000
          -103 callgsubr
          hintmask 11101100
          -80 callgsubr
        </CharString>
        <CharString name="B">
          137 0 40 -40 61 314 60 274 61 -40 40 hstemhm
          139 147 241 162 -103 172 hintmask 10110101
          418 hmoveto
          103 83 17 33 59 hvcurveto
          61 34 34 51 68 vvcurveto
          120 -93 88 -147 vhcurveto
          4 vlineto
          hintmask 10110110
          115 33 56 55 80 vvcurveto
          119 -114 68 -200 vhcurveto
          -321 hlineto
          hintmask 10101110
          -40 vlineto
          72 -32 callsubr
          -94 -16 -17 -90 60 callgsubr
          hintmask 01110101
          392 61 rmoveto
          -100 -39 32 82 hvcurveto
          200 48 vlineto
          91 63 -11 -28 40 hvcurveto
          40 -28 18 -43 -59 vvcurveto
          -98 -53 -47 -108 vhcurveto
          -139 374 rmoveto
          257 vlineto
          10 7 7 11 vhcurveto
          71 hlineto
          hintmask 10110110
          106 46 -41 -97 -45 -15 -35 -33 -23 hvcurveto
          -21 -30 -44 -12 -60 hhcurveto
          endchar
        </CharString>
        <CharString name="C">
          163 -10 47 callsubr
          hintmask 10101000
          688 708 rmoveto
          51 -82 -66 21 -81 hhcurveto
          -244 -168 -166 -242 -233 157 -149 243 104 89 29 60 74 hvcurveto
          hintmask 01101000
          -15 callgsubr
          hintmask 10101000
          -76 callsubr
          hintmask 10011000
          20 253 rlineto
          -49 hlineto
          endchar
        </CharString>
        <CharString name="CR">
          -310 endchar
        </CharString>
        <CharString name="Cacute">
          -89 callsubr
          -315 60 -73 callsubr
          hintmask 10010010
          -68 callsubr
          hintmask 10100110
          -21 callsubr
        </CharString>
        <CharString name="Ccaron">
          -89 callsubr
          -191 60 rmoveto
          hintmask 10010010
          -73 callgsubr
          hintmask 10100110
          -31 callgsubr
        </CharString>
        <CharString name="Ccedilla">
          163 -24 callgsubr
          52 47 callsubr
          250 106 hintmask 1011010110000000
          688 708 rmoveto
          51 -82 -66 21 -81 hhcurveto
          -244 -168 -166 -242 -218 137 -144 216 -18 hvcurveto
          -46 -104 -62 callgsubr
          hintmask 0111010110000000
          -71 callsubr
          22 52 97 3 83 29 70 57 rlinecurve
          hintmask 1010110110000000
          -15 callgsubr
          hintmask 1011010110000000
          -76 callsubr
          hintmask 1011001110000000
          20 253 rlineto
          -49 hlineto
          endchar
        </CharString>
        <CharString name="Ccircumflex">
          -89 callsubr
          hintmask 10010010
          -309 190 rmoveto
          hintmask 10100110
          -81 callsubr
          hintmask 10010010
          -40 callsubr
        </CharString>
        <CharString name="Cdotaccent">
          28 callsubr
          -10 -20 80 129 hstemhm
          47 174 171 136 hintmask 10101110
          688 708 rmoveto
          51 -82 -66 21 -81 hhcurveto
          -244 -168 -166 -242 -233 157 -149 243 104 89 29 60 74 hvcurveto
          hintmask 01101110
          -15 callgsubr
          hintmask 10101110
          -76 callsubr
          hintmask 10011110
          20 253 rlineto
          -49 hlineto
          -315 123 -61 callgsubr
        </CharString>
        <CharString name="D">
          259 0 40 callgsubr
          419 167 hintmask 10101100
          452 -75 callsubr
          hlineto
          hintmask 10011100
          -40 vlineto
          76 -32 callsubr
          -95 -17 -16 -88 60 callgsubr
          hintmask 01101100
          -76 callgsubr
          -23 callsubr
          endchar
        </CharString>
        <CharString name="Dcaron">
          259 -60 callgsubr
          207 121 rmoveto
          -73 callgsubr
          -31 callgsubr
        </CharString>
        <CharString name="Dcroat">
          260 0 40 -40 61 309 60 279 -36 callsubr
          -186 -87 -60 87 -216 -20 callgsubr
          195 133 60 -133 262 -7 callgsubr
          endchar
        </CharString>
        <CharString name="Ddotbelow">
          259 -27 callgsubr
          87 40 callgsubr
          84 155 180 167 hintmask 11010111
          452 -75 callsubr
          hlineto
          hintmask 11001111
          -40 vlineto
          76 -32 callsubr
          -95 -17 -16 -88 60 callgsubr
          hintmask 10110111
          -76 callgsubr
          -23 callsubr
          67 -874 -104 callgsubr
        </CharString>
        <CharString name="E">
          104 0 37 callgsubr
          hstemhm
          46 241 -147 147 hintmask 10111010
          -96 callgsubr
          hintmask 10110110
          -40 vlineto
          hintmask 10111001
          -95 callsubr
          678 vlineto
          16 229 rlineto
          -40 hlineto
          hintmask 01111010
          -100 callgsubr
          endchar
        </CharString>
        <CharString name="Eacute">
          -97 callsubr
          hintmask 0111100110000000
          -100 callgsubr
          104 404 -73 callsubr
          hintmask 1011010010000000
          -68 callsubr
          hintmask 1011100110000000
          -21 callsubr
        </CharString>
        <CharString name="Ebreve">
          104 0 37 callgsubr
          60 89 -89 130 -78 callgsubr
          hintmask 1011101010000000
          -96 callgsubr
          hintmask 1011011010000000
          -40 vlineto
          hintmask 1011101001000000
          -95 callsubr
          678 vlineto
          16 229 rlineto
          -40 hlineto
          hintmask 0111100110000000
          -100 callgsubr
          222 534 rmoveto
          hintmask 1011101010000000
          4 callgsubr
          hintmask 1011100110000000
          -67 callsubr
        </CharString>
        <CharString name="Ecaron">
          -97 callsubr
          hintmask 0111100110000000
          -100 callgsubr
          173 404 rmoveto
          hintmask 1011010010000000
          -73 callgsubr
          hintmask 1011100110000000
          -31 callgsubr
        </CharString>
        <CharString name="Ecircumflex">
          -97 callsubr
          hintmask 0111010010000000
          -100 callgsubr
          57 534 rmoveto
          hintmask 1011100110000000
          -81 callsubr
          hintmask 1011010010000000
          -40 callsubr
        </CharString>
        <CharString name="Edieresis">
          104 0 37 callgsubr
          74 116 -78 callgsubr
          -68 42 callsubr
          hintmask 1011101100100000
          -96 callgsubr
          hintmask 1011011100100000
          -40 vlineto
          hintmask 1011101010100000
          -95 callsubr
          678 vlineto
          16 229 rlineto
          -40 hlineto
          hintmask 0111101100100000
          -100 callgsubr
          hintmask 1011101001100000
          -68 477 rmoveto
          -84 callsubr
        </CharString>
        <CharString name="Edotaccent">
          104 0 37 callgsubr
          60 129 -78 callgsubr
          27 136 hintmask 1011101101000000
          -96 callgsubr
          hintmask 1011011101000000
          -40 vlineto
          hintmask 1011101011000000
          -95 callsubr
          678 vlineto
          16 229 rlineto
          -40 hlineto
          hintmask 0111101101000000
          -100 callgsubr
          27 467 -61 callgsubr
        </CharString>
        <CharString name="Edotbelow">
          104 -27 callgsubr
          87 37 callgsubr
          hstemhm
          46 241 -147 147 38 155 hintmask 1101110101000000
          -96 callgsubr
          hintmask 1101101101000000
          -40 vlineto
          hintmask 1101110011000000
          -95 callsubr
          678 vlineto
          16 229 rlineto
          -40 hlineto
          hintmask 1011110101000000
          -100 callgsubr
          38 -591 -104 callgsubr
        </CharString>
        <CharString name="Egrave">
          -97 callsubr
          hintmask 0111100110000000
          -100 callgsubr
          208 404 6 callgsubr
          hintmask 1011010010000000
          -65 callgsubr
          hintmask 1011100110000000
          0 callsubr
        </CharString>
        <CharString name="Emacron">
          104 0 37 callgsubr
          95 65 -78 callgsubr
          hintmask 1011101100000000
          -96 callgsubr
          hintmask 1011011100000000
          -40 vlineto
          hintmask 1011101010000000
          -95 callsubr
          678 vlineto
          16 229 rlineto
          -40 hlineto
          hintmask 0111101100000000
          -100 callgsubr
          258 439 -43 callsubr
        </CharString>
        <CharString name="Eng">
          280 -260 58 -58 160 100 40 690 23 callgsubr
          hintmask 10111010
          804 588 rmoveto
          122 17 17 98 3 vhcurveto
          40 -297 -40 vlineto
          89 -3 15 -16 -132 vvcurveto
          -387 -4 vlineto
          -403 578 rlineto
          -279 -40 hlineto
          hintmask 10110110
          90 -4 15 -27 -113 vvcurveto
          -402 vlineto
          -124 -17 -17 -98 -39 callgsubr
          297 40 vlineto
          -89 3 -15 16 132 vvcurveto
          440 4 vlineto
          498 -695 rlineto
          -88 -7 -46 -50 -76 hhcurveto
          -30 -16 11 44 -26 hvcurveto
          hintmask 01111010
          36 -21 -11 11 -25 hhcurveto
          -32 -19 -18 -35 -64 65 -43 97 143 83 88 162 hvcurveto
          endchar
        </CharString>
        <CharString name="Eogonek">
          104 -239 70 169 37 callgsubr
          hstemhm
          46 241 -147 147 -52 52 -52 103 hintmask 1101110000100000
          476 -64 callgsubr
          41 51 51 73 32 hvcurveto
          251 hlineto
          16 229 rlineto
          -40 hlineto
          hintmask 1011110100000000
          -100 callgsubr
          254 vlineto
          32 4 5 34 vhcurveto
          113 hlineto
          142 45 -31 -112 17 hvcurveto
          43 hlineto
          -7 196 rlineto
          -632 hlineto
          hintmask 1101101100000000
          -40 vlineto
          hintmask 1101110010000000
          -95 callsubr
          352 vlineto
          hintmask 1101110001000000
          -97 -38 -55 -53 -60 8 callsubr
        </CharString>
        <CharString name="Eth">
          260 0 40 -40 61 315 60 273 -36 callsubr
          -180 -87 -60 87 -222 -20 callgsubr
          201 133 60 -133 256 -7 callgsubr
          endchar
        </CharString>
        <CharString name="Etilde">
          104 0 37 callgsubr
          50 96 -88 -20 60 94 -78 callgsubr
          hintmask 1011101001000000
          -96 callgsubr
          hintmask 1011011001000000
          -40 vlineto
          hintmask 1011101000100000
          -95 callsubr
          678 vlineto
          16 229 rlineto
          -40 hlineto
          hintmask 0111100111000000
          -100 callgsubr
          -28 402 -80 callsubr
          hintmask 1011101001000000
          -103 callgsubr
          hintmask 1011100111000000
          -80 callgsubr
        </CharString>
        <CharString name="Euro">
          102 -10 58 -27 -21 298 60 72 60 44 -20 208 58 -10 -20 hstemhm
          hintmask 10111100
          520 358 rmoveto
          -225 hlineto
          9 0 10 -1 10 vhcurveto
          14 1 15 2 14 vhcurveto
          223 60 -220 hlineto
          155 18 59 77 91 hhcurveto
          78 54 -67 -121 23 hvcurveto
          55 hlineto
          hintmask 10111010
          236 -39 vlineto
          -18 -51 rlineto
          hintmask 10111100
          50 -59 -34 11 -64 hhcurveto
          -169 -126 -103 -187 -38 hvcurveto
          -94 -60 88 hlineto
          -2 -14 -1 -14 -14 vvcurveto
          -10 0 -10 1 -10 vhcurveto
          -85 -60 90 hlineto
          -190 33 124 -118 167 hhcurveto
          75 61 26 53 48 hvcurveto
          hintmask 01111100
          12 -69 rlineto
          46 270 -55 hlineto
          hintmask 10111100
          -132 -12 -71 -90 -96 hhcurveto
          -95 -67 101 149 hvcurveto
          222 hlineto
          endchar
        </CharString>
        <CharString name="F">
          29 0 40 315 53 130 -20 196 56 -40 40 hstemhm
          46 241 hintmask 11110100
          287 355 rmoveto
          158 -1 34 -17 16 -112 rrcurveto
          37 313 -37 hlineto
          -108 -10 -36 -22 -162 hhcurveto
          289 vlineto
          11 7 6 11 vhcurveto
          138 hlineto
          129 40 -41 -114 16 hvcurveto
          42 hlineto
          -12 211 rlineto
          -612 hlineto
          hintmask 11101100
          -40 vlineto
          hintmask 11110100
          -95 callsubr
          398 40 vlineto
          -127 3 -19 16 102 vvcurveto
          endchar
        </CharString>
        <CharString name="G">
          3 callgsubr
          -10 -20 hstemhm
          47 173 422 132 hintmask 11101100
          -91 callgsubr
          hintmask 11011100
          16 callsubr
          hintmask 11101100
          -55 callsubr
          endchar
        </CharString>
        <CharString name="Gbreve">
          3 callgsubr
          -10 -20 80 44 callgsubr
          47 173 422 132 hintmask 11101011
          -91 callgsubr
          hintmask 11011011
          16 callsubr
          hintmask 11100111
          -55 callsubr
          123 970 rmoveto
          hintmask 11101011
          4 callgsubr
          hintmask 11100111
          -67 callsubr
        </CharString>
        <CharString name="Gcircumflex">
          3 callgsubr
          -65 245 -190 -20 80 -20 hstemhm
          47 173 422 132 hintmask 11100111
          -91 callgsubr
          hintmask 11001111
          16 callsubr
          hintmask 11100111
          -55 callsubr
          hintmask 11010011
          -41 970 rmoveto
          hintmask 11100111
          -81 callsubr
          hintmask 11010011
          -40 callsubr
        </CharString>
        <CharString name="Gcommaaccent">
          216 -229 -21 95 110 35 67 258 40 360 65 -10 -20 hstemhm
          47 173 152 138 132 132 hintmask 1111101110000000
          -91 callgsubr
          hintmask 1111011110000000
          16 callsubr
          hintmask 1111101110000000
          -55 callsubr
          -23 -240 rmoveto
          -100 callsubr
        </CharString>
        <CharString name="Gdotaccent">
          3 callgsubr
          -10 -20 80 129 hstemhm
          47 173 154 136 132 132 hintmask 11101111
          -91 callgsubr
          hintmask 11011111
          16 callsubr
          hintmask 11101111
          -55 callsubr
          -64 903 -61 callgsubr
        </CharString>
        <CharString name="H">
          285 0 40 323 62 305 -43 callgsubr
          371 51 callgsubr
          hintmask 11110100
          805 609 rmoveto
          hintmask 11110010
          -49 callgsubr
          hintmask 11101100
          81 -4 13 -17 -93 vvcurveto
          -462 -70 callsubr
          endchar
        </CharString>
        <CharString name="Hbar">
          289 0 40 323 62 116 60 129 40 hstemhm
          48 241 -45 callsubr
          371 51 callgsubr
          hintmask 11111010
          807 609 rmoveto
          hintmask 11111001
          101 13 17 81 3 vhcurveto
          40 -346 -40 vlineto
          90 -4 15 -6 callsubr
          -15 -371 8 -72 callsubr
          hintmask 11110110
          81 44 callsubr
          -15 -72 -60 72 -387 -70 callsubr
          380 75 60 -75 vlineto
          -518 -176 rmoveto
          116 371 -116 vlineto
          endchar
        </CharString>
        <CharString name="Hcircumflex">
          285 0 40 323 62 305 40 60 -20 150 -20 -78 callgsubr
          371 51 callgsubr
          hintmask 1111110100000000
          805 609 rmoveto
          hintmask 1111110010000000
          -49 callgsubr
          hintmask 1111101100000000
          81 -4 13 -17 -93 vvcurveto
          -462 -70 callsubr
          -392 799 rmoveto
          -81 callsubr
          -40 callsubr
        </CharString>
        <CharString name="Hdotbelow">
          285 -27 callgsubr
          87 40 323 62 305 -43 callgsubr
          133 155 83 51 callgsubr
          hintmask 1111101100000000
          805 609 rmoveto
          hintmask 1111101010000000
          -49 callgsubr
          hintmask 1111011100000000
          81 -4 13 -17 -93 vvcurveto
          -462 -70 callsubr
          -385 -326 -104 callgsubr
        </CharString>
        <CharString name="I">
          -29 callgsubr
          -50 callgsubr
          hintmask 11100000
          -63 callgsubr
          hintmask 11001000
          -49 callsubr
          vlineto
          hintmask 11100000
          -337 -40 hlineto
          hintmask 11010000
          -85 callgsubr
          endchar
        </CharString>
        <CharString name="IJ">
          176 33 callsubr
          90 -14 callsubr
          -50 callgsubr
          176 147 hintmask 10111001
          -63 callgsubr
          hintmask 10110011
          -49 callsubr
          vlineto
          hintmask 10111001
          -337 -40 hlineto
          hintmask 10110101
          -85 callgsubr
          166 -23 -30 callsubr
          hintmask 01111001
          -78 callsubr
          endchar
        </CharString>
        <CharString name="Iacute">
          -231 47 callgsubr
          46 242 -147 147 hintmask 11011000
          -63 callgsubr
          -49 callsubr
          -337 -40 vlineto
          hintmask 11010100
          -85 callgsubr
          -199 39 callsubr
          hintmask 10101000
          -68 callsubr
          hintmask 11011000
          -21 callsubr
        </CharString>
        <CharString name="Ibreve">
          -29 callgsubr
          60 89 -89 130 -50 callgsubr
          hintmask 11101000
          -63 callgsubr
          hintmask 11100010
          -49 callsubr
          vlineto
          hintmask 11101000
          -337 -40 hlineto
          hintmask 11010100
          -85 callgsubr
          -73 960 rmoveto
          hintmask 11101000
          4 callgsubr
          hintmask 11011000
          -67 callsubr
        </CharString>
        <CharString name="Icircumflex">
          -231 0 40 690 40 60 -20 150 -20 -50 callgsubr
          hintmask 11111000
          -63 callgsubr
          hintmask 11110010
          -49 callsubr
          vlineto
          hintmask 11111000
          -337 -40 hlineto
          hintmask 11110100
          -85 callgsubr
          -237 960 rmoveto
          -81 callsubr
          -40 callsubr
        </CharString>
        <CharString name="Idieresis">
          -29 callgsubr
          74 116 hstemhm
          46 121 -26 147 -26 121 hintmask 11101000
          -63 callgsubr
          hintmask 11110100
          -49 callsubr
          -337 -40 vlineto
          -46 callsubr
          -348 903 rmoveto
          -35 26 -24 34 vhcurveto
          hintmask 11110100
          36 26 24 35 33 -26 24 -36 -34 -26 -24 -33 hvcurveto
          217 hmoveto
          -35 26 -24 36 33 27 24 35 33 -27 24 -33 -36 63 callsubr
          endchar
        </CharString>
        <CharString name="Idotaccent">
          -29 callgsubr
          60 129 -72 callgsubr
          -246 893 -61 callgsubr
        </CharString>
        <CharString name="Idotbelow">
          -231 -27 callgsubr
          87 -14 callsubr
          -72 callgsubr
          -257 -165 -104 callgsubr
        </CharString>
        <CharString name="Igrave">
          -231 47 callgsubr
          46 242 64 callsubr
          hintmask 11011000
          -63 callgsubr
          hintmask 11010100
          -49 callsubr
          vlineto
          hintmask 11011000
          -337 -40 hlineto
          hintmask 11010100
          -85 callgsubr
          -47 830 6 callgsubr
          hintmask 10101000
          -65 callgsubr
          hintmask 11011000
          0 callsubr
        </CharString>
        <CharString name="Imacron">
          -29 callgsubr
          95 65 -72 callgsubr
          -36 865 -43 callsubr
        </CharString>
        <CharString name="Iogonek">
          -231 -239 70 169 -14 callsubr
          hstemhm
          31 103 -88 242 -45 callsubr
          hintmask 11110100
          272 -64 callgsubr
          41 51 51 73 32 hvcurveto
          135 40 hlineto
          hintmask 11101000
          -90 3 -15 17 124 vvcurveto
          402 vlineto
          -49 callsubr
          -337 -40 vlineto
          hintmask 11110100
          82 -4 13 -27 -113 vvcurveto
          -402 vlineto
          -124 -15 -17 -90 -39 callgsubr
          147 vlineto
          -97 -38 -55 -53 -60 8 callsubr
        </CharString>
        <CharString name="Itilde">
          -29 callgsubr
          50 96 -88 -20 60 94 -50 callgsubr
          hintmask 11100100
          -63 callgsubr
          hintmask 11100001
          -49 callsubr
          vlineto
          hintmask 11100100
          -337 -40 hlineto
          hintmask 11011010
          -85 callgsubr
          -320 828 -80 callsubr
          hintmask 11100100
          -103 callgsubr
          hintmask 11011100
          -80 callgsubr
        </CharString>
        <CharString name="J">
          -253 33 callsubr
          820 40 hstemhm
          130 147 hintmask 10110000
          130 -23 -30 callsubr
          hintmask 01110000
          -78 callsubr
          endchar
        </CharString>
        <CharString name="Jcircumflex">
          -253 33 callsubr
          820 58 callsubr
          130 147 hintmask 10111100
          130 -23 -30 callsubr
          hintmask 01111100
          -78 callsubr
          15 344 rmoveto
          -81 callsubr
          -40 callsubr
        </CharString>
        <CharString name="K">
          162 0 40 691 39 hstemhm
          46 241 104 159 -159 178 hintmask 11110000
          -41 callsubr
          -273 -40 vlineto
          hintmask 11101000
          -5 callsubr
          1 callgsubr
          endchar
        </CharString>
        <CharString name="Kcommaaccent">
          162 -37 callgsubr
          691 39 hstemhm
          46 241 76 138 -110 159 -159 178 hintmask 11111010
          -41 callsubr
          vlineto
          hintmask 11111100
          -273 -40 hlineto
          hintmask 11111001
          -5 callsubr
          hintmask 11111100
          1 callgsubr
          119 -411 rmoveto
          -100 callsubr
        </CharString>
        <CharString name="L">
          95 0 38 callgsubr
          hintmask 01110000
          -87 callgsubr
          hintmask 10101000
          -95 callsubr
          689 vlineto
          endchar
        </CharString>
        <CharString name="Lacute">
          95 0 40 -40 55 675 40 -40 230 -130 -20 -78 callgsubr
          hintmask 01101100
          -87 callgsubr
          hintmask 10101010
          -95 callsubr
          689 vlineto
          -531 39 callsubr
          hintmask 10010100
          -68 callsubr
          hintmask 10101100
          -21 callsubr
        </CharString>
        <CharString name="Lcaron">
          95 0 40 -40 55 675 40 -40 230 -130 -20 -78 callgsubr
          hintmask 01101100
          -87 callgsubr
          hintmask 10101010
          -95 callsubr
          689 vlineto
          -440 830 rmoveto
          hintmask 10010100
          -73 callgsubr
          hintmask 10101100
          -31 callgsubr
        </CharString>
        <CharString name="Lcommaaccent">
          95 -229 -21 95 110 45 38 callgsubr
          48 138 hintmask 11011101
          -87 callgsubr
          hintmask 11101011
          -95 callsubr
          689 vlineto
          -346 -250 rmoveto
          -100 callsubr
        </CharString>
        <CharString name="Ldot">
          95 0 40 -40 55 272 151 252 -43 callgsubr
          128 152 hintmask 01111010
          -87 callgsubr
          hintmask 10110110
          -95 callsubr
          689 vlineto
          -309 401 18 callsubr
          endchar
        </CharString>
        <CharString name="Lslash">
          97 0 40 -40 55 675 40 hstemhm
          48 241 -222 222 -45 callsubr
          hintmask 01110000
          742 227 rmoveto
          -40 hlineto
          -140 -30 -48 -32 -154 hhcurveto
          -139 -42 23 112 hvcurveto
          202 vlineto
          118 71 rlineto
          74 vlineto
          -118 -71 rlineto
          143 -72 callsubr
          hintmask 10100100
          80 -4 14 -6 callsubr
          -237 vlineto
          hintmask 10101000
          -75 -45 rlineto
          -74 vlineto
          hintmask 10100100
          75 45 rlineto
          -151 vlineto
          -94 -16 -17 -89 -39 callgsubr
          689 vlineto
          endchar
        </CharString>
        <CharString name="M">
          485 0 34 callsubr
          hstemhm
          41 183 -78 78 630 147 hintmask 10110100
          577 187 rmoveto
          -233 583 rlineto
          -303 -40 hlineto
          hintmask 10101100
          90 15 -31 -113 hvcurveto
          -402 vlineto
          -124 -17 -17 -99 -39 callgsubr
          308 40 vlineto
          -99 3 -15 16 132 vvcurveto
          461 4 vlineto
          hintmask 01110100
          278 -662 rlineto
          74 hlineto
          269 662 rlineto
          5 -468 hlineto
          hintmask 10110100
          -124 -16 -17 -99 -39 callgsubr
          376 40 vlineto
          -99 3 -15 16 132 vvcurveto
          388 vlineto
          121 14 30 89 vhcurveto
          40 -292 vlineto
          -231 -583 rlineto
          endchar
        </CharString>
        <CharString name="N">
          280 0 40 -29 -21 740 23 callgsubr
          hintmask 01110100
          -94 callgsubr
          hintmask 10101100
          -90 callsubr
          hintmask 01110100
          24 callsubr
          endchar
        </CharString>
        <CharString name="NULL">
          -660 endchar
        </CharString>
        <CharString name="Nacute">
          -10 callsubr
          -40 230 -130 -20 -33 callgsubr
          hintmask 01101101
          -94 callgsubr
          hintmask 10101011
          -90 callsubr
          hintmask 01101101
          24 callsubr
          -226 840 -73 callsubr
          hintmask 10010101
          -68 callsubr
          hintmask 10101101
          -21 callsubr
        </CharString>
        <CharString name="Ncaron">
          -10 callsubr
          -40 230 -130 -20 -33 callgsubr
          hintmask 01101101
          -94 callgsubr
          hintmask 10101011
          -90 callsubr
          hintmask 01101101
          24 callsubr
          -142 840 rmoveto
          hintmask 10010101
          -73 callgsubr
          hintmask 10101101
          -31 callgsubr
        </CharString>
        <CharString name="Ncommaaccent">
          280 -37 callgsubr
          -29 -21 740 40 21 callgsubr
          194 138 171 78 hintmask 1101110110000000
          -94 callgsubr
          hintmask 1110101110000000
          -90 callsubr
          hintmask 1101110110000000
          24 callsubr
          -210 -240 rmoveto
          -100 callsubr
        </CharString>
        <CharString name="Ndotaccent">
          -10 callsubr
          60 129 21 callgsubr
          199 136 168 78 hintmask 01111011
          -94 callgsubr
          hintmask 10110111
          -90 callsubr
          hintmask 01111011
          24 callsubr
          -248 903 -61 callgsubr
        </CharString>
        <CharString name="Ntilde">
          -10 callsubr
          50 96 -88 -20 60 94 -33 callgsubr
          hintmask 0111001010000000
          -94 callgsubr
          hintmask 1011000110000000
          -90 callsubr
          hintmask 0110111010000000
          24 callsubr
          -317 838 -80 callsubr
          hintmask 1011001010000000
          -103 callgsubr
          hintmask 1010111010000000
          -80 callgsubr
        </CharString>
        <CharString name="O">
          283 59 callgsubr
          hstem
          45 174 506 174 vstem
          -106 callsubr
          endchar
        </CharString>
        <CharString name="OE">
          521 0 55 328 40 125 -20 177 65 -53 53 hstemhm
          45 174 338 147 hintmask 11101110
          482 770 rmoveto
          -246 -191 -171 -220 -211 190 -168 243 hvcurveto
          652 hlineto
          21 229 rlineto
          -40 hlineto
          -127 -29 -43 -47 -161 hhcurveto
          -132 -42 27 87 hvcurveto
          214 vlineto
          155 -1 33 -26 16 -101 rrcurveto
          41 293 -41 hlineto
          -103 -11 -39 -22 -154 hhcurveto
          277 60 callsubr
          12 vhcurveto
          133 hlineto
          143 48 -37 -106 17 hvcurveto
          42 hlineto
          -9 196 rlineto
          hintmask 11110110
          -614 -65 rmoveto
          54 21 -21 -66 hvcurveto
          -466 vlineto
          -65 -20 -22 -55 -164 -99 120 191 206 99 123 164 vhcurveto
          endchar
        </CharString>
        <CharString name="Oacute">
          16 callgsubr
          -65 245 -6 callgsubr
          45 174 506 174 hintmask 11011100
          -106 callsubr
          -53 775 -73 callsubr
          hintmask 10101100
          -68 callsubr
          hintmask 11011100
          -21 callsubr
        </CharString>
        <CharString name="Obreve">
          16 callgsubr
          50 44 callgsubr
          45 174 506 174 hintmask 11011100
          -106 callsubr
          108 905 rmoveto
          hintmask 11101100
          4 callgsubr
          hintmask 11011100
          -67 callsubr
        </CharString>
        <CharString name="Ocircumflex">
          16 callgsubr
          -65 245 -6 callgsubr
          45 174 506 174 hintmask 11011100
          -106 callsubr
          hintmask 10101100
          -59 905 rmoveto
          hintmask 11011100
          -81 callsubr
          hintmask 10101100
          -40 callsubr
        </CharString>
        <CharString name="Odieresis">
          16 callgsubr
          64 116 hstem
          45 174 78 42 callsubr
          89 174 vstem
          -106 callsubr
          -175 848 rmoveto
          -84 callsubr
        </CharString>
        <CharString name="Odotbelow">
          284 -27 callgsubr
          77 45 callsubr
          hstem
          45 174 186 155 165 174 vstem
          -106 callsubr
          -67 -220 -104 callgsubr
        </CharString>
        <CharString name="Ograve">
          16 callgsubr
          -65 245 -6 callgsubr
          45 174 506 174 hintmask 11011100
          -106 callsubr
          129 775 6 callgsubr
          hintmask 10101100
          -65 callgsubr
          hintmask 11011100
          0 callsubr
        </CharString>
        <CharString name="Ohungarumlaut">
          16 callgsubr
          50 130 hstem
          45 174 506 174 vstem
          -106 callsubr
          -128 775 rmoveto
          -60 callsubr
          297 hmoveto
          -60 callsubr
          endchar
        </CharString>
        <CharString name="Omacron">
          16 callgsubr
          85 65 hstem
          45 174 506 174 vstem
          -106 callsubr
          141 810 -43 callsubr
        </CharString>
        <CharString name="Oogonek">
          283 -239 70 160 64 660 65 hstem
          45 174 95 103 308 174 vstem
          555 -64 callgsubr
          38 44 47 65 32 hvcurveto
          212 24 161 162 200 vvcurveto
          226 -187 175 -240 -240 -187 -175 -226 -209 174 -167 225 -12 vhcurveto
          -83 -37 -47 -50 -55 -57 callsubr
          -118 207 rmoveto
          -156 -97 124 197 208 97 131 156 156 97 -131 -208 -197 -98 -124 -155 hvcurveto
          endchar
        </CharString>
        <CharString name="Oslash">
          283 -60 -21 71 45 callsubr
          50 -20 hstem
          45 174 506 174 vstem
          -71 callgsubr
          endchar
        </CharString>
        <CharString name="Oslashacute">
          283 -60 -21 71 45 callsubr
          -65 245 -6 callgsubr
          45 174 506 174 hintmask 11101110
          -71 callgsubr
          -16 775 -73 callsubr
          hintmask 11010110
          -68 callsubr
          hintmask 11101110
          -21 callsubr
        </CharString>
        <CharString name="Otilde">
          16 callgsubr
          40 -9 callsubr
          45 174 506 174 hintmask 11011110
          -106 callsubr
          -146 773 -80 callsubr
          hintmask 11100110
          -103 callgsubr
          hintmask 11011110
          -80 callgsubr
        </CharString>
        <CharString name="P">
          57 0 40 295 60 319 -4 callgsubr
          252 161 hintmask 11101010
          700 556 rmoveto
          140 -106 74 -202 vhcurveto
          -346 hlineto
          hintmask 11011010
          -40 vlineto
          hintmask 11100110
          81 -32 callsubr
          -94 -16 -17 -89 -3 33 callgsubr
          -124 -21 17 102 hvcurveto
          176 85 vlineto
          212 116 78 143 hvcurveto
          -413 141 rmoveto
          10 7 7 11 vhcurveto
          77 hlineto
          107 50 -57 -100 -111 -59 -51 -128 hvcurveto
          -65 hlineto
          endchar
        </CharString>
        <CharString name="Q">
          289 -260 114 -49 225 -168 52 801 65 hstemhm
          46 174 510 174 -174 209 hintmask 01011100
          471 780 rmoveto
          -241 -184 -175 -228 -212 163 -174 214 -18 hvcurveto
          -126 -71 rlineto
          -56 -31 -17 -15 -23 vvcurveto
          -16 14 -12 23 vhcurveto
          hintmask 10111010
          51 12 57 71 104 107 -122 148 hhcurveto
          105 80 62 83 11 -1 15 -3 17 hvcurveto
          -37 hlineto
          -53 -20 -34 -21 -63 -112 -87 60 -114 hhcurveto
          -13 -17 -1 -1 -9 hvcurveto
          4 vlineto
          25 16 21 11 59 21 100 35 34 16 44 28 rrcurveto
          hintmask 01011100
          121 78 71 120 137 vvcurveto
          225 -191 177 -242 vhcurveto
          -750 vmoveto
          -155 -96 132 213 211 95 129 156 158 101 -132 -208 -209 -102 -136 -157 hvcurveto
          endchar
        </CharString>
        <CharString name="R">
          155 0 40 674 -4 callgsubr
          252 156 hintmask 11010100
          -44 callgsubr
          hintmask 10110100
          -40 vlineto
          hintmask 11001100
          -99 callsubr
          endchar
        </CharString>
        <CharString name="Racute">
          155 0 40 674 56 -56 246 -230 40 60 -20 -78 callgsubr
          252 156 hintmask 11001101
          -44 callgsubr
          hintmask 10011101
          -40 vlineto
          hintmask 11001011
          -99 callsubr
          78 415 -73 callsubr
          hintmask 10100101
          -68 callsubr
          hintmask 11001101
          -21 callsubr
        </CharString>
        <CharString name="Rcaron">
          155 0 40 674 56 -56 246 -230 40 60 -20 -78 callgsubr
          252 156 hintmask 11001101
          -44 callgsubr
          hintmask 10011101
          -40 vlineto
          hintmask 11001011
          -99 callsubr
          146 415 rmoveto
          hintmask 10100101
          -73 callgsubr
          hintmask 11001101
          -31 callgsubr
        </CharString>
        <CharString name="Rcommaaccent">
          155 -37 callgsubr
          674 -4 callgsubr
          76 138 38 156 hintmask 1111010110000000
          -44 callgsubr
          hintmask 1110110110000000
          -40 vlineto
          hintmask 1111001110000000
          -99 callsubr
          119 -665 rmoveto
          -100 callsubr
        </CharString>
        <CharString name="Rdotbelow">
          155 -27 callgsubr
          87 40 674 -4 callgsubr
          73 155 24 156 hintmask 11101011
          -44 callgsubr
          hintmask 11011011
          -40 vlineto
          hintmask 11100111
          -99 callsubr
          73 -580 -104 callgsubr
        </CharString>
        <CharString name="S">
          3 -10 41 callgsubr
          303 129 hintmask 01111100
          0 callgsubr
          hintmask 10111100
          -103 callsubr
          endchar
        </CharString>
        <CharString name="Sacute">
          3 -10 61 -23 callgsubr
          -61 241 -6 callgsubr
          72 114 303 129 hintmask 01110111
          0 callgsubr
          hintmask 10110111
          -103 callsubr
          hintmask 01110111
          232 575 -73 callsubr
          hintmask 10101011
          -68 callsubr
          hintmask 10110111
          -21 callsubr
        </CharString>
        <CharString name="Scaron">
          3 -10 61 -23 callgsubr
          -61 241 -6 callgsubr
          72 114 303 129 hintmask 01110111
          0 callgsubr
          hintmask 10110111
          -103 callsubr
          hintmask 01110111
          323 575 rmoveto
          hintmask 10101011
          -73 callgsubr
          hintmask 10110111
          -31 callgsubr
        </CharString>
        <CharString name="Schwa">
          193 -10 68 187 73 396 67 hstem
          39 149 446 173 vstem
          107 596 rmoveto
          89 84 67 29 103 hhcurveto
          167 106 -128 -204 -25 0 -23 -6 -16 hvcurveto
          -542 hlineto
          -41 -6 -3 -26 -187 121 -112 205 259 183 168 236 230 -171 157 -253 -128 -108 -43 -101 -87 hvcurveto
          558 -392 rmoveto
          -124 -27 -80 -63 -121 hhcurveto
          -125 -77 58 88 35 8 6 82 hvcurveto
          endchar
        </CharString>
        <CharString name="Scircumflex">
          3 -10 61 -23 callgsubr
          -61 241 -6 callgsubr
          72 114 303 129 hintmask 01110111
          0 callgsubr
          hintmask 10110111
          -103 callsubr
          hintmask 01101011
          207 705 rmoveto
          hintmask 10110111
          -81 callsubr
          hintmask 10101011
          -40 callsubr
        </CharString>
        <CharString name="Sdotbelow">
          3 -27 callgsubr
          77 41 callgsubr
          58 155 90 129 hintmask 10111111
          0 callgsubr
          hintmask 11011111
          -103 callsubr
          hintmask 10111111
          190 -420 -104 callgsubr
        </CharString>
        <CharString name="T">
          167 0 38 callsubr
          287 38 hintmask 11011100
          -46 callgsubr
          hintmask 10111100
          -69 callgsubr
          hintmask 11011100
          -22 callsubr
          endchar
        </CharString>
        <CharString name="Tbar">
          167 0 40 367 60 83 -25 callsubr
          287 38 hintmask 11101110
          -46 callgsubr
          hintmask 11011110
          162 4 83 6 97 hhcurveto
          89 14 -7 -24 hvcurveto
          -220 -203 -60 203 -244 vlineto
          -86 -18 -33 -119 -26 callgsubr
          419 40 vlineto
          -118 4 -17 33 86 vvcurveto
          244 203 60 -203 220 vlineto
          24 15 7 104 vhcurveto
          hintmask 11101110
          -22 callsubr
          endchar
        </CharString>
        <CharString name="Tcaron">
          167 0 40 510 220 -52 52 -52 242 -6 callgsubr
          17 34 287 147 287 38 hintmask 11001111
          -46 callgsubr
          hintmask 10101111
          -69 callgsubr
          hintmask 11001111
          -22 callsubr
          -345 280 rmoveto
          hintmask 10010111
          -73 callgsubr
          hintmask 11001111
          -31 callgsubr
        </CharString>
        <CharString name="Tdotbelow">
          167 -27 callgsubr
          87 38 callsubr
          287 38 hintmask 11101110
          -46 callgsubr
          hintmask 11011110
          -69 callgsubr
          hintmask 11101110
          -22 callsubr
          -480 -715 -104 callgsubr
        </CharString>
        <CharString name="Thorn">
          74 0 41 125 60 318 57 131 38 hstem
          147 147 246 167 vstem
          294 618 rmoveto
          95 8 19 127 vhcurveto
          38 -397 -41 vlineto
          98 -3 17 -17 -94 vvcurveto
          -463 vlineto
          -94 -17 -14 -98 -3 vhcurveto
          -41 397 41 vlineto
          -127 -8 16 90 hvcurveto
          19 85 vlineto
          238 90 78 147 124 -113 86 -195 hvcurveto
          -105 hlineto
          -74 vmoveto
          10 7 7 11 vhcurveto
          87 hlineto
          88 53 -54 -99 -117 -60 -48 -121 hvcurveto
          -65 hlineto
          endchar
        </CharString>
        <CharString name="U">
          23 callsubr
          hstem
          31 callgsubr
          vstem
          -107 callgsubr
          endchar
        </CharString>
        <CharString name="Uacute">
          23 callsubr
          -40 230 -6 callgsubr
          31 callgsubr
          hintmask 11011100
          -107 callgsubr
          -350 520 -73 callsubr
          hintmask 10101100
          -68 callsubr
          hintmask 11011100
          -21 callsubr
        </CharString>
        <CharString name="Ubreve">
          23 callsubr
          60 44 callgsubr
          31 callgsubr
          hintmask 11011100
          -107 callgsubr
          -183 650 rmoveto
          hintmask 11101100
          4 callgsubr
          hintmask 11011100
          -67 callsubr
        </CharString>
        <CharString name="Ucircumflex">
          23 callsubr
          60 -20 150 -20 hstem
          31 callgsubr
          vstem
          -107 callgsubr
          -348 650 rmoveto
          -81 callsubr
          -40 callsubr
        </CharString>
        <CharString name="Udieresis">
          23 callsubr
          74 116 hstem
          39 callgsubr
          31 42 callsubr
          34 83 vstem
          -107 callgsubr
          -456 593 rmoveto
          -84 callsubr
        </CharString>
        <CharString name="Udotbelow">
          -27 callgsubr
          77 52 callsubr
          hstem
          39 callgsubr
          125 155 124 83 vstem
          -107 callgsubr
          -362 -475 -104 callgsubr
        </CharString>
        <CharString name="Ugrave">
          23 callsubr
          -40 230 -6 callgsubr
          31 callgsubr
          hintmask 11011100
          -107 callgsubr
          -158 520 6 callgsubr
          hintmask 10101100
          -65 callgsubr
          hintmask 11011100
          0 callsubr
        </CharString>
        <CharString name="Uhungarumlaut">
          23 callsubr
          60 130 hstem
          31 callgsubr
          vstem
          -107 callgsubr
          -399 520 rmoveto
          -60 callsubr
          297 hmoveto
          -60 callsubr
          endchar
        </CharString>
        <CharString name="Umacron">
          23 callsubr
          95 65 hstem
          31 callgsubr
          vstem
          -107 callgsubr
          -145 555 -43 callsubr
        </CharString>
        <CharString name="Uogonek">
          -239 70 159 52 callsubr
          hstem
          39 callgsubr
          30 103 271 83 vstem
          541 -64 callgsubr
          39 46 48 67 32 hvcurveto
          169 22 72 96 197 vvcurveto
          212 vlineto
          111 7 47 20 25 vhcurveto
          18 15 24 7 49 hhcurveto
          40 -324 -40 vlineto
          52 27 -8 -19 18 hvcurveto
          22 -25 7 -45 -111 vvcurveto
          -231 vlineto
          -153 -68 -76 -138 -134 -64 72 151 vhcurveto
          262 vlineto
          104 5 36 18 21 vhcurveto
          17 14 23 5 56 hhcurveto
          40 -359 -40 vlineto
          47 19 -6 -18 12 hvcurveto
          14 -21 4 -35 -103 vvcurveto
          -274 vlineto
          -196 93 -85 212 -2 vhcurveto
          -82 -37 -46 -50 -54 8 callsubr
        </CharString>
        <CharString name="Uring">
          23 callsubr
          60 41 47 42 hstemhm
          39 callgsubr
          132 136 -43 43 136 83 hintmask 11111101
          -107 callgsubr
          -355 585 -35 callsubr
          vhcurveto
          hintmask 11111011
          10 callgsubr
          hvcurveto
          endchar
        </CharString>
        <CharString name="Utilde">
          23 callsubr
          50 -9 callsubr
          31 callgsubr
          hintmask 11011110
          -107 callgsubr
          -421 518 -80 callsubr
          hintmask 11100110
          -103 callgsubr
          hintmask 11011110
          -80 callgsubr
        </CharString>
        <CharString name="V">
          145 11 -21 739 41 hstem
          278 610 rmoveto
          -13 36 -7 25 18 vvcurveto
          29 19 9 70 2 vhcurveto
          41 -378 -41 vlineto
          78 30 -29 -126 52 hvcurveto
          239 -584 rlineto
          74 hlineto
          263 659 rlineto
          55 22 37 26 56 hhcurveto
          40 -284 -40 vlineto
          72 18 -7 -32 -29 -7 -26 -51 -131 hvcurveto
          -130 -333 rlineto
          endchar
        </CharString>
        <CharString name="W">
          17 callgsubr
          hstem
          -101 callgsubr
          endchar
        </CharString>
        <CharString name="Wacute">
          17 callgsubr
          -41 231 -6 callgsubr
          hintmask 11010000
          -101 callgsubr
          -300 636 -73 callsubr
          hintmask 10100000
          -68 callsubr
          hintmask 11010000
          -21 callsubr
        </CharString>
        <CharString name="Wcircumflex">
          17 callgsubr
          60 -20 150 -20 hstem
          -101 callgsubr
          -297 766 rmoveto
          -81 callsubr
          -40 callsubr
        </CharString>
        <CharString name="Wdieresis">
          17 callgsubr
          74 116 hstem
          261 219 42 callsubr
          227 vstem
          -101 callgsubr
          -407 709 rmoveto
          -84 callsubr
        </CharString>
        <CharString name="Wgrave">
          17 callgsubr
          60 -20 150 -20 hstem
          261 208 vstem
          -101 callgsubr
          -141 636 6 callgsubr
          -65 callgsubr
          0 callsubr
        </CharString>
        <CharString name="X">
          188 -28 callsubr
          hstem
          499 424 rmoveto
          223 276 rlineto
          24 20 28 6 55 hhcurveto
          40 -298 -40 vlineto
          69 12 -11 -20 -17 -8 -19 -20 -24 hvcurveto
          -129 -154 -103 142 rlineto
          -20 27 -10 23 17 vvcurveto
          24 20 12 48 vhcurveto
          40 -376 -40 vlineto
          45 34 -11 -46 36 hvcurveto
          233 -302 -219 -267 rlineto
          -53 -44 -24 -11 -73 hhcurveto
          -40 307 40 vlineto
          -61 -25 7 21 31 58 54 58 71 hvcurveto
          69 85 107 -152 rlineto
          42 -59 11 -16 -16 vvcurveto
          -16 -10 -10 -68 vhcurveto
          -40 373 40 vlineto
          -54 -46 26 45 -33 hvcurveto
          endchar
        </CharString>
        <CharString name="Y">
          50 callgsubr
          hstem
          -101 callsubr
          endchar
        </CharString>
        <CharString name="Yacute">
          100 47 callgsubr
          hintmask 11010000
          -101 callsubr
          224 186 -73 callsubr
          hintmask 10100000
          -68 callsubr
          hintmask 11010000
          -21 callsubr
        </CharString>
        <CharString name="Ycircumflex">
          50 callgsubr
          60 -20 150 -20 hstem
          -101 callsubr
          258 316 rmoveto
          -81 callsubr
          -40 callsubr
        </CharString>
        <CharString name="Ydieresis">
          50 callgsubr
          74 116 hstem
          373 95 vstem
          -101 callsubr
          150 259 rmoveto
          -84 callsubr
        </CharString>
        <CharString name="Ygrave">
          100 47 callgsubr
          hintmask 11010000
          -101 callsubr
          408 186 6 callgsubr
          hintmask 10100000
          -65 callgsubr
          hintmask 11010000
          0 callsubr
        </CharString>
        <CharString name="Ytilde">
          50 callgsubr
          50 -9 callsubr
          hintmask 11011000
          -101 callsubr
          182 184 -80 callsubr
          hintmask 11100000
          -103 callgsubr
          hintmask 11011000
          -80 callgsubr
        </CharString>
        <CharString name="Z">
          57 callgsubr
          hstem
          760 255 -95 callgsubr
          endchar
        </CharString>
        <CharString name="Zacute">
          57 callgsubr
          -52 242 -6 callgsubr
          hintmask 11010000
          760 255 -95 callgsubr
          -234 830 6 callgsubr
          hintmask 10100000
          -65 callgsubr
          hintmask 11010000
          0 callsubr
        </CharString>
        <CharString name="Zcaron">
          57 callgsubr
          -52 242 -6 callgsubr
          hintmask 11010000
          760 255 -95 callgsubr
          -293 830 rmoveto
          hintmask 10100000
          -73 callgsubr
          hintmask 11010000
          -31 callgsubr
        </CharString>
        <CharString name="Zdotaccent">
          57 callgsubr
          60 129 hstem
          760 255 -95 callgsubr
          -421 893 -61 callgsubr
        </CharString>
        <CharString name="Zdotbelow">
          137 -27 callgsubr
          87 56 662 52 hstem
          760 255 -95 callgsubr
          -429 -165 -104 callgsubr
        </CharString>
        <CharString name="a">
          -59 callgsubr
          -30 callgsubr
          hintmask 01010110
          -98 callgsubr
          hintmask 00110101
          -62 callsubr
          hintmask 10010110
          -97 callgsubr
          hintmask 10001110
          -65 callsubr
          endchar
        </CharString>
        <CharString name="aacute">
          -59 callgsubr
          273 -20 -30 callgsubr
          hintmask 0101011100000000
          -98 callgsubr
          hintmask 0011011010000000
          -62 callsubr
          hintmask 1001011100000000
          -97 callgsubr
          hintmask 1000111100000000
          -65 callsubr
          -133 313 -38 callgsubr
          endchar
        </CharString>
        <CharString name="abreve">
          -59 callgsubr
          106 89 -89 140 -30 callgsubr
          hintmask 0101010110000000
          -98 callgsubr
          hintmask 0011010101000000
          -62 callsubr
          hintmask 1001010110000000
          -97 callgsubr
          hintmask 1000101110000000
          -65 callsubr
          32 448 rmoveto
          hintmask 1001010110000000
          5 callgsubr
          hintmask 1001001110000000
          -58 callgsubr
        </CharString>
        <CharString name="acircumflex">
          -59 callgsubr
          260 -20 -30 callgsubr
          hintmask 0101011100000000
          -98 callgsubr
          hintmask 0011011010000000
          -62 callsubr
          hintmask 1001011100000000
          -97 callgsubr
          hintmask 1000111100000000
          -65 callsubr
          -123 462 -93 callgsubr
        </CharString>
        <CharString name="acute">
          -361 672 -21 162 -20 hstem
          75 651 -38 callgsubr
          endchar
        </CharString>
        <CharString name="acute.cap">
          -343 30 callgsubr
          93 39 callsubr
          -68 callsubr
          -21 callsubr
        </CharString>
        <CharString name="adieresis">
          -59 callgsubr
          136 129 53 callgsubr
          -65 42 callgsubr
          -91 134 -120 120 hintmask 0101011001000000
          -98 callgsubr
          hintmask 0011011000100000
          -62 callsubr
          hintmask 1001011001000000
          -97 callgsubr
          hintmask 1000110101000000
          -65 callsubr
          -234 402 rmoveto
          -88 callgsubr
          hintmask 1001011010000000
          196 hmoveto
          -88 callgsubr
          endchar
        </CharString>
        <CharString name="ae">
          26 callgsubr
          52 callgsubr
          144 226 139 hintmask 1001101110000000
          -48 callsubr
          hintmask 0101011110000000
          -19 callsubr
          hintmask 0011101110000000
          22 callgsubr
          hintmask 0101101110000000
          -18 callgsubr
          endchar
        </CharString>
        <CharString name="aeacute">
          26 callgsubr
          273 -20 52 callgsubr
          144 226 139 hintmask 1001101111000000
          -48 callsubr
          hintmask 0101011111000000
          -19 callsubr
          hintmask 0011101111000000
          22 callgsubr
          hintmask 0101101111000000
          -18 callgsubr
          -258 295 -38 callgsubr
          endchar
        </CharString>
        <CharString name="agrave">
          -59 callgsubr
          273 -20 53 callgsubr
          183 120 hintmask 01010111
          -98 callgsubr
          5 hlineto
          hintmask 00110111
          -68 33 -39 61 49 43 21 33 18 vhcurveto
          -15 29 rlineto
          hintmask 10010111
          -97 callgsubr
          hintmask 10001111
          -65 callsubr
          48 313 -82 callgsubr
        </CharString>
        <CharString name="amacron">
          -59 callgsubr
          152 65 -30 callgsubr
          hintmask 0101011100000000
          -98 callgsubr
          hintmask 0011011010000000
          -62 callsubr
          hintmask 1001011100000000
          -97 callgsubr
          hintmask 1000111100000000
          -65 callsubr
          63 354 -43 callsubr
        </CharString>
        <CharString name="ampersand">
          231 -10 73 369 40 237 71 hstem
          20 157 7 114 140 113 vstem
          356 473 rmoveto
          -37 43 -21 50 52 vvcurveto
          59 22 32 42 46 30 -36 -56 -54 -25 -46 -57 -44 vhcurveto
          104 -340 rmoveto
          -44 -54 -64 -26 -52 hhcurveto
          -65 -48 49 67 65 38 65 67 45 hvcurveto
          109 71 rmoveto
          112 74 48 60 72 vvcurveto
          87 -73 62 -101 -114 -79 -81 -117 -59 20 -53 44 -62 vhcurveto
          -159 -78 -69 -73 -90 vvcurveto
          -102 93 -75 128 95 99 44 63 68 vhcurveto
          -75 87 53 -32 69 hhcurveto
          85 55 41 74 15 hvcurveto
          -26 7 rlineto
          -37 -23 -17 -10 -37 hhcurveto
          -58 -67 43 69 -54 hvcurveto
          139 193 rlineto
          42 30 25 20 61 hhcurveto
          40 -242 -40 vlineto
          46 18 -9 -21 -32 -46 -73 -65 -73 hvcurveto
          endchar
        </CharString>
        <CharString name="aogonek">
          -86 -239 70 160 69 -69 93 287 169 -49 49 53 callgsubr
          83 103 -17 134 -120 120 hintmask 1101011000000000
          499 -64 callgsubr
          37 42 46 62 32 hvcurveto
          43 3 37 20 17 30 -15 29 rcurveline
          -9 -11 -11 -4 -13 hhcurveto
          hintmask 1101010100000000
          -23 -11 28 57 hvcurveto
          219 vlineto
          127 -58 49 -150 -140 -71 -41 -63 -41 21 -24 37 38 21 20 33 12 vhcurveto
          hintmask 1010110100000000
          -65 callsubr
          -141 -61 rlineto
          -120 -52 -49 -48 -58 vvcurveto
          -76 56 -52 83 78 64 37 69 38 vhcurveto
          hintmask 1101010010000000
          5 hlineto
          -49 17 -34 32 -15 vhcurveto
          hintmask 1101011000000000
          -95 -38 -54 -53 -59 -57 callsubr
          hintmask 1011010100000000
          -190 342 rmoveto
          -59 -48 -47 -65 -32 -24 24 39 47 58 40 111 51 vhcurveto
          endchar
        </CharString>
        <CharString name="apostrophe">
          -456 617 -21 234 -20 hstem
          46 112 vstem
          123 596 -22 callgsubr
        </CharString>
        <CharString name="aring">
          -59 callgsubr
          116 47 76 51 53 callgsubr
          4 49 80 53 -17 134 -120 120 hintmask 0101011110100000
          -98 callgsubr
          hintmask 0011011110010000
          -62 callsubr
          hintmask 1001011110100000
          -97 callgsubr
          hintmask 1000111110100000
          -65 callsubr
          -165 404 rmoveto
          -49 38 -37 52 vhcurveto
          hintmask 1001011111000000
          53 39 37 49 51 -39 37 -53 -52 -38 -37 -51 hvcurveto
          49 hmoveto
          21 18 16 23 22 17 -16 -21 -22 -17 -17 -22 -23 -18 17 22 vhcurveto
          endchar
        </CharString>
        <CharString name="aringacute">
          -59 callgsubr
          119 46 -46 181 -68 48 53 callgsubr
          -20 47 72 48 -48 101 -31 134 -120 120 hintmask 1001001001101000
          155 738 rmoveto
          -7 0 -7 2 -7 vhcurveto
          -67 -56 rlineto
          66 hlineto
          30 15 rlineto
          -11 14 18 -6 20 hhcurveto
          49 35 35 44 5 0 5 -1 5 hvcurveto
          hintmask 1001001010010000
          33 15 21 17 19 vvcurveto
          22 -16 14 -24 -18 -15 -8 -24 -19 vhcurveto
          hintmask 0101010101101000
          8 -13 -15 4 -17 hhcurveto
          -47 -36 -34 -48 hvcurveto
          47 hmoveto
          20 15 14 21 22 14 -14 -20 -19 -14 -14 -22 -21 -15 14 19 vhcurveto
          142 -548 rmoveto
          -59 -48 -47 -65 vhcurveto
          hintmask 1001010110101000
          -32 -24 24 39 47 58 40 111 51 hvcurveto
          -141 -8 rmoveto
          -121 -49 -48 -51 -58 vvcurveto
          -76 56 -52 83 78 64 37 69 38 vhcurveto
          hintmask 0011010110100100
          -62 callsubr
          hintmask 1001010110101000
          -97 callgsubr
          hintmask 1000110110101000
          -65 callsubr
          endchar
        </CharString>
        <CharString name="asciicircum">
          -168 251 -21 180 -20 hstem
          199 410 rmoveto
          -135 -180 rlineto
          57 hlineto
          125 99 125 -99 rlineto
          57 hlineto
          -135 180 rlineto
          endchar
        </CharString>
        <CharString name="asciitilde">
          -98 241 96 -48 48 -48 94 hstemhm
          hintmask 01000000
          119 249 rmoveto
          33 11 9 7 28 hhcurveto
          hintmask 10000000
          72 67 -48 63 hhcurveto
          64 44 50 88 15 hvcurveto
          -45 hlineto
          -31 -10 -14 -11 -28 hhcurveto
          hintmask 00100000
          -59 -82 46 -58 hhcurveto
          -62 -48 -52 -82 -13 hvcurveto
          endchar
        </CharString>
        <CharString name="asterisk">
          -168 370 -21 240 109 82 -20 hstemhm
          52 215 -74 74 -43 43 -43 74 -74 214 hintmask 11101000
          267 528 rmoveto
          -27 64 -3 -71 61 hhcurveto
          hintmask 11100001
          25 24 22 29 19 -11 19 -20 12 hvcurveto
          -33 19 -23 -24 -64 38 rrcurveto
          18 34 22 7 32 hhcurveto
          31 32 28 29 30 -26 22 -25 -63 18 -54 -43 -76 hvcurveto
          hintmask 11100010
          75 32 8 38 vvcurveto
          35 -23 23 -30 vhcurveto
          hintmask 11101000
          -30 -22 -23 -35 hvcurveto
          hintmask 11100100
          -45 28 16 3 -92 vhcurveto
          43 -76 17 54 -62 hhcurveto
          hintmask 11110000
          -26 -25 -22 -30 -29 31 -28 32 30 25 -9 -16 33 hvcurveto
          -64 -38 -23 24 -33 -19 rrcurveto
          -21 -12 -10 -19 -19 vvcurveto
          -29 24 -22 25 54 7 67 30 63 vhcurveto
          hintmask 11101000
          -1 -75 -31 -8 -38 vvcurveto
          -34 23 -23 30 29 22 22 34 47 -28 -18 -2 94 vhcurveto
          endchar
        </CharString>
        <CharString name="at">
          401 -134 58 153 60 351 52 -10 -20 215 55 hstemhm
          40 126 113 133 239 85 217 57 hintmask 1110111110000000
          690 442 rmoveto
          -4 hlineto
          71 -20 -33 27 -65 hhcurveto
          -145 -144 -138 -139 -102 75 -84 92 65 64 42 73 44 hvcurveto
          4 hlineto
          -74 6 39 -41 72 hhcurveto
          145 125 160 185 214 -170 144 -253 -307 -240 -211 -268 -254 215 -181 302 133 110 35 82 125 hvcurveto
          -32 41 rlineto
          -67 -99 -106 -33 -115 hhcurveto
          -243 -164 151 225 240 187 185 244 205 151 -130 -177 -136 -88 -145 -83 -28 -18 16 24 19 8 42 20 65 hvcurveto
          hintmask 1101111110000000
          70 227 rlineto
          -121 hlineto
          hintmask 1110111110000000
          -133 -42 rmoveto
          46 25 -34 -61 -117 -99 -144 -80 -39 -21 36 68 131 81 121 87 hvcurveto
          endchar
        </CharString>
        <CharString name="atilde">
          -59 callgsubr
          112 96 -48 94 -4 -20 -30 callgsubr
          hintmask 0101010111000000
          -98 callgsubr
          hintmask 0011010110100000
          -62 callsubr
          hintmask 1001010111000000
          -97 callgsubr
          hintmask 1000101011000000
          -65 callsubr
          -210 322 -80 callsubr
          hintmask 1001010111000000
          -103 callgsubr
          hintmask 1001001011000000
          -80 callgsubr
        </CharString>
        <CharString name="b">
          14 -11 58 -26 -21 477 63 290 -20 hstemhm
          85 138 261 152 hintmask 10111100
          225 282 rmoveto
          49 8 41 15 31 vhcurveto
          47 23 43 27 48 hhcurveto
          81 41 -75 -138 -142 -43 -75 -79 -79 -58 73 99 hvcurveto
          -2 611 rmoveto
          -224 -40 rlineto
          -34 vlineto
          57 -8 8 -4 8 -20 rrcurveto
          9 -24 4 -41 -64 vvcurveto
          hintmask 01111100
          -595 34 vlineto
          76 67 rlineto
          hintmask 10111100
          -47 39 69 -31 73 hhcurveto
          142 118 118 159 153 -108 121 -141 -69 -57 -29 -50 -34 hvcurveto
          -4 hlineto
          endchar
        </CharString>
        <CharString name="backslash">
          -183 51 callsubr
          383 hmoveto
          71 hlineto
          -371 770 rlineto
          -61 hlineto
          endchar
        </CharString>
        <CharString name="bar">
          -365 -229 -21 1070 -20 hstem
          94 107 vstem
          94 820 rmoveto
          -1070 107 1070 vlineto
          endchar
        </CharString>
        <CharString name="braceleft">
          -306 -129 -21 980 -20 hstemhm
          113 124 -124 210 hintmask 11100000
          237 198 rmoveto
          80 -22 48 -101 14 vhcurveto
          5 vlineto
          108 18 15 56 82 vvcurveto
          174 vlineto
          hintmask 11010000
          68 21 39 65 15 vhcurveto
          33 vlineto
          -173 -37 -44 -127 hvcurveto
          -170 vlineto
          -76 -15 -38 -79 -15 vhcurveto
          -35 vlineto
          72 -6 22 -64 -60 vvcurveto
          -191 vlineto
          -121 50 -33 165 vhcurveto
          32 vlineto
          hintmask 11100000
          -72 18 -19 36 69 vvcurveto
          endchar
        </CharString>
        <CharString name="braceright">
          -306 -129 -21 980 -20 hstemhm
          31 210 -124 124 hintmask 11100000
          117 5 rmoveto
          -69 -19 -36 -72 -18 vhcurveto
          -32 vlineto
          165 50 33 121 hvcurveto
          191 vlineto
          60 22 64 72 6 vhcurveto
          35 vlineto
          -79 15 -15 38 76 vvcurveto
          170 vlineto
          127 -37 44 -173 vhcurveto
          -33 vlineto
          hintmask 11010000
          65 -15 21 -39 -68 vvcurveto
          -174 vlineto
          -82 15 -56 108 -18 vhcurveto
          -5 vlineto
          -101 -14 -22 -48 -80 vvcurveto
          endchar
        </CharString>
        <CharString name="bracketleft">
          -268 -150 52 866 52 hstem
          96 124 vstem
          379 768 rmoveto
          52 -283 -970 283 52 -159 866 vlineto
          endchar
        </CharString>
        <CharString name="bracketright">
          -268 -150 52 866 52 hstem
          172 124 vstem
          172 768 rmoveto
          -866 -159 -52 283 970 -283 -52 vlineto
          endchar
        </CharString>
        <CharString name="breve">
          -328 646 89 -89 140 hstemhm
          hintmask 01000000
          272 786 rmoveto
          hintmask 10000000
          5 callgsubr
          hintmask 01000000
          -58 callgsubr
        </CharString>
        <CharString name="breve.cap">
          -328 830 44 callgsubr
          hintmask 01000000
          272 960 rmoveto
          hintmask 10000000
          4 callgsubr
          hintmask 01000000
          -67 callsubr
        </CharString>
        <CharString name="brokenbar">
          -356 -159 -21 930 -20 hstem
          98 108 vstem
          98 750 rmoveto
          -385 108 385 vlineto
          -108 -545 rmoveto
          -385 108 385 vlineto
          endchar
        </CharString>
        <CharString name="bullet">
          -194 232 -21 315 -20 hstem
          230 211 rmoveto
          91 74 73 85 85 -74 72 -86 -89 -75 -72 -85 -85 75 -73 84 hvcurveto
          endchar
        </CharString>
        <CharString name="c">
          -10 callgsubr
          hstemhm
          39 154 hintmask 10110000
          -70 callgsubr
          hintmask 11010000
          -36 23 21 -15 31 hhcurveto
          37 24 24 39 67 -89 51 -120 -171 -117 -112 -165 -160 110 -108 162 87 80 32 56 50 hvcurveto
          endchar
        </CharString>
        <CharString name="c_t">
          287 -5 66 -50 -21 492 38 -38 58 -10 -20 239 55 hstemhm
          39 154 202 60 208 139 -69 69 hintmask 1010011101000000
          502 121 rmoveto
          -38 -50 -57 -22 -52 hhcurveto
          -97 -53 77 140 129 45 75 78 33 5 -4 -68 46 hvcurveto
          -37 25 20 -14 29 hhcurveto
          37 25 24 37 26 -13 24 -23 19 hvcurveto
          -31 34 -14 37 46 vvcurveto
          88 55 55 89 80 54 -46 -68 -65 -55 -44 -88 -6 vhcurveto
          -45 vlineto
          hintmask 0110011110000000
          73 -363 hlineto
          -77 54 -45 92 vhcurveto
          hintmask 1000111110000000
          68 46 25 46 18 hvcurveto
          -21 29 rlineto
          -25 -15 -17 -11 -26 hhcurveto
          -43 15 callgsubr
          79 vlineto
          128 -68 67 -130 -135 -74 -70 -123 -31 4 -25 10 -24 vhcurveto
          hintmask 1001011110000000
          6 -24 -27 3 -28 hhcurveto
          -174 -117 -111 -166 -160 110 -108 162 87 80 32 56 50 hvcurveto
          endchar
        </CharString>
        <CharString name="cacute">
          -10 callgsubr
          273 -74 callgsubr
          -222 568 -38 callgsubr
          endchar
        </CharString>
        <CharString name="caron">
          -274 672 -21 149 -20 hstem
          245 651 -81 callgsubr
        </CharString>
        <CharString name="caron.alt">
          -490 580 -21 111 110 hstem
          11 138 vstem
          54 559 -57 callgsubr
        </CharString>
        <CharString name="caron.cap">
          -274 30 callgsubr
          251 830 rmoveto
          -73 callgsubr
          -31 callgsubr
        </CharString>
        <CharString name="ccaron">
          -10 callgsubr
          260 -74 callgsubr
          -147 568 -81 callgsubr
        </CharString>
        <CharString name="ccedilla">
          -96 -24 callgsubr
          57 66 298 181 -58 58 hstemhm
          39 154 130 106 hintmask 10110111
          -70 callgsubr
          hintmask 10111011
          -36 23 21 -15 31 hhcurveto
          37 24 24 39 67 -89 51 -120 -171 -117 -112 -165 -141 85 -101 131 -21 hvcurveto
          -49 -112 -62 callgsubr
          hintmask 01111011
          -71 callsubr
          24 57 84 2 77 31 49 55 rlinecurve
          endchar
        </CharString>
        <CharString name="ccircumflex">
          -10 callgsubr
          260 -74 callgsubr
          -271 717 -93 callgsubr
        </CharString>
        <CharString name="cdotaccent">
          -10 callgsubr
          135 155 hstemhm
          39 154 50 155 hintmask 10111100
          -70 callgsubr
          hintmask 11011100
          -36 23 21 -15 31 hhcurveto
          37 24 24 39 67 -89 51 -120 -171 -117 -112 -165 -160 110 -108 162 87 80 32 56 50 hvcurveto
          -285 669 -104 callgsubr
        </CharString>
        <CharString name="cedilla">
          -417 -24 callgsubr
          -51 125 hstemhm
          163 106 hintmask 10011000
          166 12 rmoveto
          -65 hlineto
          -55 -124 -62 callgsubr
          hintmask 01101000
          -71 callsubr
          endchar
        </CharString>
        <CharString name="cent">
          -81 -126 -21 506 181 143 -20 hstem
          44 154 87 64 vstem
          285 683 rmoveto
          -146 vlineto
          -146 -19 -95 -104 -153 vvcurveto
          -158 98 -107 143 -6 vhcurveto
          -137 64 141 vlineto
          74 10 69 32 41 47 -26 38 rcurveline
          -48 -39 -49 -19 -61 -1 rrcurveto
          414 vlineto
          21 -9 16 -21 19 -35 rrcurveto
          -42 26 24 -10 25 hhcurveto
          43 18 31 29 55 -63 62 -129 4 hvcurveto
          143 vlineto
          -151 -407 rmoveto
          117 29 69 58 17 vhcurveto
          -406 vlineto
          -57 25 -30 69 109 vvcurveto
          endchar
        </CharString>
        <CharString name="circumflex">
          -274 672 -21 149 -20 hstem
          141 800 -93 callgsubr
        </CharString>
        <CharString name="circumflex.cap">
          -274 30 callgsubr
          135 960 rmoveto
          -81 callsubr
          -40 callsubr
        </CharString>
        <CharString name="colon">
          -376 -10 151 165 151 hstem
          66 152 vstem
          66 64 18 callsubr
          316 vmoveto
          -83 callsubr
          endchar
        </CharString>
        <CharString name="comma">
          -398 -134 -21 155 141 hstem
          54 152 vstem
          59 -16 callgsubr
          endchar
        </CharString>
        <CharString name="commaaccent">
          -490 -239 -21 95 110 hstem
          11 138 vstem
          54 -260 rmoveto
          -100 callsubr
        </CharString>
        <CharString name="copyright">
          242 -10 58 109 51 351 50 113 58 hstem
          45 60 112 116 464 60 vstem
          -51 callsubr
          -189 -81 rmoveto
          -63 -19 -46 -34 -68 hhcurveto
          -92 -50 60 111 113 51 67 89 68 52 -33 -54 17 hvcurveto
          27 hlineto
          -5 131 rlineto
          -22 hlineto
          -10 -45 rlineto
          36 -49 -38 15 -46 hhcurveto
          -148 -102 -95 -139 -132 95 -86 149 104 58 60 88 20 hvcurveto
          endchar
        </CharString>
        <CharString name="currency">
          -50 43 -21 24 60 315 60 25 -20 hstem
          77 63 331 63 vstem
          52 57 rmoveto
          36 -34 74 71 rlineto
          -31 39 48 -17 56 hhcurveto
          55 48 16 31 40 hvcurveto
          74 -71 37 35 -74 71 rlineto
          31 37 18 46 52 vvcurveto
          52 -18 46 -33 38 vhcurveto
          76 72 -37 35 -75 -72 rlineto
          30 -40 -47 17 -55 hhcurveto
          -55 -48 -17 -30 -39 hvcurveto
          -75 72 -37 -35 75 -72 rlineto
          -32 -38 -17 -46 -52 vvcurveto
          -52 18 -46 31 -37 vhcurveto
          14 135 rmoveto
          87 74 71 91 91 75 -71 -87 -86 -75 -71 -91 -91 -74 71 86 vhcurveto
          endchar
        </CharString>
        <CharString name="d">
          34 -10 40 callsubr
          261 138 hintmask 10111100
          -79 callgsubr
          hintmask 11011100
          -96 callsubr
          endchar
        </CharString>
        <CharString name="dagger">
          -80 -239 -21 684 134 222 -20 hstemhm
          221 96 -52 52 -52 96 hintmask 11101000
          92 424 rmoveto
          48 29 34 8 96 hvcurveto
          -1 -98 -21 -51 -46 -56 rrcurveto
          36 -108 32 -246 -167 vvcurveto
          52 hlineto
          167 32 246 36 108 vhcurveto
          -46 56 -22 51 98 vvcurveto
          -8 93 30 -34 48 hhcurveto
          37 28 29 38 38 -28 29 -37 -48 -28 -34 -9 -95 hvcurveto
          hintmask 11100100
          5 116 39 28 54 vvcurveto
          38 -30 29 -40 vhcurveto
          hintmask 11110000
          -40 -30 -29 -38 -55 40 -28 3 -115 hvcurveto
          8 -96 -29 35 -47 hhcurveto
          -37 -28 -29 -38 -38 28 -29 37 hvcurveto
          endchar
        </CharString>
        <CharString name="daggerdbl">
          -64 -239 -21 217 144 318 144 217 -20 hstemhm
          224 99 -49 100 hintmask 11111000
          393 261 rmoveto
          -47 55 -23 51 97 vvcurveto
          -9 86 28 36 callsubr
          -10 -87 hvcurveto
          hintmask 11110100
          6 112 45 28 51 vvcurveto
          41 -32 31 -43 vhcurveto
          hintmask 11111000
          -43 -32 -31 -41 hvcurveto
          hintmask 11110100
          -52 46 -28 4 -111 vhcurveto
          9 -88 -28 37 -43 hhcurveto
          -43 -32 -31 -41 -41 32 -31 43 44 28 36 9 88 hvcurveto
          -1 -97 -22 -51 -47 -55 46 -57 21 -51 1 -97 rrcurveto
          9 -87 -27 36 -44 hhcurveto
          -43 -32 -31 -41 -41 32 -31 43 43 27 37 9 87 hvcurveto
          hintmask 11111000
          -4 -111 -44 -28 -52 vvcurveto
          -41 32 -31 43 vhcurveto
          hintmask 11110100
          43 32 31 41 51 -44 28 -5 112 hvcurveto
          -10 86 26 36 callsubr
          -9 -85 hvcurveto
          97 22 53 46 55 vhcurveto
          endchar
        </CharString>
        <CharString name="dcaron">
          34 -10 57 427 66 130 110 50 -20 hstem
          32 callgsubr
          85 138 vstem
          -79 callgsubr
          -96 callsubr
          268 272 -57 callgsubr
        </CharString>
        <CharString name="dcroat">
          34 -10 57 427 66 61 50 0 105 62 callgsubr
          -109 179 hintmask 11101101
          481 -10 rmoveto
          190 11 rlineto
          39 vlineto
          -57 -11 6 35 -6 hvcurveto
          hintmask 11101110
          -5 28 -2 50 99 vvcurveto
          343 vlineto
          hintmask 11101101
          70 50 hlineto
          hintmask 11011110
          -70 179 hlineto
          -253 -40 rlineto
          -34 vlineto
          70 33 -12 -28 6 hvcurveto
          2 -10 2 -23 1 -32 rrcurveto
          -84 hlineto
          hintmask 11101110
          -50 85 -127 -4 vlineto
          48 -38 -52 18 -66 hhcurveto
          -144 -109 -120 -159 -159 107 -112 152 72 61 25 49 46 hvcurveto
          hintmask 11101101
          4 hlineto
          -31 184 rmoveto
          -68 -8 -41 -19 -29 vhcurveto
          -39 -25 -43 -24 -44 hhcurveto
          -77 -43 78 138 136 43 75 78 43 39 -21 -38 24 hvcurveto
          21 -33 11 -45 -50 vvcurveto
          endchar
        </CharString>
        <CharString name="ddotbelow">
          34 -27 callgsubr
          77 40 callsubr
          81 155 25 138 hintmask 11011111
          -79 callgsubr
          hintmask 11101111
          -96 callsubr
          -178 -452 -104 callgsubr
        </CharString>
        <CharString name="degree">
          -326 540 45 149 46 hstem
          41 46 158 48 vstem
          41 660 rmoveto
          -66 57 -54 69 69 57 54 66 66 -57 54 -69 -69 -57 -54 -66 vhcurveto
          46 hmoveto
          41 37 33 43 43 35 -33 -41 -41 -35 -34 -43 -43 -37 34 41 vhcurveto
          endchar
        </CharString>
        <CharString name="dieresis">
          -295 676 129 hstem
          20 42 callgsubr
          vstem
          20 740 rmoveto
          -88 callgsubr
          196 hmoveto
          -88 callgsubr
          endchar
        </CharString>
        <CharString name="dieresis.cap">
          -321 844 116 hstem
          0 42 callsubr
          vstem
          903 vmoveto
          -84 callsubr
        </CharString>
        <CharString name="divide">
          -75 77 151 78 64 77 151 hstem
          220 152 vstem
          539 370 56 callsubr
          -319 215 18 callsubr
          -370 vmoveto
          -83 callsubr
          endchar
        </CharString>
        <CharString name="dollar">
          -16 -149 -21 722 225 -60 60 2 -20 141 -20 hstemhm
          64 113 108 68 127 127 hintmask 10011111
          285 900 rmoveto
          -121 vlineto
          -111 -110 -82 -135 -101 69 -72 152 -61 hvcurveto
          -276 vlineto
          -61 5 -35 31 -15 58 rrcurveto
          79 -20 -21 25 -37 hhcurveto
          -37 -22 -26 -46 -99 106 -80 142 -8 hvcurveto
          -161 68 162 vlineto
          156 13 98 89 126 vvcurveto
          107 -74 74 -180 72 vhcurveto
          hintmask 10101111
          244 vlineto
          hintmask 11001111
          107 -37 -165 95 hhcurveto
          35 23 23 35 88 -108 79 -115 hvcurveto
          123 vlineto
          127 -732 rmoveto
          -62 -46 -42 -81 -10 vhcurveto
          247 vlineto
          92 -40 35 -37 -56 vvcurveto
          -303 448 rmoveto
          54 50 46 58 vhcurveto
          -215 vlineto
          -73 33 -35 37 45 vvcurveto
          endchar
        </CharString>
        <CharString name="dotaccent">
          -465 675 155 hstem
          20 155 vstem
          20 752 -104 callgsubr
        </CharString>
        <CharString name="dotaccent.cap">
          -487 830 129 hstem
          20 136 vstem
          20 893 -61 callgsubr
        </CharString>
        <CharString name="dotbelow">
          -488 -27 callgsubr
          hstem
          9 155 vstem
          9 -165 -104 callgsubr
        </CharString>
        <CharString name="dotlessi">
          64 callgsubr
          500 -20 -69 callsubr
          hintmask 11100000
          -90 callgsubr
          endchar
        </CharString>
        <CharString name="dotlessj">
          -329 -260 53 747 -20 hstem
          107 139 vstem
          246 540 -21 callgsubr
          62 16 -9 -31 7 hvcurveto
          4 -17 4 -48 -73 vvcurveto
          -368 vlineto
          -94 -25 -35 -49 vhcurveto
          -79 callsubr
          endchar
        </CharString>
        <CharString name="e">
          -48 callgsubr
          hstem
          38 152 219 140 vstem
          -107 callsubr
          endchar
        </CharString>
        <CharString name="eacute">
          -48 callgsubr
          273 -20 hstem
          38 152 219 140 vstem
          -107 callsubr
          -55 295 -38 callgsubr
          endchar
        </CharString>
        <CharString name="ebreve">
          -48 callgsubr
          106 89 -89 140 hstemhm
          38 152 219 140 hintmask 11101110
          -107 callsubr
          74 430 rmoveto
          hintmask 11110110
          5 callgsubr
          hintmask 11101110
          -58 callgsubr
        </CharString>
        <CharString name="ecaron">
          -48 callgsubr
          260 -20 hstem
          38 152 219 140 vstem
          -107 callsubr
          29 295 -81 callgsubr
        </CharString>
        <CharString name="ecircumflex">
          -48 callgsubr
          260 -20 hstem
          38 152 219 140 vstem
          -107 callsubr
          -83 444 -93 callgsubr
        </CharString>
        <CharString name="edieresis">
          -48 callgsubr
          136 129 hstemhm
          38 152 -23 42 callgsubr
          -83 140 hintmask 11111001
          -107 callsubr
          hintmask 11110110
          -179 384 rmoveto
          -88 callgsubr
          196 hmoveto
          -88 callgsubr
          endchar
        </CharString>
        <CharString name="edotaccent">
          -48 callgsubr
          135 155 hstem
          38 152 57 155 7 140 vstem
          -107 callsubr
          -99 396 -104 callgsubr
        </CharString>
        <CharString name="edotbelow">
          -75 -27 callgsubr
          77 65 245 56 126 58 hstem
          38 152 45 155 19 140 vstem
          -107 callsubr
          -111 -521 -104 callgsubr
        </CharString>
        <CharString name="egrave">
          -48 callgsubr
          273 -20 hstem
          38 152 219 140 vstem
          -107 callsubr
          42 295 -82 callgsubr
        </CharString>
        <CharString name="eight">
          -25 -10 56 679 55 hstemhm
          50 125 -107 107 263 112 -80 120 hintmask 11010100
          342 314 rmoveto
          88 -38 40 -42 -55 vvcurveto
          -77 -64 -56 -90 -86 -55 58 90 64 30 55 55 37 vhcurveto
          192 98 rmoveto
          hintmask 11011000
          69 49 29 45 61 vvcurveto
          54 -25 49 -45 32 vhcurveto
          27 -44 -59 15 -64 hhcurveto
          -73 -62 -19 -37 -43 hvcurveto
          -44 -38 -23 -51 -60 vvcurveto
          -80 43 -73 75 -51 vhcurveto
          hintmask 11100100
          -88 -46 -48 -68 -76 vvcurveto
          -109 114 -82 150 161 115 96 134 89 -51 84 -87 55 vhcurveto
          -142 48 rmoveto
          -83 32 -44 42 46 vvcurveto
          62 54 47 71 vhcurveto
          hintmask 11101000
          74 56 -59 -78 -44 -21 -43 -39 -32 hvcurveto
          endchar
        </CharString>
        <CharString name="eightinferior">
          -378 -10 33 250 33 hstemhm
          39 -2 callsubr
          hintmask 11101000
          153 29 callsubr
          -98 callsubr
          hintmask 11010100
          -77 callsubr
          endchar
        </CharString>
        <CharString name="eightsuperior">
          -378 464 33 250 33 hstemhm
          39 -2 callsubr
          hintmask 11101000
          153 595 -1 callgsubr
          -98 callsubr
          hintmask 11010100
          -77 callsubr
          endchar
        </CharString>
        <CharString name="ellipsis">
          94 -10 151 hstem
          54 152 95 152 95 152 cntrmask 01110000
          54 64 18 callsubr
          247 hmoveto
          -83 callsubr
          247 hmoveto
          -83 callsubr
          endchar
        </CharString>
        <CharString name="emacron">
          -48 callgsubr
          152 65 hstem
          38 152 219 140 vstem
          -107 callsubr
          114 336 -43 callsubr
        </CharString>
        <CharString name="emdash">
          478 243 93 hstem
          1072 243 rmoveto
          93 -1006 -93 vlineto
          endchar
        </CharString>
        <CharString name="endash">
          70 243 93 hstem
          664 243 rmoveto
          93 -598 -93 vlineto
          endchar
        </CharString>
        <CharString name="eng">
          40 -32 callgsubr
          40 435 65 5 callsubr
          233 139 hintmask 10111100
          257 301 rmoveto
          41 10 41 12 24 vhcurveto
          43 22 30 25 43 hhcurveto
          87 29 -47 -136 hvcurveto
          -370 vlineto
          -94 -25 -35 -49 vhcurveto
          hintmask 01111100
          -79 callsubr
          306 vlineto
          85 -20 44 -23 31 vhcurveto
          54 -41 -48 22 -85 hhcurveto
          -71 -62 -33 -55 -44 hvcurveto
          -4 hlineto
          -13 88 -193 -38 rlineto
          -34 vlineto
          61 17 -7 -35 8 hvcurveto
          4 -17 3 -50 -78 vvcurveto
          -125 vlineto
          hintmask 10111100
          -66 callsubr
          endchar
        </CharString>
        <CharString name="eogonek">
          -75 -239 70 160 64 245 56 126 58 hstemhm
          38 152 -62 62 -62 103 178 140 hintmask 11110011
          369 -64 callgsubr
          37 42 46 62 32 hvcurveto
          81 5 67 33 57 64 -28 35 rcurveline
          -47 -52 -56 -26 -56 hhcurveto
          hintmask 11111001
          -97 -61 82 130 16 1 10 3 7 hvcurveto
          322 hlineto
          31 2 2 21 136 -83 81 -141 -168 -119 -117 -165 -143 89 -102 136 -19 hvcurveto
          hintmask 11110101
          -86 -38 -49 -51 -56 -57 callsubr
          -203 508 19 callgsubr
        </CharString>
        <CharString name="equal">
          -42 242 60 120 60 hstem
          547 482 rmoveto
          -476 -60 476 hlineto
          -120 vmoveto
          -476 -60 476 hlineto
          endchar
        </CharString>
        <CharString name="eth">
          1 -10 55 409 59 274 -20 hstem
          39 161 255 164 vstem
          200 244 rmoveto
          132 49 78 73 81 52 -80 -130 -123 -53 -76 -81 -72 -49 73 126 vhcurveto
          -36 492 rmoveto
          72 -24 38 -13 31 -24 -124 -66 rcurveline
          24 -43 140 76 61 -53 41 -73 28 -102 rlinecurve
          -3 -2 rlineto
          66 -29 -57 35 -75 hhcurveto
          -156 -116 -119 -150 -146 123 -108 158 172 127 132 186 151 -69 139 -134 82 hvcurveto
          116 64 -30 43 -136 -75 -49 28 -68 22 -65 18 rlinecurve
          endchar
        </CharString>
        <CharString name="etilde">
          -48 callgsubr
          112 -8 callgsubr
          38 152 219 140 hintmask 11101011
          -107 callsubr
          -173 304 -80 callsubr
          hintmask 11110111
          -103 callgsubr
          hintmask 11101011
          -80 callgsubr
        </CharString>
        <CharString name="exclam">
          -349 -10 151 639 -20 hstemhm
          77 156 -108 60 hintmask 11010000
          185 207 rmoveto
          122 10 79 10 64 vhcurveto
          hintmask 11100000
          13 81 15 55 82 vvcurveto
          60 -26 30 -52 -52 -26 -30 -60 -82 15 -55 13 -81 vhcurveto
          hintmask 11010000
          10 -64 10 -80 -121 vvcurveto
          -45 -142 11 callsubr
        </CharString>
        <CharString name="exclamdown">
          -349 11 -21 639 151 hstemhm
          78 156 -108 60 hintmask 11010000
          126 563 rmoveto
          -122 -10 -79 -10 -64 vhcurveto
          hintmask 11100000
          -13 -81 -15 -55 -82 vvcurveto
          -60 26 -30 52 52 26 30 60 82 -15 55 -13 81 vhcurveto
          hintmask 11010000
          -10 64 -10 80 121 vvcurveto
          45 142 12 callgsubr
        </CharString>
        <CharString name="f">
          -217 0 40 435 46 callsubr
          hintmask 11011000
          -4 callsubr
          169 55 -169 62 vlineto
          55 callgsubr
          hintmask 11101000
          -3 callsubr
        </CharString>
        <CharString name="f_b">
          390 0 47 -37 -21 468 57 -37 63 232 58 hstemhm
          121 139 201 138 261 152 hintmask 10101111
          -42 callsubr
          119 31 61 61 34 42 -20 -34 33 vhcurveto
          -718 34 vlineto
          76 67 rlineto
          hintmask 01011111
          -34 callgsubr
          vhcurveto
          hintmask 10101111
          61 callsubr
          endchar
        </CharString>
        <CharString name="f_f">
          112 0 9 callgsubr
          hintmask 11001110
          55 callsubr
          -8 -16 -53 -39 callgsubr
          299 40 vlineto
          -80 2 -19 24 100 vvcurveto
          291 157 57 -157 78 vlineto
          24 callgsubr
          20 12 -9 -35 27 vhcurveto
          hintmask 11100110
          11 callgsubr
          hintmask 11010110
          24 -35 -32 9 -50 hhcurveto
          -156 -99 -94 -150 hvcurveto
          -32 -107 -57 107 -299 vlineto
          -101 4 callsubr
          303 40 vlineto
          -60 2 -15 25 99 vvcurveto
          348 vmoveto
          38 vlineto
          -54 callsubr
        </CharString>
        <CharString name="f_f_b">
          731 0 40 -30 -21 468 57 -37 63 192 -40 callgsubr
          201 138 261 152 hintmask 1010011111000000
          940 830 rmoveto
          -62 -29 rlineto
          18 -33 -51 11 -62 hhcurveto
          -7 callsubr
          hintmask 1010101111000000
          -91 callsubr
          132 57 -132 78 vlineto
          hintmask 1010011111000000
          24 callgsubr
          32 39 -14 -33 33 vhcurveto
          -725 34 vlineto
          76 67 rlineto
          hintmask 0101011111000000
          -34 callgsubr
          61 callsubr
          hintmask 1010101111000000
          -677 295 rmoveto
          38 vlineto
          -54 callsubr
        </CharString>
        <CharString name="f_f_h">
          752 43 callsubr
          -40 66 192 -40 callgsubr
          202 137 235 139 hintmask 1010111110000000
          942 -92 callsubr
          369 hlineto
          -70 -25 rlineto
          16 -33 -47 9 -58 hhcurveto
          -7 callsubr
          hintmask 1101011110000000
          -91 callsubr
          132 57 -132 78 vlineto
          hintmask 1100111110000000
          24 callgsubr
          32 38 -14 -33 33 vhcurveto
          -1 1 -1 1 vhcurveto
          -566 14 callgsubr
          -677 350 rmoveto
          38 vlineto
          hintmask 1101011110000000
          -54 callsubr
        </CharString>
        <CharString name="f_f_i">
          384 0 9 callgsubr
          200 139 hintmask 11001111
          6 callsubr
          hintmask 11100111
          9 callsubr
          hintmask 11010111
          -91 callsubr
          107 vlineto
          61 18 -28 callgsubr
          4 -18 3 -52 -77 vvcurveto
          -112 vlineto
          -93 -10 -20 -59 -4 20 callgsubr
          -77 3 -10 16 105 vvcurveto
          -675 350 rmoveto
          38 vlineto
          -54 callsubr
        </CharString>
        <CharString name="f_f_j">
          365 -32 callgsubr
          9 callgsubr
          200 139 hintmask 1011001111000000
          6 callsubr
          hintmask 1011100111000000
          9 callsubr
          hintmask 1011010111000000
          -91 callsubr
          107 vlineto
          61 25 -28 callgsubr
          -494 vlineto
          -94 -25 -35 -49 vhcurveto
          hintmask 0111010111000000
          -79 callsubr
          -675 516 rmoveto
          38 vlineto
          -54 callsubr
        </CharString>
        <CharString name="f_f_k">
          702 43 callsubr
          -24 40 202 58 -18 58 hstemhm
          126 139 0 197 0 139 202 137 0 105 hintmask 1010110101000000
          1056 -31 callsubr
          556 vlineto
          -61 -29 rlineto
          18 -33 -51 11 -63 hhcurveto
          -7 callsubr
          hintmask 1101010110000000
          -91 callsubr
          132 57 -132 78 vlineto
          hintmask 1100110110000000
          24 callgsubr
          32 40 -14 -33 33 vhcurveto
          -568 vlineto
          -95 -18 -22 -71 20 callgsubr
          -55 -14 18 callgsubr
          88 -138 rlineto
          27 -42 3 -7 -8 vvcurveto
          -12 -11 -4 -41 vhcurveto
          -791 474 rmoveto
          38 vlineto
          hintmask 1101011010000000
          -54 callsubr
        </CharString>
        <CharString name="f_f_l">
          388 43 callsubr
          218 -40 callgsubr
          200 139 hintmask 11011110
          265 457 rmoveto
          197 -299 hlineto
          -50 callsubr
          132 57 -132 78 vlineto
          24 callgsubr
          32 38 -14 -33 33 vhcurveto
          -568 vlineto
          -93 -10 -20 -59 -4 20 callgsubr
          -77 3 -10 16 105 vvcurveto
          666 vlineto
          -73 -23 rlineto
          15 -33 -46 8 -56 hhcurveto
          -7 callsubr
          hintmask 11101110
          24 -35 -32 9 -50 hhcurveto
          -156 -99 -94 -150 hvcurveto
          -32 -107 -57 107 -299 vlineto
          -101 4 callsubr
          303 40 vlineto
          -60 2 -15 25 99 vvcurveto
          348 vmoveto
          38 vlineto
          -54 callsubr
        </CharString>
        <CharString name="f_f_t">
          433 -10 50 -50 64 -33 -21 475 55 158 142 -98 58 -18 58 hstemhm
          124 139 197 139 210 139 hintmask 0101001111000000
          809 -77 callgsubr
          -60 -22 -69 -61 -65 hhcurveto
          -142 62 hlineto
          24 callgsubr
          20 12 -9 -35 27 vhcurveto
          hintmask 1001100111000000
          11 callgsubr
          hintmask 1001010111000000
          24 -35 -32 9 -50 hhcurveto
          -156 -99 -94 -150 hvcurveto
          -16 -107 -55 107 -317 vlineto
          -101 -7 -17 -82 vhcurveto
          hintmask 0011100111000000
          -40 303 vlineto
          hintmask 1001100111000000
          40 vlineto
          -59 -16 27 99 hvcurveto
          309 197 -317 vlineto
          -99 -8 -19 -53 vhcurveto
          hintmask 0011100111000000
          -40 299 vlineto
          hintmask 1001010111000000
          40 vlineto
          -79 -20 26 100 hvcurveto
          309 vlineto
          -336 55 rmoveto
          22 vlineto
          114 21 66 63 38 31 -14 -58 44 vhcurveto
          -130 vlineto
          endchar
        </CharString>
        <CharString name="f_h">
          411 43 callsubr
          -40 66 232 63 callgsubr
          235 139 hintmask 10111110
          601 297 rmoveto
          109 46 68 85 75 27 -52 -142 vhcurveto
          -123 vlineto
          -101 -9 -12 -80 -26 callgsubr
          313 40 vlineto
          -79 5 -6 8 111 vvcurveto
          155 vlineto
          126 -75 95 -133 -71 -50 -25 -54 -41 vhcurveto
          -4 369 hlineto
          -83 -26 rlineto
          15 -28 -60 11 -54 hhcurveto
          -158 -95 -91 -153 hvcurveto
          hintmask 11011110
          -72 -103 -57 103 -299 vlineto
          -100 -9 -14 -65 -26 callgsubr
          287 40 vlineto
          -59 2 -15 25 99 vvcurveto
          291 115 57 -115 78 vlineto
          119 31 61 61 34 43 -20 -34 33 vhcurveto
          -561 14 callgsubr
          endchar
        </CharString>
        <CharString name="f_i">
          32 0 13 callsubr
          hintmask 11011100
          -13 callsubr
          hintmask 11101100
          -35 callgsubr
          91 vlineto
          68 20 -9 -32 7 hvcurveto
          4 -20 3 -55 -71 vvcurveto
          -113 vlineto
          -95 -11 -19 -58 -3 20 callgsubr
          -76 3 -11 16 106 vvcurveto
          endchar
        </CharString>
        <CharString name="f_j">
          13 -32 callgsubr
          13 callsubr
          hintmask 10110111
          -13 callsubr
          hintmask 10111011
          -35 callgsubr
          98 vlineto
          68 20 -9 -32 7 hvcurveto
          -494 vlineto
          -94 -25 -35 -49 vhcurveto
          hintmask 01111011
          -79 callsubr
          endchar
        </CharString>
        <CharString name="f_k">
          361 43 callsubr
          -24 40 242 63 callgsubr
          0 105 -105 188 hintmask 10111010
          715 hmoveto
          311 40 hlineto
          -49 -24 13 43 -30 -18 callsubr
          34 15 50 hhcurveto
          40 -273 -40 vlineto
          hintmask 11011001
          64 19 -5 -16 -14 -18 -20 -74 -70 57 callsubr
          -83 -26 rlineto
          15 -28 -60 11 -54 hhcurveto
          -158 -95 -91 -153 hvcurveto
          -72 -103 -57 103 -299 vlineto
          -100 -10 -18 -64 vhcurveto
          -40 287 40 vlineto
          -59 -15 27 99 hvcurveto
          291 115 57 -115 78 vlineto
          119 31 61 61 vhcurveto
          hintmask 11011100
          34 43 -20 -34 33 hvcurveto
          -561 vlineto
          -95 -13 -22 -66 vhcurveto
          -40 285 40 vlineto
          -57 -12 18 callgsubr
          86 -135 rlineto
          28 -44 3 -6 -8 vvcurveto
          -14 -11 -4 -40 vhcurveto
          endchar
        </CharString>
        <CharString name="f_l">
          47 43 callsubr
          258 58 hstem
          121 139 200 139 vstem
          -42 callsubr
          52 5 37 11 30 vhcurveto
          40 15 26 21 35 hhcurveto
          34 41 -20 -34 33 hvcurveto
          -564 vlineto
          -93 -11 -18 -58 -3 20 callgsubr
          -75 3 -12 17 101 vvcurveto
          endchar
        </CharString>
        <CharString name="f_t">
          114 0 40 -40 54 -43 -21 485 46 callsubr
          226 139 hintmask 10011011
          -4 callsubr
          226 -363 vlineto
          hintmask 00111011
          -77 54 -45 92 68 46 25 46 18 vhcurveto
          -21 29 rlineto
          hintmask 01010111
          7 callsubr
          -60 -22 -69 -61 -65 hhcurveto
          -158 62 hlineto
          55 callgsubr
          hintmask 10011011
          -3 callsubr
        </CharString>
        <CharString name="five">
          -65 -10 54 -54 205 262 58 136 111 19 -20 hstemhm
          391 160 hintmask 10110100
          249 651 rmoveto
          97 hlineto
          98 67 47 82 19 hvcurveto
          hintmask 10101100
          -6 1 rlineto
          hintmask 10110100
          -12 -30 -56 -7 -74 hhcurveto
          -62 -44 6 12 -37 hvcurveto
          -112 -413 rlineto
          -1 -4 -1 -4 -4 vvcurveto
          -16 11 -10 17 18 12 7 31 11 vhcurveto
          62 23 37 28 58 hhcurveto
          70 27 -50 -110 -153 -61 -100 -103 hvcurveto
          hintmask 01110100
          -132 62 151 -87 hhcurveto
          -38 -22 -25 -42 -80 89 -58 125 184 143 125 159 137 -102 104 -135 -43 -45 -17 -24 -22 hvcurveto
          -2 3 rlineto
          endchar
        </CharString>
        <CharString name="fiveeighths">
          53 31 callsubr
          158 33 -33 88 93 32 50 43 3 -20 27 -20 hstemhm
          79 225 -73 73 103 -2 callsubr
          hintmask 0111011001010100
          683 7 callgsubr
          hintmask 1011011001010100
          -98 callsubr
          hintmask 1011011001001010
          -77 callsubr
          -346 546 rmoveto
          35 hlineto
          hintmask 1011010011010100
          43 30 20 33 7 hvcurveto
          -4 hlineto
          hintmask 1011010101010100
          -4 -14 -26 -3 -30 hhcurveto
          hintmask 1011010010110100
          -25 -18 3 4 -10 hvcurveto
          -45 -165 rlineto
          -1 -2 0 -2 -2 vvcurveto
          -7 5 -3 8 8 4 4 12 5 vhcurveto
          19 9 17 11 21 hhcurveto
          20 12 -20 -32 -63 -22 -33 -42 hvcurveto
          hintmask 1010111001010100
          -54 29 55 -40 hhcurveto
          -15 -8 -8 -16 -37 38 -27 52 75 60 51 64 54 -43 44 -52 -19 -16 -6 -11 -9 hvcurveto
          -1 4 rlineto
          endchar
        </CharString>
        <CharString name="fiveinferior">
          -395 -10 12 callsubr
          253 -59 callsubr
        </CharString>
        <CharString name="fivesuperior">
          -395 464 12 callsubr
          727 -59 callsubr
        </CharString>
        <CharString name="florin">
          63 -260 59 -59 156 529 55 155 145 -58 58 hstemhm
          hintmask 10110000
          55 -201 rmoveto
          -25 -3 3 50 -38 hvcurveto
          hintmask 01101000
          32 -24 -17 12 -23 hhcurveto
          -30 -21 -22 -30 -57 76 -47 90 93 69 51 110 56 hvcurveto
          35 69 20 75 32 181 35 199 rcurveline
          122 hlineto
          14 55 rlineto
          -130 hlineto
          8 43 rlineto
          139 25 38 60 62 hhcurveto
          26 13 -9 -49 45 hvcurveto
          hintmask 10110000
          -22 20 12 -7 22 hhcurveto
          32 18 17 29 58 -68 41 -95 -147 -109 -97 -158 -32 hvcurveto
          -9 -45 rlineto
          -105 hlineto
          -15 -55 rlineto
          110 hlineto
          -55 -343 rlineto
          -209 -34 -33 -74 -60 hhcurveto
          endchar
        </CharString>
        <CharString name="four">
          4 0 40 168 63 509 -20 hstem
          327 141 118 37 vstem
          8 208 rmoveto
          319 -34 hlineto
          -84 -15 -46 -94 -26 callgsubr
          343 40 vlineto
          -78 3 -15 45 93 vvcurveto
          31 vlineto
          97 -2 21 -13 -73 vvcurveto
          37 243 -37 hlineto
          -77 -21 -16 -97 -3 vhcurveto
          509 -95 vlineto
          -365 -512 rlineto
          319 3 rmoveto
          -234 hlineto
          230 324 rlineto
          4 hlineto
          endchar
        </CharString>
        <CharString name="fourinferior">
          -377 0 25 callgsubr
          72 -56 callsubr
          hintmask 11101000
          19 94 -19 hlineto
          hintmask 11110000
          -52 callsubr
          endchar
        </CharString>
        <CharString name="foursuperior">
          -377 468 25 callgsubr
          540 -56 callsubr
          hintmask 11101000
          19 94 -19 hlineto
          hintmask 11110000
          -52 callsubr
          endchar
        </CharString>
        <CharString name="fraction">
          -620 51 callsubr
          346 -68 callgsubr
          endchar
        </CharString>
        <CharString name="g">
          -41 callgsubr
          -25 callgsubr
          143 136 -40 118 hintmask 1001001010000000
          -61 callsubr
          hintmask 1010000101000000
          -93 callsubr
          hintmask 0110010001000000
          -84 callgsubr
          hintmask 1000100110000000
          -47 callgsubr
          endchar
        </CharString>
        <CharString name="gbreve">
          -41 callgsubr
          106 89 -89 140 -25 callgsubr
          143 136 -40 118 hintmask 1001010010100000
          -61 callsubr
          hintmask 1010010001010000
          -93 callsubr
          hintmask 0110010100010000
          -84 callgsubr
          hintmask 1000101001100000
          -47 callgsubr
          114 556 rmoveto
          hintmask 1010010100100000
          5 callgsubr
          hintmask 1010001100100000
          -58 callgsubr
        </CharString>
        <CharString name="gcircumflex">
          -41 callgsubr
          260 -20 -25 callgsubr
          143 136 -40 118 hintmask 1001010101000000
          -61 callsubr
          hintmask 1010010010100000
          -93 callsubr
          hintmask 0110011000100000
          -84 callgsubr
          hintmask 1000110011000000
          -47 callgsubr
          -35 570 -93 callgsubr
        </CharString>
        <CharString name="gcommaaccent">
          -41 callgsubr
          111 110 95 -20 -25 callgsubr
          31 138 -26 136 -40 118 hintmask 1010011010101000
          327 856 rmoveto
          -69 -39 -26 -42 -45 vvcurveto
          -50 24 -29 42 43 29 29 31 30 -21 20 -25 -12 -9 -3 -5 -6 vhcurveto
          25 18 25 40 22 vhcurveto
          -127 -717 rmoveto
          -30 3 -15 9 16 vvcurveto
          21 22 9 63 7 vhcurveto
          hintmask 1001011100010000
          151 17 61 74 100 vvcurveto
          34 -5 25 -13 23 vhcurveto
          17 12 15 10 13 hhcurveto
          hintmask 1010011001101000
          -93 callsubr
          hintmask 0110011100101000
          -84 callgsubr
          hintmask 1000111001010000
          -47 callgsubr
          endchar
        </CharString>
        <CharString name="gdotaccent">
          -41 callgsubr
          135 155 -25 callgsubr
          21 155 -33 136 -40 118 hintmask 1001010100100000
          -61 callsubr
          hintmask 1010010011010000
          -93 callsubr
          hintmask 0110011001010000
          -84 callgsubr
          hintmask 1000110010100000
          -47 callgsubr
          hintmask 1010011001010000
          -54 522 -104 callgsubr
        </CharString>
        <CharString name="germandbls">
          51 0 41 -41 123 -112 -21 441 31 -31 61 278 60 hstemhm
          107 139 217 151 -92 151 hintmask 1000111100000000
          358 830 rmoveto
          -160 -91 -88 -156 hvcurveto
          -430 vlineto
          -100 -12 -15 -79 vhcurveto
          -41 278 41 vlineto
          -39 -9 24 99 hvcurveto
          428 vlineto
          126 32 52 78 73 34 -44 -93 -97 -38 -44 -83 vhcurveto
          -61 vlineto
          hintmask 0101011010000000
          114 66 -80 -140 -95 -28 -70 -39 hvcurveto
          -41 10 77 -56 hhcurveto
          -29 -18 -19 -28 hvcurveto
          hintmask 0011011010000000
          -51 52 -35 76 129 95 99 134 134 -92 105 -119 vhcurveto
          5 vlineto
          hintmask 1001011100000000
          97 18 55 61 90 vvcurveto
          116 -102 78 -154 vhcurveto
          endchar
        </CharString>
        <CharString name="grave">
          -361 672 -21 162 -20 hstem
          283 651 -82 callgsubr
        </CharString>
        <CharString name="grave.cap">
          -343 30 callgsubr
          297 830 6 callgsubr
          -65 callgsubr
          0 callsubr
        </CharString>
        <CharString name="greater">
          -67 93 -21 528 -20 hstem
          77 141 rmoveto
          -69 vlineto
          480 232 rlineto
          64 vlineto
          -480 232 rlineto
          -69 vlineto
          420 -195 rlineto
          endchar
        </CharString>
        <CharString name="guillemotleft">
          -107 98 -21 370 -20 hstem
          238 77 -11 callgsubr
          412 -185 -11 callgsubr
          endchar
        </CharString>
        <CharString name="guillemotright">
          -107 98 -21 370 -20 hstem
          507 262 -11 callsubr
          -28 185 -11 callsubr
          endchar
        </CharString>
        <CharString name="guilsinglleft">
          -327 98 -21 370 -20 hstem
          238 77 -11 callgsubr
          endchar
        </CharString>
        <CharString name="guilsinglright">
          -327 98 -21 370 -20 hstem
          287 262 -11 callsubr
          endchar
        </CharString>
        <CharString name="h">
          54 0 27 callgsubr
          235 139 hintmask 11110100
          244 -92 callsubr
          369 hlineto
          20 callsubr
          60 12 -6 -34 7 hvcurveto
          hintmask 11101100
          5 -24 2 -44 -79 vvcurveto
          -411 vlineto
          hintmask 11110100
          -38 callsubr
          endchar
        </CharString>
        <CharString name="hbar">
          54 0 40 434 66 61 50 0 104 75 -20 hstemhm
          20 222 -137 137 235 139 hintmask 11101101
          244 -92 callsubr
          140 71 50 -71 179 hlineto
          -223 -38 rlineto
          hintmask 11011101
          -37 vlineto
          60 12 -6 -34 7 hvcurveto
          3 -14 2 -20 1 -30 rrcurveto
          -84 hlineto
          hintmask 11101101
          -50 vlineto
          hintmask 11101011
          85 -444 hlineto
          -38 callsubr
          endchar
        </CharString>
        <CharString name="hcircumflex">
          54 0 27 callgsubr
          235 139 hintmask 11110100
          244 -92 callsubr
          369 hlineto
          20 callsubr
          60 12 -6 -34 7 hvcurveto
          hintmask 11101100
          5 -24 2 -44 -79 vvcurveto
          -411 vlineto
          hintmask 11110100
          -38 callsubr
          165 636 -93 callgsubr
        </CharString>
        <CharString name="hdotbelow">
          54 -27 callgsubr
          87 27 callgsubr
          39 155 41 139 hintmask 11111011
          244 -92 callsubr
          369 hlineto
          20 callsubr
          60 12 -6 -34 7 hvcurveto
          hintmask 11110111
          5 -24 2 -44 -79 vvcurveto
          -411 vlineto
          hintmask 11111011
          -38 callsubr
          37 -329 -104 callgsubr
        </CharString>
        <CharString name="hungarumlaut">
          -124 651 162 hstem
          75 651 -63 callsubr
        </CharString>
        <CharString name="hungarumlaut.cap">
          -139 830 130 hstem
          93 830 rmoveto
          -60 callsubr
          297 hmoveto
          -60 callsubr
          endchar
        </CharString>
        <CharString name="hyphen">
          -203 243 93 hstem
          391 243 rmoveto
          93 -325 -93 vlineto
          endchar
        </CharString>
        <CharString name="i">
          64 callgsubr
          635 155 -69 callsubr
          hintmask 11100000
          -90 callgsubr
          -147 588 -104 callgsubr
        </CharString>
        <CharString name="iacute">
          64 callgsubr
          773 -20 5 callsubr
          -139 236 hintmask 11100000
          257 540 -21 callgsubr
          61 18 -28 callgsubr
          4 -18 3 -52 -77 vvcurveto
          -123 vlineto
          -90 callgsubr
          -111 487 rmoveto
          139 60 rlineto
          hintmask 11010000
          42 18 27 16 23 vvcurveto
          28 -22 17 -33 -27 -26 -13 -30 -32 vhcurveto
          -127 -119 rlineto
          endchar
        </CharString>
        <CharString name="ibreve">
          64 callgsubr
          606 89 -89 140 hstemhm
          37 220 -139 139 -139 219 hintmask 10101000
          257 540 -21 callgsubr
          61 18 -28 callgsubr
          4 -18 3 -52 -77 vvcurveto
          -123 vlineto
          -90 callgsubr
          36 622 rmoveto
          hintmask 11010000
          5 callgsubr
          hintmask 10110000
          -52 -42 20 31 -12 hvcurveto
          -43 hlineto
          -81 3 63 -59 84 hhcurveto
          hintmask 10100100
          82 63 58 82 5 hvcurveto
          endchar
        </CharString>
        <CharString name="icircumflex">
          64 callgsubr
          760 -20 -69 callsubr
          hintmask 11100000
          -90 callgsubr
          -122 636 -93 callgsubr
        </CharString>
        <CharString name="idieresis">
          64 callgsubr
          636 129 hstemhm
          29 138 -49 139 -23 129 hintmask 11010000
          257 540 -21 callgsubr
          61 18 -28 callgsubr
          4 -18 3 -52 -77 vvcurveto
          -123 vlineto
          hintmask 11101000
          -94 -14 -19 -75 -26 callgsubr
          315 40 vlineto
          hintmask 11010000
          -77 3 -10 15 106 vvcurveto
          -219 576 rmoveto
          -36 28 -28 36 vhcurveto
          hintmask 11101000
          37 28 28 36 37 -28 28 -37 -36 -28 -28 -37 hvcurveto
          196 hmoveto
          -88 callgsubr
          endchar
        </CharString>
        <CharString name="idotbelow">
          -299 -27 callgsubr
          87 40 635 155 -69 callsubr
          hintmask 11110000
          -90 callgsubr
          -147 588 rmoveto
          -43 34 -34 43 44 34 34 43 44 -34 34 -44 -43 -34 -34 -44 vhcurveto
          -917 vmoveto
          -43 34 -34 43 44 34 34 43 44 -34 34 -44 -43 -34 -34 -44 vhcurveto
          endchar
        </CharString>
        <CharString name="igrave">
          64 callgsubr
          773 -20 hstem
          118 139 vstem
          257 540 -21 callgsubr
          61 18 -28 callgsubr
          4 -18 3 -52 -77 vvcurveto
          -123 vlineto
          -90 callgsubr
          23 487 -82 callgsubr
        </CharString>
        <CharString name="ij">
          32 -32 callgsubr
          40 635 155 hstemhm
          29 50 callsubr
          211 139 hintmask 10110110
          257 540 -21 callgsubr
          61 18 -28 callgsubr
          4 -18 3 -52 -77 vvcurveto
          -123 vlineto
          -90 callgsubr
          -147 588 rmoveto
          -43 34 -34 43 44 34 34 43 44 -34 34 -44 -43 -34 -34 -44 vhcurveto
          497 -212 -21 callgsubr
          62 16 -9 -31 7 hvcurveto
          4 -17 4 -48 -73 vvcurveto
          -368 vlineto
          -94 -25 -35 -49 vhcurveto
          hintmask 01111010
          -88 callsubr
        </CharString>
        <CharString name="imacron">
          64 callgsubr
          652 65 -69 callsubr
          hintmask 11100000
          -90 callgsubr
          72 528 -43 callsubr
        </CharString>
        <CharString name="iogonek">
          -299 -239 70 169 40 635 155 hstemhm
          2 103 -76 50 callsubr
          hintmask 11110100
          243 -64 callgsubr
          41 51 51 73 32 hvcurveto
          115 40 hlineto
          hintmask 11101000
          -77 3 -10 15 106 vvcurveto
          376 vlineto
          -17 callsubr
          61 18 -28 callgsubr
          hintmask 11110100
          4 -18 3 -52 -77 vvcurveto
          -123 vlineto
          hintmask 11101000
          -94 -14 -19 -75 -26 callgsubr
          125 vlineto
          hintmask 11110100
          -97 -38 -55 -53 -60 -57 callsubr
          -168 904 -104 callgsubr
        </CharString>
        <CharString name="itilde">
          64 callgsubr
          612 -8 callgsubr
          29 50 callsubr
          hintmask 11010100
          257 540 -21 callgsubr
          61 18 -28 callgsubr
          4 -18 3 -52 -77 vvcurveto
          -123 vlineto
          hintmask 10100100
          -90 callgsubr
          -221 496 -80 callsubr
          hintmask 11011000
          -103 callgsubr
          hintmask 10101000
          -80 callgsubr
        </CharString>
        <CharString name="j">
          -329 -260 53 -53 151 784 155 hstemhm
          107 139 hintmask 10110000
          246 540 -21 callgsubr
          62 16 -9 -31 7 hvcurveto
          4 -17 4 -48 -73 vvcurveto
          -368 vlineto
          -94 -25 -35 -49 vhcurveto
          hintmask 01110000
          -88 callsubr
        </CharString>
        <CharString name="jcircumflex">
          -329 -260 53 -53 151 909 -20 hstemhm
          107 139 hintmask 10110000
          246 540 -21 callgsubr
          62 16 -9 -31 7 hvcurveto
          4 -17 4 -48 -73 vvcurveto
          -368 vlineto
          -94 -25 -35 -49 vhcurveto
          hintmask 01110000
          -79 callsubr
          -126 802 -93 callgsubr
        </CharString>
        <CharString name="k">
          4 0 40 450 40 300 -9 callgsubr
          0 105 -105 192 hintmask 11100100
          -12 callgsubr
          hintmask 11100010
          8 callgsubr
          hintmask 11101000
          81 5 -10 -164 hvcurveto
          -424 vlineto
          hintmask 11110000
          -20 callsubr
          endchar
        </CharString>
        <CharString name="kcommaaccent">
          4 -37 callgsubr
          450 40 300 -9 callgsubr
          0 192 -163 138 -62 62 hintmask 1111110001000000
          -12 callgsubr
          hintmask 1111100100000000
          8 callgsubr
          hintmask 1111101010000000
          81 5 -10 -164 hvcurveto
          -424 vlineto
          hintmask 1111110010000000
          -20 callsubr
          -44 -290 rmoveto
          -100 callsubr
        </CharString>
        <CharString name="kgreenlandic">
          15 0 40 450 40 10 -20 hstemhm
          27 49 callsubr
          0 105 hintmask 11000100
          369 -31 callsubr
          hintmask 10101000
          266 vlineto
          20 callsubr
          79 7 -5 -169 hvcurveto
          -134 vlineto
          hintmask 11010000
          -95 -17 -22 -72 20 callgsubr
          -57 -12 18 callgsubr
          100 -153 rlineto
          11 -17 6 -12 -9 vvcurveto
          -14 -14 -6 -37 vhcurveto
          endchar
        </CharString>
        <CharString name="l">
          -305 0 40 790 34 callgsubr
          vstemhm
          247 830 -21 callgsubr
          61 18 -28 callgsubr
          4 -18 3 -52 -77 vvcurveto
          -413 vlineto
          hintmask 11100000
          -90 callgsubr
          endchar
        </CharString>
        <CharString name="lacute">
          -305 0 40 790 -20 150 34 callgsubr
          vstemhm
          150 39 callsubr
          -68 callsubr
          -126 -97 rlineto
          170 hmoveto
          -17 callsubr
          61 18 -28 callgsubr
          4 -18 3 -52 -77 vvcurveto
          -413 vlineto
          hintmask 11110000
          -90 callgsubr
          endchar
        </CharString>
        <CharString name="lcaron">
          -305 0 40 630 110 50 34 callgsubr
          94 138 vstemhm
          247 830 -21 callgsubr
          61 18 -28 callgsubr
          4 -18 3 -52 -77 vvcurveto
          -413 vlineto
          hintmask 11111000
          -90 callgsubr
          137 395 -57 callgsubr
        </CharString>
        <CharString name="lcommaaccent">
          -305 -37 callgsubr
          790 34 callgsubr
          vstemhm
          247 830 -21 callgsubr
          61 18 -28 callgsubr
          4 -18 3 -52 -77 vvcurveto
          -413 vlineto
          hintmask 11111000
          -90 callgsubr
          -88 -414 rmoveto
          -100 callsubr
        </CharString>
        <CharString name="ldot">
          -221 0 40 302 151 337 34 callgsubr
          75 152 vstemhm
          247 830 -21 callgsubr
          61 18 -28 callgsubr
          4 -18 3 -52 -77 vvcurveto
          -413 vlineto
          hintmask 11111000
          -90 callgsubr
          75 252 18 callsubr
          endchar
        </CharString>
        <CharString name="less">
          -67 93 -21 528 -20 hstem
          96 336 rmoveto
          420 195 rlineto
          69 vlineto
          -480 -232 rlineto
          -64 vlineto
          480 -232 rlineto
          69 vlineto
          endchar
        </CharString>
        <CharString name="logicalnot">
          -23 131 -21 193 70 hstem
          489 72 vstem
          489 110 rmoveto
          72 263 -490 -70 418 hlineto
          endchar
        </CharString>
        <CharString name="lslash">
          -303 0 40 790 -20 hstemhm
          20 228 -211 211 -139 139 -139 212 hintmask 11001000
          248 830 -21 callgsubr
          61 18 -28 callgsubr
          4 -18 3 -52 -77 vvcurveto
          -181 vlineto
          hintmask 11010000
          -72 -42 rlineto
          -65 vlineto
          hintmask 11001000
          72 42 rlineto
          -167 vlineto
          hintmask 11100000
          -90 callgsubr
          242 vlineto
          hintmask 11000100
          73 43 rlineto
          65 vlineto
          hintmask 11001000
          -73 -43 rlineto
          endchar
        </CharString>
        <CharString name="m">
          446 35 callsubr
          hstemhm
          118 140 233 140 233 140 vstemhm
          258 297 rmoveto
          44 10 43 17 32 vhcurveto
          36 19 27 23 44 hhcurveto
          87 29 -47 -140 hvcurveto
          -131 vlineto
          -101 -9 -11 -80 -5 vhcurveto
          -40 317 40 vlineto
          -82 5 -6 10 110 vvcurveto
          132 vlineto
          45 9 41 17 31 vhcurveto
          36 20 28 25 47 hhcurveto
          83 29 -48 -139 hvcurveto
          -131 vlineto
          -100 -9 -13 -80 -26 callgsubr
          316 40 vlineto
          -79 5 -8 10 110 vvcurveto
          154 vlineto
          87 -13 46 -26 30 vhcurveto
          37 -33 -62 21 -79 hhcurveto
          -75 -70 -33 -56 -48 hvcurveto
          -4 hlineto
          57 -29 -57 32 -88 hhcurveto
          -74 -53 -25 -62 -56 hvcurveto
          -6 hlineto
          -12 87 -193 -38 rlineto
          -34 vlineto
          64 13 -6 -34 8 hvcurveto
          5 -18 2 -53 -76 vvcurveto
          -124 vlineto
          hintmask 11111000
          -101 -10 -11 -80 -5 vhcurveto
          -40 316 40 vlineto
          -80 5 -6 9 111 vvcurveto
          endchar
        </CharString>
        <CharString name="macron">
          -334 692 65 hstem
          305 692 -43 callsubr
        </CharString>
        <CharString name="macron.cap">
          -334 865 65 hstem
          305 865 -43 callsubr
        </CharString>
        <CharString name="minus">
          -26 306 64 hstem
          563 370 56 callsubr
          endchar
        </CharString>
        <CharString name="mu">
          84 -239 -21 250 32 callsubr
          117 137 229 138 hintmask 11011100
          202 -53 callgsubr
          6 -9 -109 vvcurveto
          -543 vlineto
          -47 31 27 callsubr
        </CharString>
        <CharString name="multiply">
          -136 140 -21 422 -20 hstem
          471 169 rmoveto
          -162 162 164 164 -46 46 -164 -164 -162 162 -48 -48 162 -162 -164 -164 46 -46 164 164 162 -162 rlineto
          endchar
        </CharString>
        <CharString name="n">
          67 35 callsubr
          5 callsubr
          233 139 vstemhm
          257 -105 callgsubr
          hintmask 11110000
          -66 callsubr
          endchar
        </CharString>
        <CharString name="nacute">
          67 35 callsubr
          273 -20 5 callsubr
          233 139 vstemhm
          257 -105 callgsubr
          hintmask 11111000
          -66 callsubr
          73 488 -38 callgsubr
          endchar
        </CharString>
        <CharString name="napostrophe">
          137 35 callsubr
          290 -20 hstemhm
          19 112 57 139 233 139 vstemhm
          327 -105 callgsubr
          hintmask 11111100
          -66 callsubr
          -231 433 -22 callgsubr
        </CharString>
        <CharString name="ncaron">
          67 35 callsubr
          260 -20 5 callsubr
          233 139 vstemhm
          257 -105 callgsubr
          hintmask 11111000
          -66 callsubr
          166 488 -81 callgsubr
        </CharString>
        <CharString name="ncommaaccent">
          67 -37 callgsubr
          435 65 5 callsubr
          40 138 55 139 vstemhm
          257 -105 callgsubr
          hintmask 11111110
          -66 callsubr
          83 -413 rmoveto
          -100 callsubr
        </CharString>
        <CharString name="ndotaccent">
          67 35 callsubr
          135 155 5 callsubr
          48 155 30 139 vstemhm
          257 -105 callgsubr
          hintmask 11111100
          -66 callsubr
          48 589 -104 callgsubr
        </CharString>
        <CharString name="nine">
          14 -10 55 -55 174 93 59 409 55 hstemhm
          45 161 254 166 hintmask 10111100
          45 511 rmoveto
          -145 112 -109 147 66 47 22 48 43 vhcurveto
          3 -2 rlineto
          -159 -69 -121 -90 vhcurveto
          hintmask 01111100
          -107 33 119 -82 hhcurveto
          -40 -26 -24 -38 -63 84 -49 107 194 159 200 243 204 -120 143 -173 -159 -129 -119 -150 hvcurveto
          415 -78 rmoveto
          -81 -42 -42 -36 -58 hhcurveto
          -73 -39 69 130 143 39 67 84 85 46 -82 -161 hvcurveto
          endchar
        </CharString>
        <CharString name="nineinferior">
          -362 -10 13 callgsubr
          196 -53 callsubr
        </CharString>
        <CharString name="ninesuperior">
          -362 464 13 callgsubr
          670 -53 callsubr
        </CharString>
        <CharString name="ntilde">
          67 35 callsubr
          112 -8 callgsubr
          29 50 callsubr
          233 139 hintmask 11101011
          257 -105 callgsubr
          hintmask 11010011
          -66 callsubr
          -37 497 -80 callsubr
          hintmask 11101101
          -103 callgsubr
          hintmask 11010101
          -80 callgsubr
        </CharString>
        <CharString name="numbersign">
          42 21 -21 250 60 160 60 240 -20 hstem
          635 310 rmoveto
          -144 hlineto
          23 160 rlineto
          141 hlineto
          11 60 rlineto
          -141 hlineto
          35 240 rlineto
          -73 hlineto
          -35 -240 rlineto
          -149 hlineto
          36 240 rlineto
          -73 hlineto
          -36 -240 rlineto
          -151 hlineto
          -10 -60 rlineto
          150 hlineto
          -23 -160 rlineto
          -149 hlineto
          -11 -60 rlineto
          147 hlineto
          -39 -250 rlineto
          73 hlineto
          39 250 rlineto
          149 hlineto
          -36 -250 rlineto
          72 hlineto
          38 250 rlineto
          146 hlineto
          -186 220 rmoveto
          -22 -160 rlineto
          -148 hlineto
          23 160 rlineto
          endchar
        </CharString>
        <CharString name="o">
          -17 callgsubr
          hstem
          36 callgsubr
          157 vstem
          -104 callsubr
          endchar
        </CharString>
        <CharString name="oacute">
          -17 callgsubr
          273 -20 hstem
          36 callgsubr
          157 vstem
          -104 callsubr
          -40 169 -38 callgsubr
          endchar
        </CharString>
        <CharString name="obreve">
          -17 callgsubr
          106 89 -89 140 hstemhm
          36 callgsubr
          157 hintmask 11011100
          -104 callsubr
          106 304 rmoveto
          hintmask 11101100
          5 callgsubr
          hintmask 11011100
          -58 callgsubr
        </CharString>
        <CharString name="ocircumflex">
          -17 callgsubr
          260 -20 hstem
          36 callgsubr
          157 vstem
          -104 callsubr
          -52 318 -93 callgsubr
        </CharString>
        <CharString name="odieresis">
          -17 callgsubr
          136 129 hstemhm
          37 157 -15 42 callgsubr
          -38 157 hintmask 11110010
          -104 callsubr
          hintmask 11101100
          -149 258 rmoveto
          -88 callgsubr
          196 hmoveto
          -88 callgsubr
          endchar
        </CharString>
        <CharString name="odotbelow">
          0 -27 callgsubr
          77 61 431 58 hstem
          37 157 57 155 60 157 vstem
          -104 callsubr
          -77 -647 -104 callgsubr
        </CharString>
        <CharString name="oe">
          393 -10 65 245 56 126 58 hstem
          36 callgsubr
          192 219 140 vstem
          980 128 rmoveto
          -47 -52 -56 -26 -56 hhcurveto
          -97 -61 82 130 16 1 10 3 7 hvcurveto
          322 hlineto
          31 2 2 21 136 -83 81 -141 -98 -81 -40 -66 -51 hvcurveto
          66 -55 -86 40 -94 hhcurveto
          -158 -133 -113 -158 -163 133 -116 158 91 84 38 64 54 hvcurveto
          -64 48 79 -38 97 hhcurveto
          91 74 33 70 62 hvcurveto
          -680 389 rmoveto
          83 55 -87 -127 -131 -54 -86 -84 -82 -52 85 132 128 53 86 81 hvcurveto
          341 -126 19 callgsubr
        </CharString>
        <CharString name="ogonek">
          -382 -239 70 -70 244 hstemhm
          -10 103 hintmask 10100000
          231 -64 callgsubr
          41 51 51 73 32 hvcurveto
          hintmask 01100000
          5 -62 vlineto
          -105 -38 -60 -56 -62 8 callsubr
        </CharString>
        <CharString name="ograve">
          -17 callgsubr
          273 -20 hstem
          36 callgsubr
          157 vstem
          -104 callsubr
          141 169 -82 callgsubr
        </CharString>
        <CharString name="ohungarumlaut">
          -17 callgsubr
          111 162 hstem
          36 callgsubr
          157 vstem
          -104 callsubr
          -113 169 -63 callsubr
        </CharString>
        <CharString name="omacron">
          -17 callgsubr
          152 65 hstem
          36 callgsubr
          157 vstem
          -104 callsubr
          142 210 -43 callsubr
        </CharString>
        <CharString name="one">
          -224 0 40 658 40 42 -20 hstem
          155 147 vstem
          302 780 rmoveto
          -72 -23 -129 -16 -71 -3 rrcurveto
          -40 vlineto
          76 36 -3 -29 8 hvcurveto
          5 -16 0 -53 -77 vvcurveto
          -363 vlineto
          -94 -17 -19 -103 -26 callgsubr
          376 40 vlineto
          -95 3 -14 18 103 vvcurveto
          endchar
        </CharString>
        <CharString name="oneeighth">
          55 31 callsubr
          162 2 callsubr
          161 -2 callsubr
          hintmask 0111101101000000
          679 -68 callgsubr
          hintmask 1011011101000000
          134 780 -87 callsubr
          275 -422 -1 callgsubr
          -98 callsubr
          hintmask 1011101010100000
          -77 callsubr
          endchar
        </CharString>
        <CharString name="onehalf">
          56 0 30 callsubr
          156 2 callsubr
          150 60 89 71 hintmask 1101101110000000
          679 -68 callgsubr
          hintmask 1101011110000000
          134 780 -87 callsubr
          227 -495 -55 callgsubr
          hintmask 1011101110000000
          -58 callsubr
        </CharString>
        <CharString name="oneinferior">
          -411 0 61 callgsubr
          312 -87 callsubr
          endchar
        </CharString>
        <CharString name="onequarter">
          52 0 20 52 30 366 2 callsubr
          246 67 -67 125 hintmask 11110110
          679 -68 callgsubr
          hintmask 11101110
          134 780 -87 callsubr
          127 -471 -56 callsubr
          hintmask 11110101
          19 94 -19 hlineto
          hintmask 11110110
          -52 callsubr
          endchar
        </CharString>
        <CharString name="onesuperior">
          -411 468 61 callgsubr
          780 -87 callsubr
          endchar
        </CharString>
        <CharString name="onethird">
          55 26 callsubr
          2 callsubr
          149 43 callgsubr
          hintmask 0011101101101000
          679 -68 callgsubr
          hintmask 1001101011101000
          134 780 -87 callsubr
          302 -461 rmoveto
          -42 callgsubr
          hintmask 0101101101101000
          -82 callsubr
          hintmask 1001101101011000
          -56 callgsubr
          hintmask 1001011101101000
          -83 callgsubr
          endchar
        </CharString>
        <CharString name="oogonek">
          0 -239 70 651 58 hstemhm
          37 157 -40 40 -40 103 209 157 hintmask 11001100
          395 -64 callgsubr
          38 43 46 64 32 hvcurveto
          143 16 116 111 150 vvcurveto
          157 -136 114 -159 vhcurveto
          hintmask 11100100
          -158 -133 -113 -158 -149 111 -110 140 -17 hvcurveto
          hintmask 11010100
          -86 -38 -48 -50 -56 -57 callsubr
          -102 634 rmoveto
          83 55 -87 -127 -131 -54 -86 -84 -82 -52 85 132 128 53 86 81 hvcurveto
          endchar
        </CharString>
        <CharString name="ordfeminine">
          -279 507 45 -9 -20 22 -20 161 94 -34 34 hstemhm
          53 85 73 74 hintmask 10010110
          211 620 rmoveto
          -37 -18 -31 -23 -19 -13 12 16 23 20 23 53 23 vhcurveto
          -63 7 rmoveto
          -72 -31 -23 -23 -36 vvcurveto
          -35 32 -24 49 vhcurveto
          hintmask 00110110
          34 28 15 23 16 hvcurveto
          4 hlineto
          hintmask 10010110
          -25 18 -13 39 28 29 11 16 11 vhcurveto
          -8 22 rlineto
          hintmask 01010110
          -10 -6 -7 -3 -12 hhcurveto
          -16 -7 20 38 hvcurveto
          102 vlineto
          56 -28 21 -79 -79 -42 -32 -34 -21 17 -7 15 17 8 10 19 7 vhcurveto
          hintmask 10001110
          25 9 8 6 31 hhcurveto
          29 13 -14 -31 hvcurveto
          -14 vlineto
          endchar
        </CharString>
        <CharString name="ordmasculine">
          -277 507 37 200 36 hstem
          41 87 126 88 vstem
          190 780 rmoveto
          -81 -68 -57 -78 -80 68 -58 81 82 70 58 80 78 -70 57 -82 hvcurveto
          -36 vmoveto
          38 26 -41 -58 -61 -26 -40 -38 -37 -25 40 61 58 26 41 36 hvcurveto
          endchar
        </CharString>
        <CharString name="oslash">
          -2 -40 -21 51 61 431 58 52 2 callgsubr
          56 -50 hvcurveto
          -104 -125 rlineto
          80 -5 callgsubr
          -81 hlineto
          -79 -95 rlineto
          27 -46 -55 16 -58 hhcurveto
          -58 vmoveto
          41 34 -21 -37 24 hvcurveto
          -219 -263 rlineto
          -9 30 -5 36 41 -19 callgsubr
          endchar
        </CharString>
        <CharString name="oslashacute">
          -2 -40 -21 51 61 431 58 273 2 callgsubr
          55 -49 hvcurveto
          -104 -126 rlineto
          81 -5 callgsubr
          -82 hlineto
          -78 -94 rlineto
          27 -47 -54 15 -58 hhcurveto
          -58 vmoveto
          40 34 -21 -36 24 hvcurveto
          -218 -263 rlineto
          -9 30 -5 36 40 -19 callgsubr
          -140 383 -38 callgsubr
          endchar
        </CharString>
        <CharString name="otilde">
          -17 callgsubr
          112 -8 callgsubr
          36 callgsubr
          157 hintmask 11010110
          -104 callsubr
          -151 178 -80 callsubr
          hintmask 11101110
          -103 callgsubr
          hintmask 11010110
          -80 callgsubr
        </CharString>
        <CharString name="p">
          37 -250 42 198 66 427 57 hstemhm
          19 199 -112 138 264 151 hintmask 11110100
          218 536 rmoveto
          -201 -28 rlineto
          -39 vlineto
          56 20 -10 -31 6 hvcurveto
          hintmask 11101100
          4 -22 3 -63 -61 vvcurveto
          -372 vlineto
          hintmask 11110100
          54 callgsubr
          hintmask 11101100
          -26 callsubr
          hintmask 11110100
          -4 hlineto
          170 18 rmoveto
          79 41 -75 -145 -140 -39 -67 -81 -45 -37 19 36 -25 hvcurveto
          -23 33 -12 42 46 vvcurveto
          68 vlineto
          53 13 49 22 30 vhcurveto
          31 23 41 20 43 hhcurveto
          endchar
        </CharString>
        <CharString name="paragraph">
          -1 -165 43 849 43 hstemhm
          271 97 48 96 -96 196 hintmask 11110000
          512 568 rmoveto
          72 4 30 8 21 vhcurveto
          hintmask 11101000
          28 10 19 8 59 hhcurveto
          43 -290 vlineto
          -187 -102 -75 -136 -130 75 -77 127 hvcurveto
          16 9 1 11 hhcurveto
          -285 vlineto
          -65 -4 -69 -6 -17 vhcurveto
          -28 -10 -31 -11 -74 hhcurveto
          -43 222 881 48 -881 196 43 vlineto
          -54 -24 10 26 -8 hvcurveto
          hintmask 11110000
          -9 21 -5 58 75 vvcurveto
          endchar
        </CharString>
        <CharString name="parenleft">
          -317 -173 -21 1025 -20 hstem
          35 135 vstem
          291 831 rmoveto
          -169 -154 -87 -174 -180 vvcurveto
          -185 91 -178 173 -154 vhcurveto
          33 33 rlineto
          -115 137 -47 193 173 vvcurveto
          138 35 150 118 173 vhcurveto
          endchar
        </CharString>
        <CharString name="parenright">
          -317 -173 -21 1025 -20 hstem
          173 135 vstem
          20 803 rmoveto
          118 -173 35 -150 -138 vvcurveto
          -173 -47 -193 -115 -137 vhcurveto
          33 -33 rlineto
          173 154 91 178 185 vvcurveto
          180 -87 174 -169 154 vhcurveto
          endchar
        </CharString>
        <CharString name="percent">
          52 1 callsubr
          hintmask 0111011111000000
          682 -68 callgsubr
          hintmask 1011101111000000
          104 780 -34 callsubr
          71 58 69 87 90 -58 70 -71 -66 callgsubr
          284 -193 -34 callsubr
          70 59 69 87 90 -59 70 -70 -66 callgsubr
          endchar
        </CharString>
        <CharString name="period">
          -400 -10 151 hstem
          54 152 vstem
          54 64 18 callsubr
          endchar
        </CharString>
        <CharString name="periodcentered">
          -379 200 151 hstem
          65 152 vstem
          65 274 18 callsubr
          endchar
        </CharString>
        <CharString name="perthousand">
          308 1 callsubr
          48 75 108 75 hintmask 0111011111110000
          682 -68 callgsubr
          hintmask 1011101111110000
          104 780 -34 callsubr
          71 58 69 87 90 -58 70 -71 -66 callgsubr
          590 -193 -34 callsubr
          70 59 69 87 90 -59 70 -70 -66 callgsubr
          -306 281 -34 callsubr
          70 59 69 87 90 -59 70 -70 -66 callgsubr
          endchar
        </CharString>
        <CharString name="plus">
          -100 107 -21 221 62 221 -20 hstem
          246 68 vstem
          314 86 rmoveto
          221 212 62 -212 221 -68 -221 -212 -62 212 -221 vlineto
          endchar
        </CharString>
        <CharString name="plusminus">
          -32 88 64 284 64 209 -20 hstem
          280 68 vstem
          348 227 rmoveto
          209 212 64 -212 209 -68 -209 -212 -64 212 -209 vlineto
          280 -75 56 callsubr
          endchar
        </CharString>
        <CharString name="q">
          14 -250 40 200 65 427 58 -10 -20 hstemhm
          39 151 259 140 hintmask 11101100
          449 249 rmoveto
          -47 -8 -42 -15 -32 vhcurveto
          -46 -22 -42 -27 -48 hhcurveto
          -80 -44 76 138 136 45 77 79 77 58 -73 -98 hvcurveto
          2 -403 rmoveto
          -91 -26 -25 -97 -2 vhcurveto
          -40 358 40 vlineto
          -89 3 -8 11 111 vvcurveto
          hintmask 11011100
          615 -44 vlineto
          -76 -58 rlineto
          hintmask 11101100
          45 -47 -57 23 -67 hhcurveto
          -151 -108 -115 -162 -158 107 -115 147 62 45 21 51 46 hvcurveto
          5 hlineto
          endchar
        </CharString>
        <CharString name="question">
          -257 -10 151 98 237 -116 116 184 120 hstemhm
          72 152 -106 68 104 67 hintmask 11010110
          186 239 rmoveto
          hintmask 10110110
          121 vlineto
          108 63 63 107 131 -109 119 -119 -48 -27 -21 -40 -35 27 -24 39 hvcurveto
          23 30 11 26 hhcurveto
          50 41 -48 -58 -58 -46 -31 -91 hvcurveto
          -35 hlineto
          hintmask 11010110
          -237 vlineto
          hintmask 11011010
          -46 -174 11 callsubr
        </CharString>
        <CharString name="questiondown">
          -259 -10 120 184 116 -116 237 98 151 hstemhm
          45 67 66 152 -114 68 hintmask 10111010
          216 531 rmoveto
          hintmask 11011010
          -121 vlineto
          -108 -63 -63 -107 -131 109 -119 119 48 27 21 40 35 -27 24 -39 hvcurveto
          -23 -30 -11 -26 hhcurveto
          -50 -41 48 58 58 46 31 91 hvcurveto
          35 hlineto
          hintmask 10111010
          237 vlineto
          hintmask 11011100
          46 174 12 callgsubr
        </CharString>
        <CharString name="quotedbl">
          -268 575 -21 276 -20 hstem
          48 117 62 -12 callsubr
          221 hmoveto
          11 72 26 113 31 vvcurveto
          35 -25 25 -33 -34 -25 -25 -34 -31 27 -114 12 -72 vhcurveto
          endchar
        </CharString>
        <CharString name="quotedblbase">
          -193 -163 48 callgsubr
          55 152 54 152 vstem
          85 -184 -75 callgsubr
          235 -42 -75 callgsubr
          endchar
        </CharString>
        <CharString name="quotedblleft">
          -207 540 141 149 -20 hstem
          44 152 54 152 vstem
          372 830 -45 callgsubr
          -235 42 -45 callgsubr
          endchar
        </CharString>
        <CharString name="quotedblright">
          -212 561 48 callgsubr
          54 152 54 152 vstem
          84 540 -75 callgsubr
          235 -42 -75 callgsubr
          endchar
        </CharString>
        <CharString name="quoteleft">
          -413 540 141 149 -20 hstem
          44 152 vstem
          166 830 -45 callgsubr
          endchar
        </CharString>
        <CharString name="quoteright">
          -418 561 48 callgsubr
          54 152 vstem
          84 540 -75 callgsubr
          endchar
        </CharString>
        <CharString name="quotesinglbase">
          -399 -163 48 callgsubr
          55 152 vstem
          85 -184 -75 callgsubr
          endchar
        </CharString>
        <CharString name="quotesingle">
          -447 575 -21 276 -20 hstem
          48 -12 callsubr
          endchar
        </CharString>
        <CharString name="r">
          62 callsubr
          hstemhm
          119 139 hintmask 10110000
          -47 callsubr
          hintmask 11010000
          -89 callgsubr
          endchar
        </CharString>
        <CharString name="racute">
          62 callsubr
          273 -20 hstemhm
          119 139 hintmask 10111000
          -47 callsubr
          hintmask 11011000
          -89 callgsubr
          -10 496 -38 callgsubr
          endchar
        </CharString>
        <CharString name="rcaron">
          62 callsubr
          260 -20 hstemhm
          119 139 hintmask 10111000
          -47 callsubr
          hintmask 11011000
          -89 callgsubr
          82 496 -81 callgsubr
        </CharString>
        <CharString name="rcommaaccent">
          -162 -37 callgsubr
          357 143 -103 103 hstemhm
          119 139 hintmask 11101100
          -47 callsubr
          hintmask 11110100
          -89 callgsubr
          -100 -405 rmoveto
          -100 callsubr
        </CharString>
        <CharString name="rdotbelow">
          -162 -27 callgsubr
          87 58 callgsubr
          hstemhm
          119 139 hintmask 11011000
          -47 callsubr
          hintmask 11101000
          -89 callgsubr
          -146 -320 -104 callgsubr
        </CharString>
        <CharString name="registered">
          242 -10 58 135 27 -27 233 169 30 107 58 hstemhm
          45 60 184 88 137 102 181 60 hintmask 1101111110000000
          -51 callsubr
          -181 121 rmoveto
          67 -68 41 -118 vhcurveto
          -184 -30 hlineto
          37 -2 6 -10 -51 vvcurveto
          -249 vlineto
          -51 -7 -10 -42 -2 vhcurveto
          -27 208 27 vlineto
          -63 -8 12 54 hvcurveto
          107 vlineto
          16 12 -6 -23 20 hvcurveto
          145 -171 rlineto
          124 27 hlineto
          -32 5 -19 10 -20 23 -130 145 rcurveline
          86 12 37 42 60 vvcurveto
          -239 64 rmoveto
          5 2 4 8 vhcurveto
          43 hlineto
          59 25 -21 -55 hvcurveto
          hintmask 1011111110000000
          -62 -32 -26 -68 vhcurveto
          -37 hlineto
          endchar
        </CharString>
        <CharString name="ring">
          -436 656 47 76 51 hstem
          21 49 80 53 vstem
          21 742 -27 callsubr
        </CharString>
        <CharString name="ring.cap">
          -482 830 41 47 42 hstemhm
          21 136 -43 43 hintmask 11100000
          21 895 -35 callsubr
          vhcurveto
          hintmask 11010000
          10 callgsubr
          hvcurveto
          endchar
        </CharString>
        <CharString name="s">
          -194 -10 46 callgsubr
          133 124 hintmask 10101100
          -85 callsubr
          hintmask 10011100
          -14 callgsubr
          hintmask 10101100
          -86 callsubr
          hintmask 01101100
          -182 31 vlineto
          endchar
        </CharString>
        <CharString name="s_p">
          472 -250 42 198 54 -54 66 -35 -21 394 146 -53 53 5 -20 143 122 -58 58 -8 -20 59 callsubr
          64 57 12 124 110 112 -112 138 264 151 hintmask 1010010100111101
          107 35 rmoveto
          -29 30 52 -16 59 hhcurveto
          110 72 61 92 69 -36 45 -115 67 hvcurveto
          -81 46 -25 23 39 vvcurveto
          32 24 23 35 vhcurveto
          hintmask 1100100010111101
          70 3 -93 68 hhcurveto
          35 26 25 33 29 -25 25 -39 18 hvcurveto
          -53 24 -23 32 46 vvcurveto
          61 50 45 66 vhcurveto
          hintmask 1100100100111101
          68 49 -64 53 hhcurveto
          -29 -77 -11 -62 -79 vvcurveto
          -540 vlineto
          54 callgsubr
          hintmask 1010100100111011
          -26 callsubr
          hintmask 1100100001111101
          -4 193 hlineto
          29 33 38 35 31 -19 20 -38 -33 -22 -21 -42 -8 hvcurveto
          hintmask 1100001100111101
          -44 -49 71 -90 hhcurveto
          -96 -78 -74 -92 -28 10 -30 19 -21 hvcurveto
          -12 hlineto
          -119 -77 -62 -97 -70 36 -42 106 -61 hvcurveto
          90 -53 16 -27 -31 vvcurveto
          -36 -29 -22 -49 -68 -41 43 95 -23 vhcurveto
          -42 hlineto
          hintmask 1001100100111101
          -182 31 vlineto
          737 483 rmoveto
          79 41 -75 -145 hvcurveto
          hintmask 1010100100111101
          -140 -39 -67 -81 -88 -54 79 97 vhcurveto
          68 vlineto
          113 51 70 91 vhcurveto
          endchar
        </CharString>
        <CharString name="s_t">
          207 -10 64 -33 -21 394 151 -70 45 -33 58 -15 -20 239 55 59 callsubr
          142 60 -60 115 153 139 -69 69 hintmask 1000101101100000
          107 35 rmoveto
          -29 31 52 -16 58 hhcurveto
          110 72 61 92 71 -37 44 -114 66 hvcurveto
          -81 46 -25 25 37 vvcurveto
          32 24 23 35 vhcurveto
          hintmask 1010001110010000
          70 3 -93 68 hhcurveto
          35 26 25 33 15 -7 15 -12 13 hvcurveto
          -28 32 -12 32 43 vvcurveto
          92 54 55 89 81 54 -46 -67 vhcurveto
          hintmask 1001001110100000
          -66 -52 -50 -91 vhcurveto
          -45 73 -363 vlineto
          -77 54 -45 92 68 46 25 46 18 vhcurveto
          -21 29 rlineto
          -25 -16 -17 -11 -25 hhcurveto
          -43 19 callsubr
          vlineto
          hintmask 1000011110100000
          55 -115 79 vlineto
          128 -68 67 -131 -134 -74 -70 -125 -24 3 -24 5 -23 vhcurveto
          hintmask 0110001110100000
          5 -21 -23 2 -25 hhcurveto
          -119 -77 -62 -97 -68 36 -44 106 -61 hvcurveto
          77 -45 29 -30 -36 vvcurveto
          -36 -29 -22 -49 -68 -41 43 95 -23 vhcurveto
          -42 -182 31 hlineto
          endchar
        </CharString>
        <CharString name="sacute">
          -194 -10 -16 callsubr
          302 -86 callgsubr
          112 651 -38 callgsubr
          endchar
        </CharString>
        <CharString name="scaron">
          -194 -10 -16 callsubr
          289 -86 callgsubr
          209 651 -81 callgsubr
        </CharString>
        <CharString name="schwa">
          -74 -10 58 146 56 225 65 hstem
          37 140 219 152 vstem
          74 402 rmoveto
          47 52 56 26 56 hhcurveto
          97 61 -74 -118 -16 -1 -10 -3 -7 hvcurveto
          -322 hlineto
          -31 -2 -2 -21 -148 83 -89 141 168 119 117 165 159 -111 109 -164 -91 -74 -33 -70 -62 hvcurveto
          339 -243 rmoveto
          -85 -3 -50 -61 -67 hhcurveto
          -56 -32 50 70 23 9 3 54 hvcurveto
          endchar
        </CharString>
        <CharString name="scircumflex">
          -194 -10 -16 callsubr
          289 -86 callgsubr
          105 800 -93 callgsubr
        </CharString>
        <CharString name="sdotbelow">
          -194 -241 155 76 46 callgsubr
          -11 155 -11 124 hintmask 11010101
          -85 callsubr
          hintmask 11001101
          -14 callgsubr
          hintmask 11010101
          -86 callsubr
          hintmask 10110010
          -182 31 vlineto
          77 -164 -104 callgsubr
        </CharString>
        <CharString name="section">
          -100 -174 55 729 220 -50 50 hstemhm
          47 96 -96 138 -116 98 177 132 -102 102 -66 93 -78 78 hintmask 1101000001000000
          208 307 rmoveto
          -38 21 -27 31 33 vvcurveto
          25 16 26 41 23 vhcurveto
          140 -79 47 -26 37 -42 1 -40 rlinecurve
          -24 -14 -23 -33 -21 vhcurveto
          -97 -104 rmoveto
          hintmask 1100100010000000
          108 -61 21 -23 -42 vvcurveto
          -63 -49 -37 -85 -72 -65 26 29 vhcurveto
          24 46 18 44 vvcurveto
          36 -32 30 -39 -41 -26 -34 -54 -102 94 -72 131 137 94 78 112 61 -27 57 -49 43 vhcurveto
          61 42 25 45 64 vvcurveto
          72 -31 53 -90 55 vhcurveto
          -105 64 rlineto
          hintmask 1010010100000000
          -109 66 -11 22 31 vvcurveto
          59 39 30 69 57 42 -20 -26 vhcurveto
          hintmask 1101001000000000
          -21 -30 -5 -37 vvcurveto
          hintmask 1101000010000000
          -36 28 -25 38 vhcurveto
          hintmask 1100011000000000
          41 25 29 46 85 -83 60 -118 -125 -81 -67 -103 -63 31 -62 49 -36 hvcurveto
          -65 -31 -34 -51 -71 vvcurveto
          -77 40 -54 83 -47 vhcurveto
          endchar
        </CharString>
        <CharString name="semicolon">
          -365 -134 -21 155 141 165 151 hstem
          73 152 vstem
          78 -16 callgsubr
          24 493 18 callsubr
          endchar
        </CharString>
        <CharString name="servicemark">
          146 464 30 -15 -21 292 30 -10 -20 24 -20 hstemhm
          74 51 -51 184 -29 57 63 36 246 63 hintmask 1010010111000000
          68 472 rmoveto
          15 hlineto
          11 20 rlineto
          -19 23 22 -9 31 hhcurveto
          56 60 29 61 48 -21 25 -87 37 hvcurveto
          -41 17 -12 13 22 vvcurveto
          24 22 10 23 31 20 -14 -41 14 vhcurveto
          hintmask 1000101011000000
          23 79 -11 hlineto
          -12 -18 rlineto
          hintmask 1010010111000000
          17 -22 -21 7 -23 hhcurveto
          -49 -46 -30 -54 -45 21 -28 71 -29 hvcurveto
          51 -21 12 -14 -23 vvcurveto
          -28 -26 -14 -32 -49 -23 32 36 -7 vhcurveto
          -24 hlineto
          456 -3 rmoveto
          hintmask 0101010111000000
          -85 211 rlineto
          -132 -25 hlineto
          36 6 -3 callgsubr
          25 callsubr
          -50 -5 -7 -41 -2 callgsubr
        </CharString>
        <CharString name="seven">
          -144 11 -21 560 -20 121 119 60 -20 hstem
          418 651 rmoveto
          -66 -130 -25 -46 -120 -198 rrcurveto
          -97 -160 -13 -28 -36 vvcurveto
          -40 24 -23 40 46 30 30 77 27 vhcurveto
          98 287 14 34 152 312 rrcurveto
          40 -318 vlineto
          -61 -19 7 24 8 2 9 3 12 hvcurveto
          -42 hlineto
          -74 -280 rlineto
          40 hlineto
          17 39 rlineto
          54 23 19 8 110 hhcurveto
          endchar
        </CharString>
        <CharString name="seveneighths">
          55 31 callsubr
          419 45 24 -20 hstemhm
          403 -2 callsubr
          hintmask 0111101100000000
          679 7 callgsubr
          hintmask 1011110100000000
          -98 callsubr
          hintmask 1011101010000000
          -77 callsubr
          -293 445 -67 callgsubr
        </CharString>
        <CharString name="seveninferior">
          -429 11 -21 267 45 24 -20 hstem
          122 158 -67 callgsubr
        </CharString>
        <CharString name="sevensuperior">
          -429 479 -21 267 45 24 -20 hstem
          122 626 -67 callgsubr
        </CharString>
        <CharString name="six">
          14 -10 55 409 59 93 174 -55 55 hstemhm
          48 166 254 161 hintmask 11011100
          629 259 rmoveto
          145 -112 109 -147 -64 -45 -22 -48 -42 vhcurveto
          -3 2 rlineto
          159 67 121 87 vhcurveto
          hintmask 11101100
          107 -33 -119 82 hhcurveto
          40 26 24 38 63 -84 49 -107 -194 -159 -200 -243 -204 120 -143 173 159 129 119 150 hvcurveto
          -415 78 rmoveto
          81 42 42 36 58 hhcurveto
          73 39 -69 -130 -143 -39 -67 -84 -85 -46 81 157 hvcurveto
          endchar
        </CharString>
        <CharString name="sixinferior">
          -363 -10 10 callsubr
          100 -52 callgsubr
        </CharString>
        <CharString name="sixsuperior">
          -364 464 10 callsubr
          574 -52 callgsubr
        </CharString>
        <CharString name="slash">
          -183 51 callsubr
          455 770 rmoveto
          -61 hlineto
          -371 -770 rlineto
          71 hlineto
          endchar
        </CharString>
        <CharString name="space">
          -394 endchar
        </CharString>
        <CharString name="sterling">
          48 -11 60 -60 120 -98 -21 123 57 200 61 173 176 -58 58 hstemhm
          35 78 52 128 -26 105 hintmask 1001101110000000
          242 77 rmoveto
          -18 -23 -31 -10 -30 hhcurveto
          -30 -15 10 22 20 14 12 24 22 26 -10 -26 43 hvcurveto
          65 457 rmoveto
          -7 21 -7 43 23 vvcurveto
          61 48 40 72 vhcurveto
          hintmask 1001110110000000
          123 -49 -118 92 hhcurveto
          35 19 17 34 73 -88 52 -123 -157 -100 -84 -132 -38 8 -45 16 -50 hvcurveto
          -111 -61 131 hlineto
          hintmask 1001110101000000
          36 -66 22 -64 -41 vvcurveto
          -15 -2 -32 -2 -9 vhcurveto
          17 -37 -42 10 -34 hhcurveto
          -67 -48 -41 -57 -51 40 -32 66 hvcurveto
          hintmask 1001110110000000
          59 66 26 34 27 hvcurveto
          hintmask 0011110110000000
          -43 101 57 -16 56 hhcurveto
          105 53 55 109 hvcurveto
          -11 4 rlineto
          hintmask 0101110101000000
          -34 -38 -48 -15 -69 hhcurveto
          -48 -70 7 10 -49 hvcurveto
          28 38 12 44 63 vvcurveto
          35 -4 25 -10 39 vhcurveto
          199 61 -213 hlineto
          endchar
        </CharString>
        <CharString name="t">
          -278 -10 64 421 55 121 -20 hstem
          98 139 vstem
          98 -77 callgsubr
          -27 -59 -55 -49 -79 -23 rrcurveto
          -45 vlineto
          endchar
        </CharString>
        <CharString name="tbar">
          -275 -10 64 277 50 94 55 121 -20 hstem
          101 139 vstem
          101 475 rmoveto
          -94 -52 -50 52 -219 vlineto
          -77 54 -45 92 68 46 25 46 18 vhcurveto
          -21 29 rlineto
          -25 -14 -18 -11 -27 hhcurveto
          -42 -17 32 82 hvcurveto
          163 102 50 -102 94 115 55 -115 121 -51 vlineto
          -27 -59 -55 -49 -79 -23 rrcurveto
          -45 vlineto
          endchar
        </CharString>
        <CharString name="tcaron">
          -278 -10 64 421 55 140 110 hstem
          98 139 75 138 vstem
          98 -77 callgsubr
          -27 -59 -55 -49 -79 -23 rrcurveto
          -45 vlineto
          330 84 -57 callgsubr
        </CharString>
        <CharString name="tdotbelow">
          -278 -27 callgsubr
          77 14 callsubr
          -104 155 hintmask 11111000
          98 -77 callgsubr
          -27 -59 -55 -49 -79 -23 rrcurveto
          -45 vlineto
          hintmask 11110100
          108 -640 -104 callgsubr
        </CharString>
        <CharString name="thorn">
          14 -250 35 204 58 430 63 290 -20 hstemhm
          -13 236 -138 138 262 151 hintmask 11110110
          85 -97 rmoveto
          hintmask 11111010
          -97 -15 -18 -83 -3 vhcurveto
          -35 360 35 vlineto
          -104 3 -16 16 106 vvcurveto
          146 vlineto
          -46 37 45 -21 62 hhcurveto
          149 116 122 157 154 -109 118 -142 -69 -53 -27 -54 -36 hvcurveto
          -4 371 hlineto
          -234 -40 rlineto
          -35 vlineto
          61 -8 14 -6 8 -18 rrcurveto
          hintmask 11110110
          9 -20 4 -45 -64 vvcurveto
          140 -296 rmoveto
          40 7 31 16 34 vhcurveto
          52 26 32 22 49 hhcurveto
          86 44 -72 -142 -141 -45 -75 -83 -78 -54 66 96 hvcurveto
          endchar
        </CharString>
        <CharString name="three">
          -23 -10 57 193 64 56 71 -53 53 296 53 hstemhm
          37 147 -116 140 203 153 -135 160 hintmask 1110110010000000
          429 216 rmoveto
          -102 -54 -67 -75 -70 -46 43 65 48 30 37 40 vhcurveto
          39 -8 -33 25 -44 hhcurveto
          -72 -60 -62 -74 -103 112 -75 152 167 121 91 126 95 -67 81 -102 28 hvcurveto
          6 vlineto
          hintmask 1110101100000000
          84 22 60 77 86 vvcurveto
          108 -101 70 -157 -143 -95 -57 -85 -63 53 -52 65 41 28 22 36 8 vhcurveto
          -32 -23 27 36 52 36 31 61 65 41 -50 -96 -100 -42 -50 -63 hvcurveto
          5 -19 -26 6 -18 hhcurveto
          -36 -21 -14 -24 -28 22 -16 37 hvcurveto
          hintmask 1101110010000000
          17 27 7 11 26 hvcurveto
          71 43 -60 -102 hvcurveto
          endchar
        </CharString>
        <CharString name="threeeighths">
          56 31 callsubr
          158 3 callsubr
          -10 -20 hstemhm
          84 43 callgsubr
          99 -2 callsubr
          hintmask 0111010011011010
          686 7 callgsubr
          hintmask 1011011001011010
          -98 callsubr
          hintmask 1011011001010101
          -77 callsubr
          -292 375 rmoveto
          -42 callgsubr
          hintmask 1010111001011010
          -82 callsubr
          hintmask 1011011000111010
          -56 callgsubr
          hintmask 1011010101011010
          -83 callgsubr
          endchar
        </CharString>
        <CharString name="threeinferior">
          -376 -10 3 callsubr
          hstemhm
          27 43 callgsubr
          hintmask 10110101
          180 82 rmoveto
          -42 callgsubr
          hintmask 01110101
          -82 callsubr
          hintmask 10110011
          -56 callgsubr
          hintmask 10101101
          -83 callgsubr
          endchar
        </CharString>
        <CharString name="threequarters">
          54 0 20 52 30 362 3 callsubr
          -10 -20 hstemhm
          94 43 callgsubr
          173 67 -67 125 hintmask 1110100110110000
          685 -68 callgsubr
          261 72 -56 callsubr
          hintmask 1110110010101000
          19 94 -19 hlineto
          hintmask 1110110010110000
          -52 callsubr
          -247 343 rmoveto
          -42 callgsubr
          hintmask 1101110010110000
          -82 callsubr
          hintmask 1110110001110000
          -56 callgsubr
          hintmask 1110101010110000
          -83 callgsubr
          endchar
        </CharString>
        <CharString name="threesuperior">
          -377 464 3 callsubr
          hstemhm
          27 43 callgsubr
          hintmask 10110101
          180 556 rmoveto
          -42 callgsubr
          hintmask 01110101
          -82 callsubr
          hintmask 10110011
          -56 callgsubr
          hintmask 10101101
          -83 callgsubr
          endchar
        </CharString>
        <CharString name="tilde">
          -259 652 -8 callgsubr
          hintmask 01000000
          57 660 -80 callsubr
          hintmask 10100000
          -103 callgsubr
          hintmask 01000000
          -80 callgsubr
        </CharString>
        <CharString name="tilde.cap">
          -259 820 -9 callsubr
          hintmask 01100000
          57 828 -80 callsubr
          hintmask 10000000
          -103 callgsubr
          hintmask 01100000
          -80 callgsubr
        </CharString>
        <CharString name="trademark">
          246 462 25 -8 -21 285 27 hstemhm
          61 21 107 64 -64 189 71 36 246 63 hintmask 10110111
          378 770 rmoveto
          -317 -81 21 hlineto
          51 2 27 3 36 hhcurveto
          35 7 -3 -10 hvcurveto
          -194 vlineto
          -34 -7 -13 -43 -2 vhcurveto
          -25 163 25 vlineto
          hintmask 10111011
          -43 2 -6 12 35 vvcurveto
          194 vlineto
          10 6 3 41 43 9 -12 -42 4 vhcurveto
          hintmask 10110111
          22 hlineto
          246 -130 rmoveto
          -85 211 rlineto
          -132 -25 hlineto
          33 9 -3 callgsubr
          hintmask 01111011
          25 callsubr
          hintmask 10111011
          -50 -6 -7 -40 -2 callgsubr
        </CharString>
        <CharString name="two">
          -9 0 118 305 63 237 57 hstem
          49 132 249 161 vstem
          227 123 rmoveto
          210 141 154 139 161 vvcurveto
          127 -110 89 -157 -158 -117 -88 -119 -87 62 -63 83 43 33 25 38 6 vhcurveto
          -58 -37 42 66 76 53 53 73 76 47 -60 -97 -140 -74 -108 -317 -272 hvcurveto
          -46 524 vlineto
          40 233 rlineto
          -44 hlineto
          -94 -30 -30 -21 -67 hhcurveto
          -204 hlineto
          endchar
        </CharString>
        <CharString name="twoinferior">
          -376 0 30 callsubr
          hstemhm
          28 60 89 71 hintmask 11011000
          105 48 -55 callgsubr
          hintmask 10111000
          -58 callsubr
        </CharString>
        <CharString name="twosuperior">
          -376 468 30 callsubr
          hstemhm
          28 60 89 71 hintmask 11011000
          105 516 -55 callgsubr
          hintmask 10111000
          -58 callsubr
        </CharString>
        <CharString name="twothirds">
          57 26 callsubr
          30 callsubr
          -10 -20 hstemhm
          89 60 89 71 90 43 callgsubr
          hintmask 0011101001111010
          687 -68 callgsubr
          436 82 rmoveto
          hintmask 1001101100111010
          -42 callgsubr
          hintmask 0101101100111010
          -82 callsubr
          hintmask 1001101100110110
          -56 callgsubr
          hintmask 1001011100111010
          -83 callgsubr
          -386 434 -55 callgsubr
          hintmask 1001101010111010
          -58 callsubr
        </CharString>
        <CharString name="u">
          -51 callgsubr
          -24 callsubr
          hintmask 01011100
          465 262 rmoveto
          -105 callsubr
          hintmask 00111100
          -37 callsubr
          hintmask 10011100
          -92 callgsubr
          endchar
        </CharString>
        <CharString name="uacute">
          -51 callgsubr
          303 -20 -24 callsubr
          hintmask 01011110
          465 262 rmoveto
          -105 callsubr
          hintmask 00111110
          -37 callsubr
          hintmask 10011110
          -92 callgsubr
          -187 285 -38 callgsubr
          endchar
        </CharString>
        <CharString name="ubreve">
          -51 callgsubr
          136 89 -89 140 -24 callsubr
          hintmask 01011011
          465 262 rmoveto
          -105 callsubr
          hintmask 00111011
          -37 callsubr
          hintmask 10010111
          -92 callgsubr
          -40 420 rmoveto
          hintmask 10011011
          5 callgsubr
          hintmask 10010111
          -58 callgsubr
        </CharString>
        <CharString name="ucircumflex">
          -51 callgsubr
          290 -20 -24 callsubr
          hintmask 01011110
          465 262 rmoveto
          -105 callsubr
          hintmask 00111110
          -37 callsubr
          hintmask 10011110
          -92 callgsubr
          -198 434 -93 callgsubr
        </CharString>
        <CharString name="udieresis">
          -51 callgsubr
          166 129 45 callgsubr
          -67 42 callgsubr
          -30 139 hintmask 0101110010000000
          465 262 rmoveto
          -105 callsubr
          hintmask 0011110100000000
          -37 callsubr
          hintmask 1001101010000000
          -92 callgsubr
          -295 374 rmoveto
          -88 callgsubr
          hintmask 1001110100000000
          196 hmoveto
          -88 callgsubr
          endchar
        </CharString>
        <CharString name="udotbelow">
          49 -27 callgsubr
          77 32 callsubr
          98 139 12 155 61 139 hintmask 10111110
          465 262 rmoveto
          -105 callsubr
          -37 callsubr
          hintmask 11011110
          -92 callgsubr
          -216 -531 -104 callgsubr
        </CharString>
        <CharString name="ugrave">
          -51 callgsubr
          303 -20 -24 callsubr
          hintmask 01011110
          465 262 rmoveto
          -105 callsubr
          hintmask 00111110
          -37 callsubr
          hintmask 10011110
          -92 callgsubr
          -26 285 -82 callgsubr
        </CharString>
        <CharString name="uhungarumlaut">
          -51 callgsubr
          141 162 -24 callsubr
          hintmask 01011110
          465 262 rmoveto
          -105 callsubr
          hintmask 00111110
          -37 callsubr
          hintmask 10011110
          -92 callgsubr
          -274 285 -63 callsubr
        </CharString>
        <CharString name="umacron">
          -51 callgsubr
          182 65 -24 callsubr
          hintmask 01011110
          465 262 rmoveto
          -105 callsubr
          hintmask 00111110
          -37 callsubr
          hintmask 10011110
          -92 callgsubr
          -4 326 -43 callsubr
        </CharString>
        <CharString name="underscore">
          70 -148 78 hstem
          664 -148 rmoveto
          78 -598 -78 vlineto
          endchar
        </CharString>
        <CharString name="uni00A0">
          -394 endchar
        </CharString>
        <CharString name="uni00AD">
          -193 242 95 hstem
          401 242 rmoveto
          95 -335 -95 vlineto
          endchar
        </CharString>
        <CharString name="uni015E">
          3 -24 callgsubr
          53 60 -23 callgsubr
          hstemhm
          72 114 166 106 31 129 hintmask 1010111111000000
          69 hmoveto
          24 hlineto
          20 60 55 -41 52 -21 61 -6 rlinecurve
          -46 -104 -62 callgsubr
          hintmask 0111011111000000
          -71 callsubr
          22 53 rlineto
          162 8 111 91 129 vvcurveto
          111 -76 75 -186 71 vhcurveto
          -138 52 -32 25 57 vvcurveto
          64 57 45 82 89 72 -60 -109 32 vhcurveto
          39 hlineto
          -11 216 rlineto
          -24 hlineto
          -18 -50 rlineto
          43 -58 -59 21 -68 hhcurveto
          -146 -101 -87 -125 -107 74 -79 155 -59 hvcurveto
          155 -58 33 -27 -63 vvcurveto
          -74 -67 -50 -100 -120 -91 78 126 -18 vhcurveto
          -39 hlineto
          endchar
        </CharString>
</ttFont>
